<svg width="208" height="37" viewBox="0 0 208 37" fill="none" xmlns="http://www.w3.org/2000/svg">
<path d="M2.075 21.6519V4.15185H10.625C12.825 4.15185 14.475 4.56852 15.575 5.40185C16.6917 6.23519 17.25 7.33519 17.25 8.70186C17.25 9.61852 17.025 10.4185 16.575 11.1019C16.125 11.7685 15.5083 12.2852 14.725 12.6519C13.9417 13.0185 13.0417 13.2019 12.025 13.2019L12.5 12.1769C13.6 12.1769 14.575 12.3602 15.425 12.7269C16.275 13.0769 16.9333 13.6019 17.4 14.3019C17.8833 15.0019 18.125 15.8602 18.125 16.8769C18.125 18.3769 17.5333 19.5519 16.35 20.4019C15.1667 21.2352 13.425 21.6519 11.125 21.6519H2.075ZM6.1 18.6019H10.825C11.875 18.6019 12.6667 18.4352 13.2 18.1019C13.75 17.7519 14.025 17.2019 14.025 16.4519C14.025 15.7185 13.75 15.1769 13.2 14.8269C12.6667 14.4602 11.875 14.2769 10.825 14.2769H5.8V11.3269H10.125C11.1083 11.3269 11.8583 11.1602 12.375 10.8269C12.9083 10.4769 13.175 9.95185 13.175 9.25185C13.175 8.56852 12.9083 8.06019 12.375 7.72685C11.8583 7.37685 11.1083 7.20186 10.125 7.20186H6.1V18.6019ZM18.8912 21.6519L26.6912 4.15185H30.6912L38.5162 21.6519H34.2662L27.8662 6.20185H29.4662L23.0412 21.6519H18.8912ZM22.7912 17.9019L23.8662 14.8269H32.8662L33.9662 17.9019H22.7912ZM40.3318 21.6519V4.15185H47.9068C49.4735 4.15185 50.8235 4.41019 51.9568 4.92685C53.0902 5.42685 53.9652 6.15185 54.5818 7.10186C55.1985 8.05185 55.5068 9.18519 55.5068 10.5019C55.5068 11.8019 55.1985 12.9269 54.5818 13.8769C53.9652 14.8102 53.0902 15.5269 51.9568 16.0269C50.8235 16.5269 49.4735 16.7769 47.9068 16.7769H42.5818L44.3818 15.0019V21.6519H40.3318ZM51.4568 21.6519L47.0818 15.3019H51.4068L55.8318 21.6519H51.4568ZM44.3818 15.4519L42.5818 13.5519H47.6818C48.9318 13.5519 49.8652 13.2852 50.4818 12.7519C51.0985 12.2019 51.4068 11.4519 51.4068 10.5019C51.4068 9.53519 51.0985 8.78519 50.4818 8.25186C49.8652 7.71852 48.9318 7.45186 47.6818 7.45186H42.5818L44.3818 5.52685V15.4519ZM62.3406 17.6519L62.1156 12.9769L70.4906 4.15185H74.9906L67.4406 12.2769L65.1906 14.6769L62.3406 17.6519ZM58.7156 21.6519V4.15185H62.7406V21.6519H58.7156ZM70.6906 21.6519L64.4656 14.0269L67.1156 11.1519L75.4156 21.6519H70.6906ZM85.0867 21.9519C83.7034 21.9519 82.4201 21.7269 81.2367 21.2769C80.0701 20.8269 79.0534 20.1935 78.1867 19.3769C77.3367 18.5602 76.6701 17.6019 76.1867 16.5019C75.7201 15.4019 75.4867 14.2019 75.4867 12.9019C75.4867 11.6019 75.7201 10.4019 76.1867 9.30186C76.6701 8.20186 77.3451 7.24352 78.2117 6.42685C79.0784 5.61019 80.0951 4.97685 81.2617 4.52685C82.4284 4.07685 83.6951 3.85186 85.0617 3.85186C86.4451 3.85186 87.7117 4.07685 88.8617 4.52685C90.0284 4.97685 91.0367 5.61019 91.8867 6.42685C92.7534 7.24352 93.4284 8.20186 93.9117 9.30186C94.3951 10.3852 94.6367 11.5852 94.6367 12.9019C94.6367 14.2019 94.3951 15.4102 93.9117 16.5269C93.4284 17.6269 92.7534 18.5852 91.8867 19.4019C91.0367 20.2019 90.0284 20.8269 88.8617 21.2769C87.7117 21.7269 86.4534 21.9519 85.0867 21.9519ZM85.0617 18.5019C85.8451 18.5019 86.5617 18.3685 87.2117 18.1019C87.8784 17.8352 88.4617 17.4519 88.9617 16.9519C89.4617 16.4519 89.8451 15.8602 90.1117 15.1769C90.3951 14.4935 90.5367 13.7352 90.5367 12.9019C90.5367 12.0685 90.3951 11.3102 90.1117 10.6269C89.8451 9.94352 89.4617 9.35185 88.9617 8.85185C88.4784 8.35185 87.9034 7.96852 87.2367 7.70185C86.5701 7.43519 85.8451 7.30186 85.0617 7.30186C84.2784 7.30186 83.5534 7.43519 82.8867 7.70185C82.2367 7.96852 81.6617 8.35185 81.1617 8.85185C80.6617 9.35185 80.2701 9.94352 79.9867 10.6269C79.7201 11.3102 79.5867 12.0685 79.5867 12.9019C79.5867 13.7185 79.7201 14.4769 79.9867 15.1769C80.2701 15.8602 80.6534 16.4519 81.1367 16.9519C81.6367 17.4519 82.2201 17.8352 82.8867 18.1019C83.5534 18.3685 84.2784 18.5019 85.0617 18.5019Z" fill="#212529"/>
<path d="M103.43 21.9519C102.03 21.9519 100.689 21.7685 99.4055 21.4019C98.1221 21.0185 97.0888 20.5269 96.3055 19.9269L97.6805 16.8769C98.4305 17.4102 99.3138 17.8519 100.33 18.2019C101.364 18.5352 102.405 18.7019 103.455 18.7019C104.255 18.7019 104.897 18.6269 105.38 18.4769C105.88 18.3102 106.247 18.0852 106.48 17.8019C106.714 17.5185 106.83 17.1935 106.83 16.8269C106.83 16.3602 106.647 15.9935 106.28 15.7269C105.914 15.4435 105.43 15.2185 104.83 15.0519C104.23 14.8685 103.564 14.7019 102.83 14.5519C102.114 14.3852 101.389 14.1852 100.655 13.9519C99.9388 13.7185 99.2805 13.4185 98.6805 13.0519C98.0805 12.6852 97.5888 12.2019 97.2055 11.6019C96.8388 11.0019 96.6555 10.2352 96.6555 9.30186C96.6555 8.30185 96.9221 7.39352 97.4555 6.57685C98.0055 5.74352 98.8221 5.08519 99.9055 4.60185C101.005 4.10185 102.38 3.85186 104.03 3.85186C105.13 3.85186 106.214 3.98519 107.28 4.25185C108.347 4.50185 109.289 4.88519 110.105 5.40185L108.855 8.47686C108.039 8.01019 107.222 7.66852 106.405 7.45186C105.589 7.21852 104.789 7.10186 104.005 7.10186C103.222 7.10186 102.58 7.19352 102.08 7.37685C101.58 7.56019 101.222 7.80185 101.005 8.10185C100.789 8.38519 100.68 8.71852 100.68 9.10185C100.68 9.55185 100.864 9.91852 101.23 10.2019C101.597 10.4685 102.08 10.6852 102.68 10.8519C103.28 11.0185 103.939 11.1852 104.655 11.3519C105.389 11.5185 106.114 11.7102 106.83 11.9269C107.564 12.1435 108.23 12.4352 108.83 12.8019C109.43 13.1685 109.914 13.6519 110.28 14.2519C110.664 14.8519 110.855 15.6102 110.855 16.5269C110.855 17.5102 110.58 18.4102 110.03 19.2269C109.48 20.0435 108.655 20.7019 107.555 21.2019C106.472 21.7019 105.097 21.9519 103.43 21.9519ZM121.998 21.9519C120.648 21.9519 119.39 21.7352 118.223 21.3019C117.073 20.8519 116.073 20.2185 115.223 19.4019C114.373 18.5852 113.706 17.6269 113.223 16.5269C112.756 15.4269 112.523 14.2185 112.523 12.9019C112.523 11.5852 112.756 10.3769 113.223 9.27685C113.706 8.17685 114.373 7.21852 115.223 6.40186C116.09 5.58519 117.098 4.96019 118.248 4.52685C119.398 4.07685 120.656 3.85186 122.023 3.85186C123.54 3.85186 124.906 4.11852 126.123 4.65186C127.356 5.16852 128.39 5.93519 129.223 6.95186L126.623 9.35186C126.023 8.66852 125.356 8.16019 124.623 7.82685C123.89 7.47686 123.09 7.30186 122.223 7.30186C121.406 7.30186 120.656 7.43519 119.973 7.70185C119.29 7.96852 118.698 8.35185 118.198 8.85185C117.698 9.35185 117.306 9.94352 117.023 10.6269C116.756 11.3102 116.623 12.0685 116.623 12.9019C116.623 13.7352 116.756 14.4935 117.023 15.1769C117.306 15.8602 117.698 16.4519 118.198 16.9519C118.698 17.4519 119.29 17.8352 119.973 18.1019C120.656 18.3685 121.406 18.5019 122.223 18.5019C123.09 18.5019 123.89 18.3352 124.623 18.0019C125.356 17.6519 126.023 17.1269 126.623 16.4269L129.223 18.8269C128.39 19.8435 127.356 20.6185 126.123 21.1519C124.906 21.6852 123.531 21.9519 121.998 21.9519ZM143.958 4.15185H148.008V21.6519H143.958V4.15185ZM136.008 21.6519H131.958V4.15185H136.008V21.6519ZM144.258 14.4769H135.708V11.0519H144.258V14.4769ZM160.648 21.9519C159.265 21.9519 157.982 21.7269 156.798 21.2769C155.632 20.8269 154.615 20.1935 153.748 19.3769C152.898 18.5602 152.232 17.6019 151.748 16.5019C151.282 15.4019 151.048 14.2019 151.048 12.9019C151.048 11.6019 151.282 10.4019 151.748 9.30186C152.232 8.20186 152.907 7.24352 153.773 6.42685C154.64 5.61019 155.657 4.97685 156.823 4.52685C157.99 4.07685 159.257 3.85186 160.623 3.85186C162.007 3.85186 163.273 4.07685 164.423 4.52685C165.59 4.97685 166.598 5.61019 167.448 6.42685C168.315 7.24352 168.99 8.20186 169.473 9.30186C169.957 10.3852 170.198 11.5852 170.198 12.9019C170.198 14.2019 169.957 15.4102 169.473 16.5269C168.99 17.6269 168.315 18.5852 167.448 19.4019C166.598 20.2019 165.59 20.8269 164.423 21.2769C163.273 21.7269 162.015 21.9519 160.648 21.9519ZM160.623 18.5019C161.407 18.5019 162.123 18.3685 162.773 18.1019C163.44 17.8352 164.023 17.4519 164.523 16.9519C165.023 16.4519 165.407 15.8602 165.673 15.1769C165.957 14.4935 166.098 13.7352 166.098 12.9019C166.098 12.0685 165.957 11.3102 165.673 10.6269C165.407 9.94352 165.023 9.35185 164.523 8.85185C164.04 8.35185 163.465 7.96852 162.798 7.70185C162.132 7.43519 161.407 7.30186 160.623 7.30186C159.84 7.30186 159.115 7.43519 158.448 7.70185C157.798 7.96852 157.223 8.35185 156.723 8.85185C156.223 9.35185 155.832 9.94352 155.548 10.6269C155.282 11.3102 155.148 12.0685 155.148 12.9019C155.148 13.7185 155.282 14.4769 155.548 15.1769C155.832 15.8602 156.215 16.4519 156.698 16.9519C157.198 17.4519 157.782 17.8352 158.448 18.1019C159.115 18.3685 159.84 18.5019 160.623 18.5019ZM181.742 21.9519C180.359 21.9519 179.075 21.7269 177.892 21.2769C176.725 20.8269 175.709 20.1935 174.842 19.3769C173.992 18.5602 173.325 17.6019 172.842 16.5019C172.375 15.4019 172.142 14.2019 172.142 12.9019C172.142 11.6019 172.375 10.4019 172.842 9.30186C173.325 8.20186 174 7.24352 174.867 6.42685C175.734 5.61019 176.75 4.97685 177.917 4.52685C179.084 4.07685 180.35 3.85186 181.717 3.85186C183.1 3.85186 184.367 4.07685 185.517 4.52685C186.684 4.97685 187.692 5.61019 188.542 6.42685C189.409 7.24352 190.084 8.20186 190.567 9.30186C191.05 10.3852 191.292 11.5852 191.292 12.9019C191.292 14.2019 191.05 15.4102 190.567 16.5269C190.084 17.6269 189.409 18.5852 188.542 19.4019C187.692 20.2019 186.684 20.8269 185.517 21.2769C184.367 21.7269 183.109 21.9519 181.742 21.9519ZM181.717 18.5019C182.5 18.5019 183.217 18.3685 183.867 18.1019C184.534 17.8352 185.117 17.4519 185.617 16.9519C186.117 16.4519 186.5 15.8602 186.767 15.1769C187.05 14.4935 187.192 13.7352 187.192 12.9019C187.192 12.0685 187.05 11.3102 186.767 10.6269C186.5 9.94352 186.117 9.35185 185.617 8.85185C185.134 8.35185 184.559 7.96852 183.892 7.70185C183.225 7.43519 182.5 7.30186 181.717 7.30186C180.934 7.30186 180.209 7.43519 179.542 7.70185C178.892 7.96852 178.317 8.35185 177.817 8.85185C177.317 9.35185 176.925 9.94352 176.642 10.6269C176.375 11.3102 176.242 12.0685 176.242 12.9019C176.242 13.7185 176.375 14.4769 176.642 15.1769C176.925 15.8602 177.309 16.4519 177.792 16.9519C178.292 17.4519 178.875 17.8352 179.542 18.1019C180.209 18.3685 180.934 18.5019 181.717 18.5019ZM194.336 21.6519V4.15185H198.386V18.3519H207.161V21.6519H194.336Z" fill="#F2184F"/>
<path d="M14.981 35.5261V29.2261H15.872V34.7431H19.382V29.2261H20.273V35.5261H14.981ZM20.408 36.9571V35.2921L20.624 35.5261H19.382V34.7431H21.245V36.9571H20.408ZM23.5319 31.9441H26.7719V32.7091H23.5319V31.9441ZM23.6129 34.7431H27.2849V35.5261H22.7129V29.2261H27.1589V30.0091H23.6129V34.7431ZM33.4863 29.2261H34.3863V35.5261H33.4863V29.2261ZM29.8683 35.5261H28.9683V29.2261H29.8683V35.5261ZM33.5673 32.7181H29.7783V31.9351H33.5673V32.7181ZM37.9081 35.5261V29.7751L38.1331 30.0091H35.7571V29.2261H40.9501V30.0091H38.5741L38.7901 29.7751V35.5261H37.9081ZM42.3139 35.5261V29.2261H44.7709C45.3229 29.2261 45.7939 29.3131 46.1839 29.4871C46.5739 29.6611 46.8739 29.9131 47.0839 30.2431C47.2939 30.5731 47.3989 30.9661 47.3989 31.4221C47.3989 31.8781 47.2939 32.2711 47.0839 32.6011C46.8739 32.9251 46.5739 33.1771 46.1839 33.3571C45.7939 33.5311 45.3229 33.6181 44.7709 33.6181H42.8089L43.2139 33.1951V35.5261H42.3139ZM43.2139 33.2851L42.8089 32.8351H44.7439C45.3199 32.8351 45.7549 32.7121 46.0489 32.4661C46.3489 32.2201 46.4989 31.8721 46.4989 31.4221C46.4989 30.9721 46.3489 30.6241 46.0489 30.3781C45.7549 30.1321 45.3199 30.0091 44.7439 30.0091H42.8089L43.2139 29.5591V33.2851ZM55.9347 35.5261L53.6487 32.4211L54.3777 31.9711L56.9607 35.5261H55.9347ZM51.6957 35.5261V29.2261H52.5777V35.5261H51.6957ZM52.3077 32.7541V31.9621H54.3507V32.7541H52.3077ZM54.4587 32.4751L53.6307 32.3491L55.8897 29.2261H56.8527L54.4587 32.4751ZM60.9706 35.5981C60.4906 35.5981 60.0436 35.5171 59.6296 35.3551C59.2216 35.1931 58.8676 34.9681 58.5676 34.6801C58.2676 34.3861 58.0336 34.0441 57.8656 33.6541C57.6976 33.2641 57.6136 32.8381 57.6136 32.3761C57.6136 31.9141 57.6976 31.4881 57.8656 31.0981C58.0336 30.7081 58.2676 30.3691 58.5676 30.0811C58.8676 29.7871 59.2216 29.5591 59.6296 29.3971C60.0376 29.2351 60.4846 29.1541 60.9706 29.1541C61.4506 29.1541 61.8916 29.2351 62.2936 29.3971C62.7016 29.5531 63.0556 29.7781 63.3556 30.0721C63.6616 30.3601 63.8956 30.6991 64.0576 31.0891C64.2256 31.4791 64.3096 31.9081 64.3096 32.3761C64.3096 32.8441 64.2256 33.2731 64.0576 33.6631C63.8956 34.0531 63.6616 34.3951 63.3556 34.6891C63.0556 34.9771 62.7016 35.2021 62.2936 35.3641C61.8916 35.5201 61.4506 35.5981 60.9706 35.5981ZM60.9706 34.7971C61.3186 34.7971 61.6396 34.7371 61.9336 34.6171C62.2336 34.4971 62.4916 34.3291 62.7076 34.1131C62.9296 33.8911 63.1006 33.6331 63.2206 33.3391C63.3466 33.0451 63.4096 32.7241 63.4096 32.3761C63.4096 32.0281 63.3466 31.7071 63.2206 31.4131C63.1006 31.1191 62.9296 30.8641 62.7076 30.6481C62.4916 30.4261 62.2336 30.2551 61.9336 30.1351C61.6396 30.0151 61.3186 29.9551 60.9706 29.9551C60.6166 29.9551 60.2896 30.0151 59.9896 30.1351C59.6956 30.2551 59.4376 30.4261 59.2156 30.6481C58.9936 30.8641 58.8196 31.1191 58.6936 31.4131C58.5736 31.7071 58.5136 32.0281 58.5136 32.3761C58.5136 32.7241 58.5736 33.0451 58.6936 33.3391C58.8196 33.6331 58.9936 33.8911 59.2156 34.1131C59.4376 34.3291 59.6956 34.4971 59.9896 34.6171C60.2896 34.7371 60.6166 34.7971 60.9706 34.7971ZM66.0346 35.5261V29.2261H66.7726L69.5986 33.9871H69.2026L71.9926 29.2261H72.7306L72.7396 35.5261H71.8756L71.8666 30.5851H72.0736L69.5896 34.7611H69.1756L66.6736 30.5851H66.8986V35.5261H66.0346ZM74.9706 35.5261V29.2261H80.3976V35.5261H79.5156V29.7751L79.7316 30.0091H75.6366L75.8616 29.7751V35.5261H74.9706ZM82.2561 35.5981C82.1661 35.5981 82.0761 35.5921 81.9861 35.5801C81.8961 35.5681 81.7971 35.5501 81.6891 35.5261L81.7521 34.7251C81.8481 34.7491 81.9441 34.7611 82.0401 34.7611C82.3041 34.7611 82.5141 34.6561 82.6701 34.4461C82.8261 34.2361 82.9401 33.9181 83.0121 33.4921C83.0901 33.0661 83.1411 32.5291 83.1651 31.8811L83.2641 29.2261H87.7011V35.5261H86.8191V29.7751L87.0351 30.0091H83.8401L84.0381 29.7661L83.9661 31.8541C83.9481 32.4781 83.9061 33.0241 83.8401 33.4921C83.7741 33.9601 83.6751 34.3501 83.5431 34.6621C83.4111 34.9741 83.2401 35.2081 83.0301 35.3641C82.8261 35.5201 82.5681 35.5981 82.2561 35.5981ZM90.7524 31.9441H93.9924V32.7091H90.7524V31.9441ZM90.8334 34.7431H94.5054V35.5261H89.9334V29.2261H94.3794V30.0091H90.8334V34.7431ZM100.428 35.5261L98.1418 32.4211L98.8708 31.9711L101.454 35.5261H100.428ZM96.1888 35.5261V29.2261H97.0708V35.5261H96.1888ZM96.8008 32.7541V31.9621H98.8438V32.7541H96.8008ZM98.9518 32.4751L98.1238 32.3491L100.383 29.2261H101.346L98.9518 32.4751ZM105.446 35.5981C104.966 35.5981 104.522 35.5201 104.114 35.3641C103.712 35.2021 103.361 34.9771 103.061 34.6891C102.767 34.3951 102.536 34.0531 102.368 33.6631C102.2 33.2731 102.116 32.8441 102.116 32.3761C102.116 31.9081 102.2 31.4791 102.368 31.0891C102.536 30.6991 102.77 30.3601 103.07 30.0721C103.37 29.7781 103.721 29.5531 104.123 29.3971C104.531 29.2351 104.975 29.1541 105.455 29.1541C105.941 29.1541 106.388 29.2381 106.796 29.4061C107.21 29.5681 107.561 29.8111 107.849 30.1351L107.264 30.7021C107.024 30.4501 106.754 30.2641 106.454 30.1441C106.154 30.0181 105.833 29.9551 105.491 29.9551C105.137 29.9551 104.807 30.0151 104.501 30.1351C104.201 30.2551 103.94 30.4231 103.718 30.6391C103.496 30.8551 103.322 31.1131 103.196 31.4131C103.076 31.7071 103.016 32.0281 103.016 32.3761C103.016 32.7241 103.076 33.0481 103.196 33.3481C103.322 33.6421 103.496 33.8971 103.718 34.1131C103.94 34.3291 104.201 34.4971 104.501 34.6171C104.807 34.7371 105.137 34.7971 105.491 34.7971C105.833 34.7971 106.154 34.7371 106.454 34.6171C106.754 34.4911 107.024 34.2991 107.264 34.0411L107.849 34.6081C107.561 34.9321 107.21 35.1781 106.796 35.3461C106.388 35.5141 105.938 35.5981 105.446 35.5981ZM113.877 29.2261H114.777V35.5261H113.877V29.2261ZM110.259 35.5261H109.359V29.2261H110.259V35.5261ZM113.958 32.7181H110.169V31.9351H113.958V32.7181ZM119.846 35.5981C119.366 35.5981 118.919 35.5171 118.505 35.3551C118.097 35.1931 117.743 34.9681 117.443 34.6801C117.143 34.3861 116.909 34.0441 116.741 33.6541C116.573 33.2641 116.489 32.8381 116.489 32.3761C116.489 31.9141 116.573 31.4881 116.741 31.0981C116.909 30.7081 117.143 30.3691 117.443 30.0811C117.743 29.7871 118.097 29.5591 118.505 29.3971C118.913 29.2351 119.36 29.1541 119.846 29.1541C120.326 29.1541 120.767 29.2351 121.169 29.3971C121.577 29.5531 121.931 29.7781 122.231 30.0721C122.537 30.3601 122.771 30.6991 122.933 31.0891C123.101 31.4791 123.185 31.9081 123.185 32.3761C123.185 32.8441 123.101 33.2731 122.933 33.6631C122.771 34.0531 122.537 34.3951 122.231 34.6891C121.931 34.9771 121.577 35.2021 121.169 35.3641C120.767 35.5201 120.326 35.5981 119.846 35.5981ZM119.846 34.7971C120.194 34.7971 120.515 34.7371 120.809 34.6171C121.109 34.4971 121.367 34.3291 121.583 34.1131C121.805 33.8911 121.976 33.6331 122.096 33.3391C122.222 33.0451 122.285 32.7241 122.285 32.3761C122.285 32.0281 122.222 31.7071 122.096 31.4131C121.976 31.1191 121.805 30.8641 121.583 30.6481C121.367 30.4261 121.109 30.2551 120.809 30.1351C120.515 30.0151 120.194 29.9551 119.846 29.9551C119.492 29.9551 119.165 30.0151 118.865 30.1351C118.571 30.2551 118.313 30.4261 118.091 30.6481C117.869 30.8641 117.695 31.1191 117.569 31.4131C117.449 31.7071 117.389 32.0281 117.389 32.3761C117.389 32.7241 117.449 33.0451 117.569 33.3391C117.695 33.6331 117.869 33.8911 118.091 34.1131C118.313 34.3291 118.571 34.4971 118.865 34.6171C119.165 34.7371 119.492 34.7971 119.846 34.7971ZM124.91 35.5261V29.2261H129.041L129.032 30.0091H125.576L125.792 29.7841L125.801 35.5261H124.91ZM132.419 35.5981C131.939 35.5981 131.492 35.5171 131.078 35.3551C130.67 35.1931 130.316 34.9681 130.016 34.6801C129.716 34.3861 129.482 34.0441 129.314 33.6541C129.146 33.2641 129.062 32.8381 129.062 32.3761C129.062 31.9141 129.146 31.4881 129.314 31.0981C129.482 30.7081 129.716 30.3691 130.016 30.0811C130.316 29.7871 130.67 29.5591 131.078 29.3971C131.486 29.2351 131.933 29.1541 132.419 29.1541C132.899 29.1541 133.34 29.2351 133.742 29.3971C134.15 29.5531 134.504 29.7781 134.804 30.0721C135.11 30.3601 135.344 30.6991 135.506 31.0891C135.674 31.4791 135.758 31.9081 135.758 32.3761C135.758 32.8441 135.674 33.2731 135.506 33.6631C135.344 34.0531 135.11 34.3951 134.804 34.6891C134.504 34.9771 134.15 35.2021 133.742 35.3641C133.34 35.5201 132.899 35.5981 132.419 35.5981ZM132.419 34.7971C132.767 34.7971 133.088 34.7371 133.382 34.6171C133.682 34.4971 133.94 34.3291 134.156 34.1131C134.378 33.8911 134.549 33.6331 134.669 33.3391C134.795 33.0451 134.858 32.7241 134.858 32.3761C134.858 32.0281 134.795 31.7071 134.669 31.4131C134.549 31.1191 134.378 30.8641 134.156 30.6481C133.94 30.4261 133.682 30.2551 133.382 30.1351C133.088 30.0151 132.767 29.9551 132.419 29.9551C132.065 29.9551 131.738 30.0151 131.438 30.1351C131.144 30.2551 130.886 30.4261 130.664 30.6481C130.442 30.8641 130.268 31.1191 130.142 31.4131C130.022 31.7071 129.962 32.0281 129.962 32.3761C129.962 32.7241 130.022 33.0451 130.142 33.3391C130.268 33.6331 130.442 33.8911 130.664 34.1131C130.886 34.3291 131.144 34.4971 131.438 34.6171C131.738 34.7371 132.065 34.7971 132.419 34.7971ZM140.17 35.5261V29.2261H142.627C143.179 29.2261 143.65 29.3131 144.04 29.4871C144.43 29.6611 144.73 29.9131 144.94 30.2431C145.15 30.5731 145.255 30.9661 145.255 31.4221C145.255 31.8781 145.15 32.2711 144.94 32.6011C144.73 32.9251 144.43 33.1771 144.04 33.3571C143.65 33.5311 143.179 33.6181 142.627 33.6181H140.665L141.07 33.1951V35.5261H140.17ZM141.07 33.2851L140.665 32.8351H142.6C143.176 32.8351 143.611 32.7121 143.905 32.4661C144.205 32.2201 144.355 31.8721 144.355 31.4221C144.355 30.9721 144.205 30.6241 143.905 30.3781C143.611 30.1321 143.176 30.0091 142.6 30.0091H140.665L141.07 29.5591V33.2851ZM145.587 35.5261L148.44 29.2261H149.331L152.193 35.5261H151.248L148.701 29.7301H149.061L146.514 35.5261H145.587ZM146.802 33.9511L147.045 33.2311H150.591L150.852 33.9511H146.802ZM152.857 34.8421L153.172 34.1761C153.448 34.3921 153.751 34.5541 154.081 34.6621C154.417 34.7701 154.75 34.8271 155.08 34.8331C155.41 34.8331 155.713 34.7881 155.989 34.6981C156.271 34.6081 156.496 34.4731 156.664 34.2931C156.832 34.1131 156.916 33.8911 156.916 33.6271C156.916 33.3031 156.784 33.0571 156.52 32.8891C156.262 32.7211 155.902 32.6371 155.44 32.6371H154.036V31.9081H155.377C155.779 31.9081 156.091 31.8271 156.313 31.6651C156.541 31.4971 156.655 31.2661 156.655 30.9721C156.655 30.7501 156.586 30.5641 156.448 30.4141C156.316 30.2581 156.133 30.1411 155.899 30.0631C155.671 29.9851 155.41 29.9461 155.116 29.9461C154.828 29.9401 154.531 29.9791 154.225 30.0631C153.919 30.1411 153.625 30.2671 153.343 30.4411L153.055 29.7031C153.439 29.4871 153.838 29.3371 154.252 29.2531C154.672 29.1631 155.077 29.1361 155.467 29.1721C155.857 29.2021 156.208 29.2921 156.52 29.4421C156.838 29.5861 157.09 29.7781 157.276 30.0181C157.468 30.2521 157.564 30.5341 157.564 30.8641C157.564 31.1641 157.486 31.4311 157.33 31.6651C157.174 31.8931 156.958 32.0701 156.682 32.1961C156.406 32.3161 156.085 32.3761 155.719 32.3761L155.755 32.1331C156.175 32.1331 156.538 32.2021 156.844 32.3401C157.156 32.4721 157.396 32.6611 157.564 32.9071C157.738 33.1531 157.825 33.4381 157.825 33.7621C157.825 34.0681 157.747 34.3411 157.591 34.5811C157.435 34.8151 157.222 35.0131 156.952 35.1751C156.688 35.3311 156.385 35.4451 156.043 35.5171C155.707 35.5891 155.353 35.6131 154.981 35.5891C154.609 35.5651 154.24 35.4931 153.874 35.3731C153.514 35.2531 153.175 35.0761 152.857 34.8421ZM159.595 35.5261V29.2261H162.304C162.988 29.2261 163.525 29.3641 163.915 29.6401C164.305 29.9161 164.5 30.3181 164.5 30.8461C164.5 31.3621 164.314 31.7581 163.942 32.0341C163.57 32.3041 163.081 32.4391 162.475 32.4391L162.637 32.1691C163.339 32.1691 163.876 32.3101 164.248 32.5921C164.626 32.8681 164.815 33.2731 164.815 33.8071C164.815 34.3471 164.617 34.7701 164.221 35.0761C163.831 35.3761 163.249 35.5261 162.475 35.5261H159.595ZM160.486 34.8151H162.457C162.937 34.8151 163.297 34.7281 163.537 34.5541C163.783 34.3741 163.906 34.1011 163.906 33.7351C163.906 33.3691 163.783 33.1021 163.537 32.9341C163.297 32.7661 162.937 32.6821 162.457 32.6821H160.486V34.8151ZM160.486 31.9981H162.241C162.679 31.9981 163.012 31.9111 163.24 31.7371C163.474 31.5631 163.591 31.3081 163.591 30.9721C163.591 30.6301 163.474 30.3721 163.24 30.1981C163.012 30.0241 162.679 29.9371 162.241 29.9371H160.486V31.9981ZM166.588 35.5261V29.2261H167.479V34.0861L171.205 29.2261H172.033V35.5261H171.151V30.6751L167.416 35.5261H166.588ZM175.555 35.5261V29.7751L175.78 30.0091H173.404V29.2261H178.597V30.0091H176.221L176.437 29.7751V35.5261H175.555ZM179.96 35.5261V29.2261H180.851V34.0861L184.577 29.2261H185.405V35.5261H184.523V30.6751L180.788 35.5261H179.96ZM191.375 35.5261V33.4741L191.609 33.6901H189.638C189.128 33.6901 188.687 33.6031 188.315 33.4291C187.949 33.2551 187.667 33.0061 187.469 32.6821C187.277 32.3521 187.181 31.9561 187.181 31.4941C187.181 31.0141 187.286 30.6061 187.496 30.2701C187.706 29.9281 188.003 29.6701 188.387 29.4961C188.771 29.3161 189.218 29.2261 189.728 29.2261H192.257V35.5261H191.375ZM187.181 35.5261L188.738 33.2941H189.656L188.135 35.5261H187.181ZM191.375 33.1861V29.7481L191.609 30.0091H189.764C189.224 30.0091 188.81 30.1351 188.522 30.3871C188.234 30.6331 188.09 30.9991 188.09 31.4851C188.09 31.9471 188.225 32.3041 188.495 32.5561C188.771 32.8081 189.176 32.9341 189.71 32.9341H191.609L191.375 33.1861Z" fill="#212529"/>
</svg>
