<svg width="208" height="37" viewBox="0 0 208 37" fill="none" xmlns="http://www.w3.org/2000/svg">
<path d="M2.075 21V3.5H10.625C12.825 3.5 14.475 3.91667 15.575 4.75C16.6917 5.58333 17.25 6.68333 17.25 8.05C17.25 8.96667 17.025 9.76667 16.575 10.45C16.125 11.1167 15.5083 11.6333 14.725 12C13.9417 12.3667 13.0417 12.55 12.025 12.55L12.5 11.525C13.6 11.525 14.575 11.7083 15.425 12.075C16.275 12.425 16.9333 12.95 17.4 13.65C17.8833 14.35 18.125 15.2083 18.125 16.225C18.125 17.725 17.5333 18.9 16.35 19.75C15.1667 20.5833 13.425 21 11.125 21H2.075ZM6.1 17.95H10.825C11.875 17.95 12.6667 17.7833 13.2 17.45C13.75 17.1 14.025 16.55 14.025 15.8C14.025 15.0667 13.75 14.525 13.2 14.175C12.6667 13.8083 11.875 13.625 10.825 13.625H5.8V10.675H10.125C11.1083 10.675 11.8583 10.5083 12.375 10.175C12.9083 9.825 13.175 9.3 13.175 8.6C13.175 7.91667 12.9083 7.40833 12.375 7.075C11.8583 6.725 11.1083 6.55 10.125 6.55H6.1V17.95ZM18.8912 21L26.6912 3.5H30.6912L38.5162 21H34.2662L27.8662 5.55H29.4662L23.0412 21H18.8912ZM22.7912 17.25L23.8662 14.175H32.8662L33.9662 17.25H22.7912ZM40.3318 21V3.5H47.9068C49.4735 3.5 50.8235 3.75833 51.9568 4.275C53.0902 4.775 53.9652 5.5 54.5818 6.45C55.1985 7.4 55.5068 8.53333 55.5068 9.85C55.5068 11.15 55.1985 12.275 54.5818 13.225C53.9652 14.1583 53.0902 14.875 51.9568 15.375C50.8235 15.875 49.4735 16.125 47.9068 16.125H42.5818L44.3818 14.35V21H40.3318ZM51.4568 21L47.0818 14.65H51.4068L55.8318 21H51.4568ZM44.3818 14.8L42.5818 12.9H47.6818C48.9318 12.9 49.8652 12.6333 50.4818 12.1C51.0985 11.55 51.4068 10.8 51.4068 9.85C51.4068 8.88333 51.0985 8.13333 50.4818 7.6C49.8652 7.06667 48.9318 6.8 47.6818 6.8H42.5818L44.3818 4.875V14.8ZM62.3406 17L62.1156 12.325L70.4906 3.5H74.9906L67.4406 11.625L65.1906 14.025L62.3406 17ZM58.7156 21V3.5H62.7406V21H58.7156ZM70.6906 21L64.4656 13.375L67.1156 10.5L75.4156 21H70.6906ZM85.0867 21.3C83.7034 21.3 82.4201 21.075 81.2367 20.625C80.0701 20.175 79.0534 19.5417 78.1867 18.725C77.3367 17.9083 76.6701 16.95 76.1867 15.85C75.7201 14.75 75.4867 13.55 75.4867 12.25C75.4867 10.95 75.7201 9.75 76.1867 8.65C76.6701 7.55 77.3451 6.59167 78.2117 5.775C79.0784 4.95833 80.0951 4.325 81.2617 3.875C82.4284 3.425 83.6951 3.2 85.0617 3.2C86.4451 3.2 87.7117 3.425 88.8617 3.875C90.0284 4.325 91.0367 4.95833 91.8867 5.775C92.7534 6.59167 93.4284 7.55 93.9117 8.65C94.3951 9.73333 94.6367 10.9333 94.6367 12.25C94.6367 13.55 94.3951 14.7583 93.9117 15.875C93.4284 16.975 92.7534 17.9333 91.8867 18.75C91.0367 19.55 90.0284 20.175 88.8617 20.625C87.7117 21.075 86.4534 21.3 85.0867 21.3ZM85.0617 17.85C85.8451 17.85 86.5617 17.7167 87.2117 17.45C87.8784 17.1833 88.4617 16.8 88.9617 16.3C89.4617 15.8 89.8451 15.2083 90.1117 14.525C90.3951 13.8417 90.5367 13.0833 90.5367 12.25C90.5367 11.4167 90.3951 10.6583 90.1117 9.975C89.8451 9.29167 89.4617 8.7 88.9617 8.2C88.4784 7.7 87.9034 7.31667 87.2367 7.05C86.5701 6.78333 85.8451 6.65 85.0617 6.65C84.2784 6.65 83.5534 6.78333 82.8867 7.05C82.2367 7.31667 81.6617 7.7 81.1617 8.2C80.6617 8.7 80.2701 9.29167 79.9867 9.975C79.7201 10.6583 79.5867 11.4167 79.5867 12.25C79.5867 13.0667 79.7201 13.825 79.9867 14.525C80.2701 15.2083 80.6534 15.8 81.1367 16.3C81.6367 16.8 82.2201 17.1833 82.8867 17.45C83.5534 17.7167 84.2784 17.85 85.0617 17.85Z" fill="white"/>
<path d="M103.43 21.3C102.03 21.3 100.689 21.1167 99.4055 20.75C98.1221 20.3667 97.0888 19.875 96.3055 19.275L97.6805 16.225C98.4305 16.7583 99.3138 17.2 100.33 17.55C101.364 17.8833 102.405 18.05 103.455 18.05C104.255 18.05 104.897 17.975 105.38 17.825C105.88 17.6583 106.247 17.4333 106.48 17.15C106.714 16.8667 106.83 16.5417 106.83 16.175C106.83 15.7083 106.647 15.3417 106.28 15.075C105.914 14.7917 105.43 14.5667 104.83 14.4C104.23 14.2167 103.564 14.05 102.83 13.9C102.114 13.7333 101.389 13.5333 100.655 13.3C99.9388 13.0667 99.2805 12.7667 98.6805 12.4C98.0805 12.0333 97.5888 11.55 97.2055 10.95C96.8388 10.35 96.6555 9.58333 96.6555 8.65C96.6555 7.65 96.9221 6.74167 97.4555 5.925C98.0055 5.09167 98.8221 4.43333 99.9055 3.95C101.005 3.45 102.38 3.2 104.03 3.2C105.13 3.2 106.214 3.33333 107.28 3.6C108.347 3.85 109.289 4.23333 110.105 4.75L108.855 7.825C108.039 7.35833 107.222 7.01667 106.405 6.8C105.589 6.56667 104.789 6.45 104.005 6.45C103.222 6.45 102.58 6.54167 102.08 6.725C101.58 6.90833 101.222 7.15 101.005 7.45C100.789 7.73333 100.68 8.06667 100.68 8.45C100.68 8.9 100.864 9.26667 101.23 9.55C101.597 9.81667 102.08 10.0333 102.68 10.2C103.28 10.3667 103.939 10.5333 104.655 10.7C105.389 10.8667 106.114 11.0583 106.83 11.275C107.564 11.4917 108.23 11.7833 108.83 12.15C109.43 12.5167 109.914 13 110.28 13.6C110.664 14.2 110.855 14.9583 110.855 15.875C110.855 16.8583 110.58 17.7583 110.03 18.575C109.48 19.3917 108.655 20.05 107.555 20.55C106.472 21.05 105.097 21.3 103.43 21.3ZM121.998 21.3C120.648 21.3 119.39 21.0833 118.223 20.65C117.073 20.2 116.073 19.5667 115.223 18.75C114.373 17.9333 113.706 16.975 113.223 15.875C112.756 14.775 112.523 13.5667 112.523 12.25C112.523 10.9333 112.756 9.725 113.223 8.625C113.706 7.525 114.373 6.56667 115.223 5.75C116.09 4.93333 117.098 4.30833 118.248 3.875C119.398 3.425 120.656 3.2 122.023 3.2C123.54 3.2 124.906 3.46667 126.123 4C127.356 4.51667 128.39 5.28333 129.223 6.3L126.623 8.7C126.023 8.01667 125.356 7.50833 124.623 7.175C123.89 6.825 123.09 6.65 122.223 6.65C121.406 6.65 120.656 6.78333 119.973 7.05C119.29 7.31667 118.698 7.7 118.198 8.2C117.698 8.7 117.306 9.29167 117.023 9.975C116.756 10.6583 116.623 11.4167 116.623 12.25C116.623 13.0833 116.756 13.8417 117.023 14.525C117.306 15.2083 117.698 15.8 118.198 16.3C118.698 16.8 119.29 17.1833 119.973 17.45C120.656 17.7167 121.406 17.85 122.223 17.85C123.09 17.85 123.89 17.6833 124.623 17.35C125.356 17 126.023 16.475 126.623 15.775L129.223 18.175C128.39 19.1917 127.356 19.9667 126.123 20.5C124.906 21.0333 123.531 21.3 121.998 21.3ZM143.958 3.5H148.008V21H143.958V3.5ZM136.008 21H131.958V3.5H136.008V21ZM144.258 13.825H135.708V10.4H144.258V13.825ZM160.648 21.3C159.265 21.3 157.982 21.075 156.798 20.625C155.632 20.175 154.615 19.5417 153.748 18.725C152.898 17.9083 152.232 16.95 151.748 15.85C151.282 14.75 151.048 13.55 151.048 12.25C151.048 10.95 151.282 9.75 151.748 8.65C152.232 7.55 152.907 6.59167 153.773 5.775C154.64 4.95833 155.657 4.325 156.823 3.875C157.99 3.425 159.257 3.2 160.623 3.2C162.007 3.2 163.273 3.425 164.423 3.875C165.59 4.325 166.598 4.95833 167.448 5.775C168.315 6.59167 168.99 7.55 169.473 8.65C169.957 9.73333 170.198 10.9333 170.198 12.25C170.198 13.55 169.957 14.7583 169.473 15.875C168.99 16.975 168.315 17.9333 167.448 18.75C166.598 19.55 165.59 20.175 164.423 20.625C163.273 21.075 162.015 21.3 160.648 21.3ZM160.623 17.85C161.407 17.85 162.123 17.7167 162.773 17.45C163.44 17.1833 164.023 16.8 164.523 16.3C165.023 15.8 165.407 15.2083 165.673 14.525C165.957 13.8417 166.098 13.0833 166.098 12.25C166.098 11.4167 165.957 10.6583 165.673 9.975C165.407 9.29167 165.023 8.7 164.523 8.2C164.04 7.7 163.465 7.31667 162.798 7.05C162.132 6.78333 161.407 6.65 160.623 6.65C159.84 6.65 159.115 6.78333 158.448 7.05C157.798 7.31667 157.223 7.7 156.723 8.2C156.223 8.7 155.832 9.29167 155.548 9.975C155.282 10.6583 155.148 11.4167 155.148 12.25C155.148 13.0667 155.282 13.825 155.548 14.525C155.832 15.2083 156.215 15.8 156.698 16.3C157.198 16.8 157.782 17.1833 158.448 17.45C159.115 17.7167 159.84 17.85 160.623 17.85ZM181.742 21.3C180.359 21.3 179.075 21.075 177.892 20.625C176.725 20.175 175.709 19.5417 174.842 18.725C173.992 17.9083 173.325 16.95 172.842 15.85C172.375 14.75 172.142 13.55 172.142 12.25C172.142 10.95 172.375 9.75 172.842 8.65C173.325 7.55 174 6.59167 174.867 5.775C175.734 4.95833 176.75 4.325 177.917 3.875C179.084 3.425 180.35 3.2 181.717 3.2C183.1 3.2 184.367 3.425 185.517 3.875C186.684 4.325 187.692 4.95833 188.542 5.775C189.409 6.59167 190.084 7.55 190.567 8.65C191.05 9.73333 191.292 10.9333 191.292 12.25C191.292 13.55 191.05 14.7583 190.567 15.875C190.084 16.975 189.409 17.9333 188.542 18.75C187.692 19.55 186.684 20.175 185.517 20.625C184.367 21.075 183.109 21.3 181.742 21.3ZM181.717 17.85C182.5 17.85 183.217 17.7167 183.867 17.45C184.534 17.1833 185.117 16.8 185.617 16.3C186.117 15.8 186.5 15.2083 186.767 14.525C187.05 13.8417 187.192 13.0833 187.192 12.25C187.192 11.4167 187.05 10.6583 186.767 9.975C186.5 9.29167 186.117 8.7 185.617 8.2C185.134 7.7 184.559 7.31667 183.892 7.05C183.225 6.78333 182.5 6.65 181.717 6.65C180.934 6.65 180.209 6.78333 179.542 7.05C178.892 7.31667 178.317 7.7 177.817 8.2C177.317 8.7 176.925 9.29167 176.642 9.975C176.375 10.6583 176.242 11.4167 176.242 12.25C176.242 13.0667 176.375 13.825 176.642 14.525C176.925 15.2083 177.309 15.8 177.792 16.3C178.292 16.8 178.875 17.1833 179.542 17.45C180.209 17.7167 180.934 17.85 181.717 17.85ZM194.336 21V3.5H198.386V17.7H207.161V21H194.336Z" fill="#F2184F"/>
<path d="M14.981 35V28.7H15.872V34.217H19.382V28.7H20.273V35H14.981ZM20.408 36.431V34.766L20.624 35H19.382V34.217H21.245V36.431H20.408ZM23.5319 31.418H26.7719V32.183H23.5319V31.418ZM23.6129 34.217H27.2849V35H22.7129V28.7H27.1589V29.483H23.6129V34.217ZM33.4863 28.7H34.3863V35H33.4863V28.7ZM29.8683 35H28.9683V28.7H29.8683V35ZM33.5673 32.192H29.7783V31.409H33.5673V32.192ZM37.9081 35V29.249L38.1331 29.483H35.7571V28.7H40.9501V29.483H38.5741L38.7901 29.249V35H37.9081ZM42.3139 35V28.7H44.7709C45.3229 28.7 45.7939 28.787 46.1839 28.961C46.5739 29.135 46.8739 29.387 47.0839 29.717C47.2939 30.047 47.3989 30.44 47.3989 30.896C47.3989 31.352 47.2939 31.745 47.0839 32.075C46.8739 32.399 46.5739 32.651 46.1839 32.831C45.7939 33.005 45.3229 33.092 44.7709 33.092H42.8089L43.2139 32.669V35H42.3139ZM43.2139 32.759L42.8089 32.309H44.7439C45.3199 32.309 45.7549 32.186 46.0489 31.94C46.3489 31.694 46.4989 31.346 46.4989 30.896C46.4989 30.446 46.3489 30.098 46.0489 29.852C45.7549 29.606 45.3199 29.483 44.7439 29.483H42.8089L43.2139 29.033V32.759ZM55.9347 35L53.6487 31.895L54.3777 31.445L56.9607 35H55.9347ZM51.6957 35V28.7H52.5777V35H51.6957ZM52.3077 32.228V31.436H54.3507V32.228H52.3077ZM54.4587 31.949L53.6307 31.823L55.8897 28.7H56.8527L54.4587 31.949ZM60.9706 35.072C60.4906 35.072 60.0436 34.991 59.6296 34.829C59.2216 34.667 58.8676 34.442 58.5676 34.154C58.2676 33.86 58.0336 33.518 57.8656 33.128C57.6976 32.738 57.6136 32.312 57.6136 31.85C57.6136 31.388 57.6976 30.962 57.8656 30.572C58.0336 30.182 58.2676 29.843 58.5676 29.555C58.8676 29.261 59.2216 29.033 59.6296 28.871C60.0376 28.709 60.4846 28.628 60.9706 28.628C61.4506 28.628 61.8916 28.709 62.2936 28.871C62.7016 29.027 63.0556 29.252 63.3556 29.546C63.6616 29.834 63.8956 30.173 64.0576 30.563C64.2256 30.953 64.3096 31.382 64.3096 31.85C64.3096 32.318 64.2256 32.747 64.0576 33.137C63.8956 33.527 63.6616 33.869 63.3556 34.163C63.0556 34.451 62.7016 34.676 62.2936 34.838C61.8916 34.994 61.4506 35.072 60.9706 35.072ZM60.9706 34.271C61.3186 34.271 61.6396 34.211 61.9336 34.091C62.2336 33.971 62.4916 33.803 62.7076 33.587C62.9296 33.365 63.1006 33.107 63.2206 32.813C63.3466 32.519 63.4096 32.198 63.4096 31.85C63.4096 31.502 63.3466 31.181 63.2206 30.887C63.1006 30.593 62.9296 30.338 62.7076 30.122C62.4916 29.9 62.2336 29.729 61.9336 29.609C61.6396 29.489 61.3186 29.429 60.9706 29.429C60.6166 29.429 60.2896 29.489 59.9896 29.609C59.6956 29.729 59.4376 29.9 59.2156 30.122C58.9936 30.338 58.8196 30.593 58.6936 30.887C58.5736 31.181 58.5136 31.502 58.5136 31.85C58.5136 32.198 58.5736 32.519 58.6936 32.813C58.8196 33.107 58.9936 33.365 59.2156 33.587C59.4376 33.803 59.6956 33.971 59.9896 34.091C60.2896 34.211 60.6166 34.271 60.9706 34.271ZM66.0346 35V28.7H66.7726L69.5986 33.461H69.2026L71.9926 28.7H72.7306L72.7396 35H71.8756L71.8666 30.059H72.0736L69.5896 34.235H69.1756L66.6736 30.059H66.8986V35H66.0346ZM74.9706 35V28.7H80.3976V35H79.5156V29.249L79.7316 29.483H75.6366L75.8616 29.249V35H74.9706ZM82.2561 35.072C82.1661 35.072 82.0761 35.066 81.9861 35.054C81.8961 35.042 81.7971 35.024 81.6891 35L81.7521 34.199C81.8481 34.223 81.9441 34.235 82.0401 34.235C82.3041 34.235 82.5141 34.13 82.6701 33.92C82.8261 33.71 82.9401 33.392 83.0121 32.966C83.0901 32.54 83.1411 32.003 83.1651 31.355L83.2641 28.7H87.7011V35H86.8191V29.249L87.0351 29.483H83.8401L84.0381 29.24L83.9661 31.328C83.9481 31.952 83.9061 32.498 83.8401 32.966C83.7741 33.434 83.6751 33.824 83.5431 34.136C83.4111 34.448 83.2401 34.682 83.0301 34.838C82.8261 34.994 82.5681 35.072 82.2561 35.072ZM90.7524 31.418H93.9924V32.183H90.7524V31.418ZM90.8334 34.217H94.5054V35H89.9334V28.7H94.3794V29.483H90.8334V34.217ZM100.428 35L98.1418 31.895L98.8708 31.445L101.454 35H100.428ZM96.1888 35V28.7H97.0708V35H96.1888ZM96.8008 32.228V31.436H98.8438V32.228H96.8008ZM98.9518 31.949L98.1238 31.823L100.383 28.7H101.346L98.9518 31.949ZM105.446 35.072C104.966 35.072 104.522 34.994 104.114 34.838C103.712 34.676 103.361 34.451 103.061 34.163C102.767 33.869 102.536 33.527 102.368 33.137C102.2 32.747 102.116 32.318 102.116 31.85C102.116 31.382 102.2 30.953 102.368 30.563C102.536 30.173 102.77 29.834 103.07 29.546C103.37 29.252 103.721 29.027 104.123 28.871C104.531 28.709 104.975 28.628 105.455 28.628C105.941 28.628 106.388 28.712 106.796 28.88C107.21 29.042 107.561 29.285 107.849 29.609L107.264 30.176C107.024 29.924 106.754 29.738 106.454 29.618C106.154 29.492 105.833 29.429 105.491 29.429C105.137 29.429 104.807 29.489 104.501 29.609C104.201 29.729 103.94 29.897 103.718 30.113C103.496 30.329 103.322 30.587 103.196 30.887C103.076 31.181 103.016 31.502 103.016 31.85C103.016 32.198 103.076 32.522 103.196 32.822C103.322 33.116 103.496 33.371 103.718 33.587C103.94 33.803 104.201 33.971 104.501 34.091C104.807 34.211 105.137 34.271 105.491 34.271C105.833 34.271 106.154 34.211 106.454 34.091C106.754 33.965 107.024 33.773 107.264 33.515L107.849 34.082C107.561 34.406 107.21 34.652 106.796 34.82C106.388 34.988 105.938 35.072 105.446 35.072ZM113.877 28.7H114.777V35H113.877V28.7ZM110.259 35H109.359V28.7H110.259V35ZM113.958 32.192H110.169V31.409H113.958V32.192ZM119.846 35.072C119.366 35.072 118.919 34.991 118.505 34.829C118.097 34.667 117.743 34.442 117.443 34.154C117.143 33.86 116.909 33.518 116.741 33.128C116.573 32.738 116.489 32.312 116.489 31.85C116.489 31.388 116.573 30.962 116.741 30.572C116.909 30.182 117.143 29.843 117.443 29.555C117.743 29.261 118.097 29.033 118.505 28.871C118.913 28.709 119.36 28.628 119.846 28.628C120.326 28.628 120.767 28.709 121.169 28.871C121.577 29.027 121.931 29.252 122.231 29.546C122.537 29.834 122.771 30.173 122.933 30.563C123.101 30.953 123.185 31.382 123.185 31.85C123.185 32.318 123.101 32.747 122.933 33.137C122.771 33.527 122.537 33.869 122.231 34.163C121.931 34.451 121.577 34.676 121.169 34.838C120.767 34.994 120.326 35.072 119.846 35.072ZM119.846 34.271C120.194 34.271 120.515 34.211 120.809 34.091C121.109 33.971 121.367 33.803 121.583 33.587C121.805 33.365 121.976 33.107 122.096 32.813C122.222 32.519 122.285 32.198 122.285 31.85C122.285 31.502 122.222 31.181 122.096 30.887C121.976 30.593 121.805 30.338 121.583 30.122C121.367 29.9 121.109 29.729 120.809 29.609C120.515 29.489 120.194 29.429 119.846 29.429C119.492 29.429 119.165 29.489 118.865 29.609C118.571 29.729 118.313 29.9 118.091 30.122C117.869 30.338 117.695 30.593 117.569 30.887C117.449 31.181 117.389 31.502 117.389 31.85C117.389 32.198 117.449 32.519 117.569 32.813C117.695 33.107 117.869 33.365 118.091 33.587C118.313 33.803 118.571 33.971 118.865 34.091C119.165 34.211 119.492 34.271 119.846 34.271ZM124.91 35V28.7H129.041L129.032 29.483H125.576L125.792 29.258L125.801 35H124.91ZM132.419 35.072C131.939 35.072 131.492 34.991 131.078 34.829C130.67 34.667 130.316 34.442 130.016 34.154C129.716 33.86 129.482 33.518 129.314 33.128C129.146 32.738 129.062 32.312 129.062 31.85C129.062 31.388 129.146 30.962 129.314 30.572C129.482 30.182 129.716 29.843 130.016 29.555C130.316 29.261 130.67 29.033 131.078 28.871C131.486 28.709 131.933 28.628 132.419 28.628C132.899 28.628 133.34 28.709 133.742 28.871C134.15 29.027 134.504 29.252 134.804 29.546C135.11 29.834 135.344 30.173 135.506 30.563C135.674 30.953 135.758 31.382 135.758 31.85C135.758 32.318 135.674 32.747 135.506 33.137C135.344 33.527 135.11 33.869 134.804 34.163C134.504 34.451 134.15 34.676 133.742 34.838C133.34 34.994 132.899 35.072 132.419 35.072ZM132.419 34.271C132.767 34.271 133.088 34.211 133.382 34.091C133.682 33.971 133.94 33.803 134.156 33.587C134.378 33.365 134.549 33.107 134.669 32.813C134.795 32.519 134.858 32.198 134.858 31.85C134.858 31.502 134.795 31.181 134.669 30.887C134.549 30.593 134.378 30.338 134.156 30.122C133.94 29.9 133.682 29.729 133.382 29.609C133.088 29.489 132.767 29.429 132.419 29.429C132.065 29.429 131.738 29.489 131.438 29.609C131.144 29.729 130.886 29.9 130.664 30.122C130.442 30.338 130.268 30.593 130.142 30.887C130.022 31.181 129.962 31.502 129.962 31.85C129.962 32.198 130.022 32.519 130.142 32.813C130.268 33.107 130.442 33.365 130.664 33.587C130.886 33.803 131.144 33.971 131.438 34.091C131.738 34.211 132.065 34.271 132.419 34.271ZM140.17 35V28.7H142.627C143.179 28.7 143.65 28.787 144.04 28.961C144.43 29.135 144.73 29.387 144.94 29.717C145.15 30.047 145.255 30.44 145.255 30.896C145.255 31.352 145.15 31.745 144.94 32.075C144.73 32.399 144.43 32.651 144.04 32.831C143.65 33.005 143.179 33.092 142.627 33.092H140.665L141.07 32.669V35H140.17ZM141.07 32.759L140.665 32.309H142.6C143.176 32.309 143.611 32.186 143.905 31.94C144.205 31.694 144.355 31.346 144.355 30.896C144.355 30.446 144.205 30.098 143.905 29.852C143.611 29.606 143.176 29.483 142.6 29.483H140.665L141.07 29.033V32.759ZM145.587 35L148.44 28.7H149.331L152.193 35H151.248L148.701 29.204H149.061L146.514 35H145.587ZM146.802 33.425L147.045 32.705H150.591L150.852 33.425H146.802ZM152.857 34.316L153.172 33.65C153.448 33.866 153.751 34.028 154.081 34.136C154.417 34.244 154.75 34.301 155.08 34.307C155.41 34.307 155.713 34.262 155.989 34.172C156.271 34.082 156.496 33.947 156.664 33.767C156.832 33.587 156.916 33.365 156.916 33.101C156.916 32.777 156.784 32.531 156.52 32.363C156.262 32.195 155.902 32.111 155.44 32.111H154.036V31.382H155.377C155.779 31.382 156.091 31.301 156.313 31.139C156.541 30.971 156.655 30.74 156.655 30.446C156.655 30.224 156.586 30.038 156.448 29.888C156.316 29.732 156.133 29.615 155.899 29.537C155.671 29.459 155.41 29.42 155.116 29.42C154.828 29.414 154.531 29.453 154.225 29.537C153.919 29.615 153.625 29.741 153.343 29.915L153.055 29.177C153.439 28.961 153.838 28.811 154.252 28.727C154.672 28.637 155.077 28.61 155.467 28.646C155.857 28.676 156.208 28.766 156.52 28.916C156.838 29.06 157.09 29.252 157.276 29.492C157.468 29.726 157.564 30.008 157.564 30.338C157.564 30.638 157.486 30.905 157.33 31.139C157.174 31.367 156.958 31.544 156.682 31.67C156.406 31.79 156.085 31.85 155.719 31.85L155.755 31.607C156.175 31.607 156.538 31.676 156.844 31.814C157.156 31.946 157.396 32.135 157.564 32.381C157.738 32.627 157.825 32.912 157.825 33.236C157.825 33.542 157.747 33.815 157.591 34.055C157.435 34.289 157.222 34.487 156.952 34.649C156.688 34.805 156.385 34.919 156.043 34.991C155.707 35.063 155.353 35.087 154.981 35.063C154.609 35.039 154.24 34.967 153.874 34.847C153.514 34.727 153.175 34.55 152.857 34.316ZM159.595 35V28.7H162.304C162.988 28.7 163.525 28.838 163.915 29.114C164.305 29.39 164.5 29.792 164.5 30.32C164.5 30.836 164.314 31.232 163.942 31.508C163.57 31.778 163.081 31.913 162.475 31.913L162.637 31.643C163.339 31.643 163.876 31.784 164.248 32.066C164.626 32.342 164.815 32.747 164.815 33.281C164.815 33.821 164.617 34.244 164.221 34.55C163.831 34.85 163.249 35 162.475 35H159.595ZM160.486 34.289H162.457C162.937 34.289 163.297 34.202 163.537 34.028C163.783 33.848 163.906 33.575 163.906 33.209C163.906 32.843 163.783 32.576 163.537 32.408C163.297 32.24 162.937 32.156 162.457 32.156H160.486V34.289ZM160.486 31.472H162.241C162.679 31.472 163.012 31.385 163.24 31.211C163.474 31.037 163.591 30.782 163.591 30.446C163.591 30.104 163.474 29.846 163.24 29.672C163.012 29.498 162.679 29.411 162.241 29.411H160.486V31.472ZM166.588 35V28.7H167.479V33.56L171.205 28.7H172.033V35H171.151V30.149L167.416 35H166.588ZM175.555 35V29.249L175.78 29.483H173.404V28.7H178.597V29.483H176.221L176.437 29.249V35H175.555ZM179.96 35V28.7H180.851V33.56L184.577 28.7H185.405V35H184.523V30.149L180.788 35H179.96ZM191.375 35V32.948L191.609 33.164H189.638C189.128 33.164 188.687 33.077 188.315 32.903C187.949 32.729 187.667 32.48 187.469 32.156C187.277 31.826 187.181 31.43 187.181 30.968C187.181 30.488 187.286 30.08 187.496 29.744C187.706 29.402 188.003 29.144 188.387 28.97C188.771 28.79 189.218 28.7 189.728 28.7H192.257V35H191.375ZM187.181 35L188.738 32.768H189.656L188.135 35H187.181ZM191.375 32.66V29.222L191.609 29.483H189.764C189.224 29.483 188.81 29.609 188.522 29.861C188.234 30.107 188.09 30.473 188.09 30.959C188.09 31.421 188.225 31.778 188.495 32.03C188.771 32.282 189.176 32.408 189.71 32.408H191.609L191.375 32.66Z" fill="white"/>
</svg>
