<svg width="22" height="18" viewBox="0 0 22 18" fill="none" xmlns="http://www.w3.org/2000/svg">
<path d="M20.3807 15.3214C20.3807 15.5301 20.197 15.7142 19.9887 15.7142H1.95968C1.75147 15.7142 1.56775 15.5301 1.56775 15.3214V5.89284C1.82495 6.18749 2.10666 6.45757 2.41286 6.70311C4.16432 8.05355 5.92804 9.42855 7.63051 10.8527C8.54911 11.6261 9.68817 12.5714 10.962 12.5714H10.9742H10.9865C12.2603 12.5714 13.3993 11.6261 14.3179 10.8527C16.0204 9.42855 17.7841 8.05355 19.5356 6.70311C19.8418 6.45757 20.1235 6.18749 20.3807 5.89284V15.3214ZM20.3807 2.41852C20.3807 3.46204 19.3763 4.82476 18.5802 5.45088C16.939 6.73994 15.2978 8.04128 13.6688 9.34261C13.0196 9.87051 11.8438 11 10.9865 11H10.9742H10.962C10.1046 11 8.9288 9.87051 8.27965 9.34261C6.65067 8.04128 5.00944 6.73994 3.3682 5.45088C2.26588 4.57923 1.56775 3.36383 1.56775 1.96428C1.56775 1.75558 1.75147 1.57142 1.95968 1.57142H19.9887C20.4542 1.57142 20.3807 2.1116 20.3807 2.41852ZM21.9484 1.96428C21.9484 0.883926 21.0666 0 19.9887 0H1.95968C0.881857 0 0 0.883926 0 1.96428V15.3214C0 16.4017 0.881857 17.2857 1.95968 17.2857H19.9887C21.0666 17.2857 21.9484 16.4017 21.9484 15.3214V1.96428Z" fill="#94120A"/>
</svg>
