<svg width="1921" height="116" viewBox="0 0 1921 116" fill="none" xmlns="http://www.w3.org/2000/svg">
<path d="M1921 0.364669L1921 96.5333C1870.8 98.3257 1820.6 100.118 1761 97.6138C1701.4 95.1096 1632.39 88.3088 1578.33 92.9314C1524.27 97.5541 1485.15 113.6 1425 113.822C1364.85 114.044 1283.66 98.441 1219.67 95.4527C1155.68 92.4644 1108.89 102.09 1046.33 100.855C983.777 99.6204 905.454 87.5243 851.667 89.3296C797.879 91.1348 768.628 106.841 715.667 109.5C662.705 112.158 586.034 101.768 514.333 103.377C442.632 104.985 375.901 118.591 321 114.182C266.099 109.773 223.028 87.3495 171.667 81.4055C120.305 75.4615 60.6525 85.9973 1 96.5331L1.00001 0.364501L1921 0.364669Z" fill="#FFF3F6" fill-opacity="0.4"/>
<path d="M1920 0.000267029L1920 48.79C1859.77 44.8944 1799.55 40.9988 1740 45.5131C1680.45 50.0273 1621.59 62.9513 1570.67 63.7182C1519.75 64.485 1476.78 53.0947 1424 43.3284C1371.22 33.5622 1308.63 25.42 1241.33 31.313C1174.03 37.206 1102.02 57.1343 1033.33 57.5284C964.649 57.9225 899.294 38.7826 849.333 38.2309C799.372 37.6793 764.804 55.7159 708 61.8976C651.196 68.0792 572.156 62.4059 513.333 59.713C454.511 57.02 415.907 57.3075 354.667 51.3386C293.426 45.3697 209.55 33.1445 146.667 31.677C83.7829 30.2095 41.8915 39.4997 1.38895e-06 48.7898L5.65428e-06 9.91771e-05L1920 0.000267029Z" fill="#FFF3F6"/>
</svg>
