<svg width="1920" height="110" viewBox="0 0 1920 110" fill="none" xmlns="http://www.w3.org/2000/svg">
<path opacity="0.25" d="M1920 0V46.2945C1843.54 68.4967 1754.26 78.4677 1667.2 74.2973C1554.62 68.9268 1449.07 40.984 1336.32 36.7936C1218.18 32.4332 1100.26 53.6753 987.2 72.0571C876.368 90.0588 765.92 96.9395 652.16 85.1383C594.32 79.1378 540.4 67.2966 485.04 55.7955C336.816 25.0025 139.2 -14.2914 -1.72853e-05 52.4751V0H1920Z" fill="#FF7497" fill-opacity="0.24"/>
<path opacity="0.5" d="M1920 0V15.8116C1899.2 36.9236 1875.78 56.8656 1843.7 72.0571C1760.94 111.281 1656 111.011 1560.67 91.589C1510.83 81.438 1464.53 65.5164 1417.2 51.7851C1351.73 32.7832 1281.63 5.78057 1207.87 2.11021C1149.86 -0.740073 1094.43 11.5311 1050.11 33.6733C999.28 59.0658 950.4 95.6794 884.304 106.68C819.6 117.472 754.144 99.9898 693.696 82.3981C633.248 64.8064 573.44 43.3943 506.624 39.3439C411.056 33.4933 325.376 62.2261 236.384 78.1877C188.064 86.8485 141.984 84.3583 97.04 70.6869C61.152 59.7959 20.24 43.7543 -1.72853e-05 21.4421V0H1920Z" fill="#FF7497" fill-opacity="0.22"/>
<path d="M1920 0V5.63055C1680.11 59.0058 1417.46 71.327 1158.67 42.5742C1089.87 34.9334 1023.9 22.4522 954.496 16.1116C860.096 7.48073 774.528 28.3528 689.6 51.5151C595.312 77.2276 502.4 95.2493 398.08 90.0088C259.632 83.0081 122.144 44.2943 -1.72853e-05 5.19051V0H1920Z" fill="#FFF3F6"/>
</svg>
