<svg width="1920" height="110" viewBox="0 0 1920 110" fill="none" xmlns="http://www.w3.org/2000/svg">
<path opacity="0.25" d="M0 110V63.7055C76.464 41.5033 165.744 31.5323 252.8 35.7027C365.376 41.0732 470.928 69.016 583.68 73.2064C701.824 77.5668 819.744 56.3247 932.8 37.9429C1043.63 19.9412 1154.08 13.0605 1267.84 24.8617C1325.68 30.8622 1379.6 42.7034 1434.96 54.2045C1583.18 84.9975 1780.8 124.291 1920 57.5249V110H0Z" fill="#FF7497" fill-opacity="0.24"/>
<path opacity="0.5" d="M0 110V94.1884C20.8 73.0764 44.224 53.1344 76.304 37.9429C159.056 -1.28092 264 -1.01089 359.328 18.411C409.168 28.562 455.472 44.4836 502.8 58.2149C568.272 77.2168 638.368 104.219 712.128 107.89C770.144 110.74 825.568 98.4689 869.888 76.3267C920.72 50.9342 969.6 14.3206 1035.7 3.31954C1100.4 -7.47152 1165.86 10.0102 1226.3 27.6019C1286.75 45.1936 1346.56 66.6057 1413.38 70.6561C1508.94 76.5067 1594.62 47.7739 1683.62 31.8123C1731.94 23.1515 1778.02 25.6417 1822.96 39.3131C1858.85 50.2041 1899.76 66.2457 1920 88.5579V110H0Z" fill="#FF7497" fill-opacity="0.22"/>
<path d="M0 110V104.369C239.888 50.9942 502.544 38.673 761.328 67.4258C830.128 75.0666 896.096 87.5478 965.504 93.8884C1059.9 102.519 1145.47 81.6472 1230.4 58.4849C1324.69 32.7724 1417.6 14.7507 1521.92 19.9912C1660.37 26.9919 1797.86 65.7057 1920 104.809V110H0Z" fill="#FFF3F6"/>
</svg>
