<svg width="50" height="50" viewBox="0 0 50 50" fill="none" xmlns="http://www.w3.org/2000/svg">
<rect width="50" height="50" rx="11" fill="#FFEAEF"/>
<path d="M12.6294 23.6311V13.4749C12.6294 10.3264 16.9458 3.90063 24.7583 3.90063C32.5708 3.90063 36.8872 9.99048 36.8872 13.7639V23.6311H12.6294Z" fill="#87304B"/>
<path d="M24.7389 35.8108C20.5241 35.8108 14.9733 38.9358 12.0319 42.7014C11.8534 42.9241 11.7584 43.2022 11.7634 43.4876C11.7684 43.773 11.873 44.0476 12.0593 44.2639C16.3171 49.2249 33.5436 49.2014 37.4733 44.2639C37.6418 44.0487 37.7334 43.7833 37.7334 43.51C37.7334 43.2367 37.6418 42.9713 37.4733 42.7561C34.5241 38.9475 28.9499 35.8108 24.7389 35.8108Z" fill="#663434"/>
<path d="M38.8922 25.6396C40.4162 24.1156 40.7525 21.9812 39.6435 20.8721C38.5345 19.7631 36.4 20.0995 34.8761 21.6234C33.3521 23.1474 33.0157 25.2819 34.1248 26.3909C35.2338 27.4999 37.3683 27.1635 38.8922 25.6396Z" fill="#E57E5A"/>
<path d="M15.384 26.3888C16.493 25.2798 16.1567 23.1454 14.6327 21.6214C13.1087 20.0974 10.9743 19.7611 9.86525 20.8701C8.75622 21.9791 9.09259 24.1136 10.6166 25.6375C12.1405 27.1615 14.275 27.4979 15.384 26.3888Z" fill="#E57E5A"/>
<path d="M14.2388 23.6428C13.52 22.9045 12.5005 22.1155 11.4458 22.1155C11.3142 22.1155 11.188 22.1677 11.095 22.2608C11.002 22.3538 10.9497 22.48 10.9497 22.6116C10.9497 22.7431 11.002 22.8693 11.095 22.9624C11.188 23.0554 11.3142 23.1077 11.4458 23.1077C12.5356 23.1077 13.8599 24.6272 14.3677 25.3303C14.5573 25.5978 14.7662 25.851 14.9927 26.0881C14.8497 25.4779 14.7673 24.8551 14.7466 24.2288C14.5892 24.0234 14.4196 23.8278 14.2388 23.6428ZM34.7036 24.2249C34.6829 24.8512 34.6005 25.474 34.4575 26.0842C34.6867 25.8474 34.8982 25.5941 35.0903 25.3264C35.5981 24.6233 36.9224 23.1038 38.0122 23.1038C38.1438 23.1038 38.27 23.0515 38.363 22.9585C38.456 22.8654 38.5083 22.7392 38.5083 22.6077C38.5083 22.4761 38.456 22.3499 38.363 22.2569C38.27 22.1638 38.1438 22.1116 38.0122 22.1116C36.9536 22.1116 35.938 22.8928 35.2192 23.6389C35.0357 23.8236 34.8635 24.0193 34.7036 24.2249Z" fill="#CC6436"/>
<path d="M28.6919 36.5764C28.2075 36.4553 27.7153 36.2326 27.2153 36.1545V29.6936C27.1899 29.0533 26.9177 28.4476 26.4556 28.0036C25.9936 27.5595 25.3776 27.3115 24.7368 27.3115C24.096 27.3115 23.48 27.5595 23.018 28.0036C22.556 28.4476 22.2837 29.0533 22.2583 29.6936V36.1584C21.7856 36.2326 21.3208 36.4475 20.8638 36.549C20.8638 36.7014 20.8364 37.2717 20.8364 37.428C20.8364 38.4733 21.2517 39.4758 21.9908 40.2149C22.73 40.9541 23.7325 41.3694 24.7778 41.3694C25.8232 41.3694 26.8257 40.9541 27.5648 40.2149C28.304 39.4758 28.7192 38.4733 28.7192 37.428C28.7192 37.2873 28.7075 36.7209 28.6919 36.5764Z" fill="#E57E5A"/>
<path d="M25.0296 33.3953C35.475 33.3953 35.014 24.3445 35.014 22.8484V16.4343C35.014 13.7806 33.9598 11.2356 32.0834 9.35912C30.2069 7.48265 27.6619 6.42847 25.0082 6.42847C22.3544 6.42847 19.8094 7.48265 17.9329 9.35912C16.0565 11.2356 15.0023 13.7806 15.0023 16.4343V22.9226C15.0023 24.739 14.5843 33.3953 25.0296 33.3953Z" fill="#FF9566"/>
<path d="M17.9419 8.82251C23.8716 14.7522 32.3013 14.7249 36.9653 10.0608C40.8716 6.15454 36.9106 2.14282 35.3013 2.14282C35.3013 2.14282 32.7349 5.73267 26.8403 4.05298C22.3481 2.78345 17.9419 5.95923 17.9419 8.82251Z" fill="#87304B"/>
<path d="M20.5239 21.8303C21.2812 21.8303 21.895 21.22 21.895 20.467C21.895 19.7141 21.2812 19.1038 20.5239 19.1038C19.7667 19.1038 19.1528 19.7141 19.1528 20.467C19.1528 21.22 19.7667 21.8303 20.5239 21.8303Z" fill="#6B1818"/>
<path d="M28.9536 21.8147C29.7022 21.8147 30.3091 21.2113 30.3091 20.467C30.3091 19.7228 29.7022 19.1194 28.9536 19.1194C28.205 19.1194 27.5981 19.7228 27.5981 20.467C27.5981 21.2113 28.205 21.8147 28.9536 21.8147Z" fill="#6B1818"/>
<path d="M22.477 16.1741C22.5413 16.1937 22.6089 16.2 22.6757 16.1927C22.7425 16.1854 22.8071 16.1646 22.8656 16.1316C22.9242 16.0985 22.9754 16.054 23.0161 16.0005C23.0569 15.9471 23.0864 15.886 23.1028 15.8208C23.1192 15.7556 23.1223 15.6878 23.1117 15.6214C23.1011 15.5551 23.0771 15.4916 23.0413 15.4347C23.0054 15.3779 22.9584 15.329 22.903 15.2909C22.8476 15.2528 22.7851 15.2263 22.7192 15.2131C21.1567 14.8225 18.8755 15.4866 18.0317 16.5881C17.9806 16.6379 17.9408 16.6982 17.9151 16.7647C17.8894 16.8313 17.8784 16.9026 17.8828 16.9738C17.8871 17.045 17.9068 17.1145 17.9405 17.1774C17.9741 17.2403 18.0209 17.2952 18.0778 17.3384C18.1346 17.3816 18.2 17.412 18.2696 17.4276C18.3393 17.4431 18.4114 17.4435 18.4812 17.4287C18.551 17.4138 18.6168 17.3841 18.674 17.3415C18.7313 17.2989 18.7787 17.2444 18.813 17.1819C19.4184 16.4123 21.3208 15.885 22.477 16.1741ZM26.8755 17.3811C27.4102 17.3634 27.943 17.306 28.4692 17.2092C29.3091 17.0764 30.352 16.9123 30.6762 17.2366C30.7705 17.3241 30.8951 17.3716 31.0237 17.3691C31.1523 17.3665 31.2749 17.3141 31.3656 17.2229C31.4563 17.1317 31.5081 17.0088 31.5099 16.8802C31.5117 16.7515 31.4635 16.6272 31.3755 16.5334C30.6958 15.8538 29.4848 16.0452 28.313 16.2288C27.837 16.3166 27.3552 16.3701 26.8716 16.3889C26.74 16.3889 26.6138 16.4412 26.5208 16.5342C26.4277 16.6272 26.3755 16.7534 26.3755 16.885C26.3755 17.0166 26.4277 17.1428 26.5208 17.2358C26.6138 17.3288 26.74 17.3811 26.8716 17.3811H26.8755ZM27.7505 27.3069C27.7887 27.2531 27.8157 27.1922 27.83 27.1278C27.8442 27.0634 27.8453 26.9968 27.8333 26.9319C27.8213 26.8671 27.7963 26.8053 27.76 26.7502C27.7236 26.6952 27.6765 26.648 27.6216 26.6116C27.5143 26.5377 27.3824 26.5086 27.254 26.5305C27.1256 26.5524 27.0108 26.6235 26.9341 26.7288C26.9106 26.76 26.3403 27.51 24.7387 27.51C23.1372 27.51 22.2973 26.7327 22.2583 26.6897C22.2142 26.6417 22.161 26.6029 22.1019 26.5755C22.0428 26.5481 21.9789 26.5325 21.9138 26.5298C21.8486 26.5271 21.7836 26.5372 21.7224 26.5596C21.6612 26.582 21.6051 26.6163 21.5571 26.6604C21.5091 26.7045 21.4703 26.7576 21.4429 26.8168C21.4155 26.8759 21.4 26.9398 21.3972 27.0049C21.3945 27.07 21.4046 27.135 21.427 27.1962C21.4495 27.2574 21.4837 27.3136 21.5278 27.3616C21.5708 27.4084 22.6216 28.5334 24.7348 28.5334C26.8481 28.5334 27.7153 27.3577 27.7505 27.3069Z" fill="#6B1818"/>
</svg>
