<svg width="50" height="50" viewBox="0 0 50 50" fill="none" xmlns="http://www.w3.org/2000/svg">
<path d="M50 25C50 38.8031 38.8135 49.9938 25.0115 50H24.7417C23.5298 49.9874 22.3204 49.8875 21.1229 49.701C20.1423 49.5495 19.1718 49.3387 18.2167 49.0698C12.9727 47.59 8.35542 44.4381 5.0672 40.0933C1.77898 35.7486 -0.000293574 30.4488 3.63322e-08 25C3.63322e-08 11.1948 11.1896 9.97363e-06 25 9.97363e-06H25.0115C28.4126 -0.00303262 31.7784 0.690095 34.9016 2.03672C38.0248 3.38335 40.8393 5.35497 43.1719 7.83022C47.559 12.4703 50.0024 18.6143 50 25Z" fill="white"/>
<path d="M18.6908 17.5646V18.6896H15.0565L4.84814 10.2011C5.47914 9.34274 6.16457 8.52578 6.90023 7.75525L18.6908 17.5646ZM45.1846 10.2469L35.0356 18.6844H31.3096V17.6407L43.1408 7.79796L43.1721 7.83025C43.854 8.54915 44.492 9.30851 45.0825 10.1042L45.1846 10.2469ZM18.6908 31.3084V32.4334L6.90023 42.2448C6.79606 42.1407 6.69189 42.0282 6.59398 41.9188C5.97375 41.2449 5.39126 40.5372 4.84919 39.799L15.0575 31.3084H18.6908ZM45.1856 39.7521C44.5572 40.6111 43.8746 41.4291 43.1419 42.2011L31.3096 32.3573V31.3084H35.0356L45.1856 39.7521Z" fill="#C8102E"/>
<path d="M9.98423 18.6896H0.802979C1.32457 16.6893 2.09444 14.7622 3.09464 12.9531L9.98423 18.6896ZM9.77694 31.3083L3.02069 36.9271C2.05519 35.1515 1.31043 33.2646 0.802979 31.3083H9.77694ZM18.6905 36.5916V49.1958C18.5321 49.1552 18.378 49.1125 18.2165 49.0677C14.9407 48.1452 11.8887 46.5612 9.24881 44.4135L18.6905 36.5916ZM18.6905 0.803101V13.2093L9.38944 5.47185C12.1265 3.27816 15.296 1.6872 18.6905 0.803101ZM40.753 5.58852L31.3092 13.4166V0.804142L31.4519 0.840601C34.8531 1.74789 38.0232 3.36613 40.753 5.58852ZM49.1967 18.6896H40.2384L46.979 13.0812C47.9436 14.8535 48.6883 16.7369 49.1967 18.6896ZM40.8332 44.3521C38.0477 46.6359 34.8002 48.2888 31.3144 49.1968V36.4333L40.8332 44.3521ZM49.1967 31.3083C48.7001 33.2174 47.978 35.0606 47.0457 36.7989L40.4467 31.3083H49.1967Z" fill="#012169"/>
<path d="M50 24.7385V25.2375C49.9892 26.4032 49.8977 27.5667 49.726 28.7198H28.7198V49.725C27.574 49.8959 26.4178 49.9878 25.2594 50H24.7385C23.5797 49.9881 22.4231 49.8958 21.2771 49.724V28.7198H0.275C0.104065 27.5726 0.0121819 26.415 0 25.2552L0 24.7625C0.0107763 23.5965 0.102315 22.4326 0.273958 21.2792H21.2802V0.275C22.371 0.111921 23.4712 0.0200597 24.574 0L25.3802 0C26.4325 0.0150458 27.4829 0.0964575 28.525 0.24375L28.7198 0.272917V21.2792H49.725C49.8959 22.4246 49.9878 23.5805 50 24.7385Z" fill="#C8102E"/>
</svg>
