<svg width="50" height="50" viewBox="0 0 50 50" fill="none" xmlns="http://www.w3.org/2000/svg">
<rect width="50" height="50" rx="11" fill="#FFF3F6"/>
<path d="M28.6123 24.1931L32.9158 12.0666C33.3335 10.8898 32.718 9.5972 31.5412 9.17964L22.4806 5.96415C21.3038 5.5465 20.0113 6.16198 19.5936 7.33874L15.2902 19.4652C14.8726 20.642 15.4881 21.9346 16.6648 22.3522L25.7254 25.5676C26.9021 25.9853 28.1947 25.3699 28.6123 24.1931Z" fill="#FF6086"/>
<path d="M28.0118 17.7661C28.1489 18.2149 28.5401 18.5119 28.984 18.6259C29.4549 18.7468 29.9351 18.6366 30.411 18.6895C30.6441 18.7154 30.8677 18.4655 30.8578 18.2427C30.846 17.9785 30.6607 17.8237 30.411 17.7959C30.2079 17.7733 30.0047 17.7819 29.801 17.7898C29.6992 17.7937 29.5973 17.7973 29.4954 17.7954C29.4445 17.7945 29.3937 17.792 29.343 17.7879C29.3218 17.7862 29.2995 17.7814 29.2781 17.7814C29.315 17.7814 29.3746 17.7964 29.3023 17.7824C29.229 17.7683 29.1607 17.7438 29.0894 17.7228C29.035 17.7069 29.1699 17.7618 29.1196 17.7363C29.1034 17.728 29.0865 17.7209 29.0703 17.7125C29.0381 17.696 29.0068 17.6779 28.9765 17.6581C28.8941 17.604 29.0339 17.7122 28.9613 17.6471C28.9352 17.6236 28.9137 17.5958 28.8882 17.5721C28.8539 17.5401 28.9291 17.6434 28.9111 17.6003C28.9049 17.5856 28.8925 17.5694 28.884 17.5558C28.8756 17.5426 28.8513 17.4851 28.878 17.5502C28.9077 17.6224 28.8766 17.5391 28.8735 17.5286C28.8053 17.3054 28.558 17.1408 28.3239 17.2166C28.0987 17.2893 27.9387 17.5267 28.0118 17.7661Z" fill="#004587"/>
<path d="M24.6321 37.7933L20.2492 25.6953C19.8239 24.5212 18.5274 23.9143 17.3533 24.3395L8.31402 27.6143C7.13995 28.0397 6.53302 29.3362 6.95831 30.5102L11.3411 42.6083C11.7664 43.7823 13.063 44.3893 14.237 43.964L23.2763 40.6892C24.4504 40.2639 25.0573 38.9674 24.6321 37.7933Z" fill="#00AFFF"/>
<path d="M41.7913 39.9074L44.8451 27.4076C45.1415 26.1945 44.3983 24.9709 43.1853 24.6746L33.8458 22.3928C32.6328 22.0965 31.4092 22.8396 31.1128 24.0527L28.059 36.5525C27.7626 37.7656 28.5058 38.9891 29.7189 39.2855L39.0584 41.5672C40.2713 41.8636 41.4949 41.1205 41.7913 39.9074Z" fill="#FF854A"/>
<path d="M21.2408 37.412C21.2933 37.6007 21.3366 37.8323 21.3713 38.1066C21.406 38.3811 21.4015 38.654 21.3582 38.9248C21.3143 39.1956 21.2217 39.4397 21.08 39.6567C20.9381 39.8735 20.7126 40.0249 20.4038 40.1108C19.9954 40.2242 19.6539 40.1822 19.3792 39.9842C19.1042 39.7866 18.8735 39.5235 18.6872 39.1946C18.5004 38.8649 18.3472 38.5172 18.2297 38.1569C18.1356 37.8685 18.0407 37.5802 17.945 37.2923C17.1941 37.6208 16.4381 37.9374 15.6772 38.2419C15.715 38.4649 15.7428 38.7466 15.7603 39.0869C15.7773 39.4277 15.7525 39.7694 15.6864 40.1042C15.6198 40.4423 15.498 40.7527 15.321 41.0353C15.1438 41.3181 14.884 41.5071 14.5422 41.602C14.2775 41.6756 14.0474 41.6507 13.8528 41.5269C13.658 41.4034 13.4906 41.2393 13.3507 41.0348C13.2105 40.8302 13.0979 40.6081 13.0157 40.3741C12.9323 40.1386 12.8686 39.9407 12.8239 39.7804C12.6754 39.247 12.5775 38.7007 12.5314 38.149C12.4855 37.5973 12.4567 37.0443 12.4451 36.4908C12.4353 36.1995 12.4347 35.8544 12.4431 35.4563C12.4511 35.0585 12.481 34.6415 12.5326 34.2061C12.5852 33.763 12.6657 33.3238 12.7734 32.8908C12.8824 32.4493 13.0332 32.0397 13.2253 31.6616C13.4175 31.2836 13.6636 30.9511 13.9647 30.6646C14.2652 30.3781 14.6309 30.1749 15.0613 30.0553C15.4806 29.9388 15.8669 29.9181 16.2205 29.9922C16.5725 30.0661 16.9075 30.2055 17.2081 30.403C17.5133 30.6025 17.7894 30.8479 18.0369 31.1394C18.2811 31.4271 18.5055 31.731 18.7085 32.0492C18.9029 32.354 19.0848 32.6665 19.2539 32.9859C19.4171 33.2961 19.5616 33.5701 19.6875 33.8094C20.0021 34.3843 20.2958 34.9704 20.5679 35.5666C20.8403 36.1631 21.0653 36.7801 21.2408 37.412ZM17.0926 34.8653C17.061 34.7522 17.0011 34.5684 16.9125 34.3137C16.8229 34.0571 16.7148 33.8074 16.589 33.5664C16.4617 33.3225 16.3123 33.1157 16.14 32.9449C15.9679 32.7749 15.7826 32.7173 15.5842 32.7725C15.4736 32.8032 15.3864 32.8956 15.3224 33.0502C15.2585 33.2054 15.2146 33.3901 15.1911 33.6044C15.1676 33.8193 15.1581 34.053 15.163 34.3052C15.1676 34.5576 15.1779 34.7984 15.1943 35.027C15.2103 35.2562 15.2315 35.461 15.2577 35.6412C15.284 35.8221 15.3021 35.9514 15.3124 36.0298C15.9529 35.802 16.5846 35.5503 17.2063 35.2752L17.0926 34.8653Z" fill="#00EEE4"/>
<path d="M43.8485 14.3832C40.8961 15.6056 35.1418 17.5515 33.9435 18.0201C31.831 14.9446 31.4514 12.6189 31.4514 12.6189C33.2293 11.83 39.1505 9.8328 42.1905 9.03194C42.1905 9.03194 42.6095 11.7643 43.8083 14.2866L43.8485 14.3832Z" fill="#A989E7"/>
<path d="M43.8487 14.3832L43.8086 14.2866C42.6097 11.7644 42.1907 9.03193 42.1907 9.03193C43.1368 8.78364 43.804 8.64839 43.9808 8.70307C45.8153 9.25858 46.1458 12.7496 45.5864 13.4976C45.4589 13.6699 44.7983 13.988 43.8487 14.3832ZM33.7483 18.1019C33.1504 18.4093 29.3362 17.9874 28.8978 17.8071C28.6386 17.6988 28.1255 17.1372 28.2334 16.524C28.3417 15.9091 30.4376 13.4199 30.9502 12.8862C31.0044 12.8304 31.1788 12.7389 31.4515 12.6189C31.4515 12.6189 31.8311 14.9446 33.9437 18.0201C33.8478 18.0567 33.7821 18.0838 33.7483 18.1019Z" fill="#FFD548"/>
<path d="M19.1984 29.5045C18.6263 29.4111 18.4801 30.2999 19.0531 30.3935C19.6251 30.4869 19.7713 29.5981 19.1984 29.5045ZM29.8716 9.47294C29.2996 9.37951 29.1533 10.2683 29.7263 10.3619C30.2984 10.4554 30.4446 9.56653 29.8716 9.47294ZM31.0876 15.9026C30.5156 15.8092 30.3693 16.698 30.9423 16.7916C31.5144 16.8851 31.6606 15.9962 31.0876 15.9026ZM28.291 19.5078C27.719 19.4144 27.5728 20.3033 28.1458 20.3968C28.7179 20.4904 28.864 19.6014 28.291 19.5078ZM22.7996 22.6788C22.2276 22.5854 22.0813 23.4742 22.6543 23.5678C23.2264 23.6612 23.3726 22.7724 22.7996 22.6788ZM17.0703 20.4809C16.4982 20.3875 16.352 21.2763 16.925 21.3699C17.4971 21.4633 17.6433 20.5745 17.0703 20.4809ZM18.3601 14.9704C17.788 14.877 17.6418 15.7658 18.2148 15.8594C18.7868 15.9529 18.933 15.064 18.3601 14.9704ZM21.714 8.04927C21.142 7.95585 20.9957 8.84468 21.5687 8.93827C22.1408 9.03178 22.287 8.14286 21.714 8.04927ZM33.5554 12.6259C32.9833 12.5324 32.8371 13.4213 33.4101 13.5148C33.9822 13.6084 34.1284 12.7194 33.5554 12.6259ZM44.9828 10.3757C44.4108 10.2823 44.2645 11.1711 44.8375 11.2647C45.4095 11.3582 45.5557 10.4693 44.9828 10.3757ZM42.263 13.0816C41.6909 12.9882 41.5447 13.877 42.1177 13.9707C42.6898 14.064 42.836 13.1752 42.263 13.0816ZM41.0866 10.3757C40.5146 10.2823 40.3684 11.1711 40.9413 11.2647C41.5135 11.3582 41.6596 10.4693 41.0866 10.3757ZM35.3688 15.7728C34.7968 15.6794 34.6506 16.5682 35.2237 16.6618C35.7956 16.7553 35.9418 15.8664 35.3688 15.7728ZM42.6992 28.6451C42.1272 28.5516 41.981 29.4405 42.554 29.5341C43.1261 29.6276 43.2722 28.7387 42.6992 28.6451ZM32.1999 26.2214C31.6279 26.128 31.4816 27.0168 32.0546 27.1104C32.6267 27.2039 32.7729 26.315 32.1999 26.2214ZM31.7636 32.3077C31.1916 32.2143 31.0454 33.1031 31.6184 33.1967C32.1905 33.2902 32.3366 32.4013 31.7636 32.3077ZM30.0559 36.6088C29.4839 36.5153 29.3377 37.4042 29.9107 37.4978C30.4827 37.5912 30.6288 36.7023 30.0559 36.6088ZM38.5216 39.6763C37.9496 39.5829 37.8033 40.4717 38.3764 40.5653C38.9483 40.6588 39.0945 39.7699 38.5216 39.6763ZM41.4208 35.1338C40.8487 35.0404 40.7025 35.9292 41.2755 36.0228C41.8475 36.1163 41.9938 35.2274 41.4208 35.1338ZM21.714 33.366C21.142 33.2726 20.9957 34.1614 21.5687 34.255C22.1408 34.3485 22.287 33.4597 21.714 33.366ZM22.9789 38.1349C22.4069 38.0415 22.2607 38.9303 22.8337 39.0239C23.4058 39.1173 23.5519 38.2285 22.9789 38.1349ZM17.5065 40.2854C16.9345 40.1919 16.7883 41.0808 17.3613 41.1744C17.9334 41.2679 18.0795 40.3789 17.5065 40.2854ZM13.4586 42.0879C12.8866 41.9945 12.7403 42.8833 13.3133 42.9769C13.8854 43.0704 14.0316 42.1816 13.4586 42.0879ZM11.403 37.6835C10.831 37.59 10.6848 38.4789 11.2578 38.5725C11.8299 38.666 11.976 37.7771 11.403 37.6835ZM13.4586 26.6728C12.8866 26.5794 12.7403 27.4682 13.3133 27.5618C13.8854 27.6552 14.0316 26.7664 13.4586 26.6728ZM8.84239 31.5355C8.27037 31.4421 8.12413 32.3309 8.69713 32.4245C9.26923 32.518 9.41539 31.6291 8.84239 31.5355Z" fill="white"/>
<path d="M16.9601 26.263C17.8067 25.9903 18.5364 26.4997 18.8429 27.3478C18.9998 27.7823 18.3749 28.0499 18.2171 27.6147C18.0457 27.1392 17.7509 26.8275 17.2523 26.923C16.7043 27.0275 16.561 27.5198 16.79 28.0143C16.9848 28.4341 16.3582 28.6984 16.1649 28.2804C15.7699 27.4269 16.1061 26.5372 16.9601 26.263ZM10.2019 28.3415C11.0564 28.0953 11.7724 28.6249 12.0562 29.4811C12.2015 29.9198 11.569 30.1686 11.4233 29.7282C11.2643 29.2491 10.9783 28.9288 10.4767 29.0096C9.92539 29.0978 9.76922 29.5847 9.98488 30.0854C10.1683 30.5108 9.53444 30.7558 9.35239 30.3326C8.97967 29.4684 9.34059 28.59 10.2019 28.3415ZM12.8546 28.872C12.772 28.6947 12.7783 28.4934 12.948 28.3797C13.0873 28.2871 13.3387 28.3159 13.4212 28.4938C13.5403 28.7499 13.7494 29.1934 14.0694 29.1909C14.5226 29.1866 14.5326 28.6018 14.4469 28.2681C14.3329 27.8222 14.9791 27.6149 15.0953 28.0648C15.2855 28.8081 15.1154 29.6166 14.3584 29.8596C13.6771 30.0794 13.1304 29.4664 12.8546 28.872ZM41.6753 25.2792C42.5522 25.4287 42.9636 26.2177 42.8434 27.1114C42.7816 27.5694 42.1038 27.5177 42.1651 27.0588C42.2329 26.5579 42.1157 26.1452 41.6294 25.9994C41.0951 25.8387 40.7405 26.209 40.7149 26.7534C40.6936 27.2157 40.0158 27.1603 40.0377 26.7003C40.0818 25.7609 40.7913 25.1274 41.6753 25.2792ZM34.7218 23.9978C35.5933 24.1746 35.9833 24.9751 35.8391 25.8655C35.7652 26.3217 35.0893 26.25 35.1636 25.7921C35.2441 25.2937 35.1386 24.8775 34.6564 24.7173C34.1268 24.5406 33.7633 24.9002 33.723 25.4439C33.689 25.9059 33.0137 25.8302 33.0479 25.3707C33.117 24.4321 33.8432 23.8199 34.7218 23.9978ZM36.8287 25.6946C36.8374 25.4992 36.936 25.3236 37.1391 25.3013C37.3054 25.2836 37.5151 25.4253 37.506 25.6211C37.4932 25.9033 37.4736 26.3933 37.7585 26.539C38.1624 26.7447 38.4416 26.2308 38.5199 25.8953C38.6249 25.4472 39.2938 25.562 39.1888 26.0148C39.0138 26.7617 38.4893 27.4001 37.7057 27.2656C36.9999 27.1454 36.7985 26.3491 36.8287 25.6946Z" fill="#004587"/>
<path d="M38.0931 14.9683C39.6931 14.4765 40.7918 13.4324 40.5471 12.6362C40.3024 11.84 38.8069 11.5932 37.2069 12.085C35.6069 12.5767 34.5082 13.6209 34.7529 14.4171C34.9976 15.2133 36.4931 15.4601 38.0931 14.9683Z" fill="#FFA4AD"/>
<path d="M39.0465 35.7373C38.9134 36.301 38.7066 36.7818 38.4263 37.1793C38.1456 37.5772 37.8092 37.8911 37.4174 38.1213C37.0248 38.3515 36.5877 38.4954 36.105 38.5528C35.6226 38.6101 35.109 38.5749 34.5644 38.4463C34.2683 38.3762 33.9536 38.2465 33.62 38.0569C33.2879 37.8683 32.9843 37.6337 32.7181 37.36C32.4503 37.0848 32.2442 36.7816 32.1007 36.4501C31.9569 36.1188 31.926 35.7811 32.0072 35.4371C32.0657 35.1887 32.1895 35.0061 32.3784 34.8893C32.5671 34.7727 32.786 34.7435 33.0344 34.8022C33.2731 34.8584 33.4622 34.9537 33.6026 35.0876C33.7454 35.2251 33.8802 35.3705 34.0065 35.5232C34.1359 35.6801 34.2896 35.8298 34.4676 35.9727C34.6458 36.1156 34.8924 36.2241 35.2077 36.2985C35.5898 36.3887 35.9317 36.3283 36.2338 36.1172C36.5356 35.9061 36.7308 35.6142 36.8186 35.2416C36.9021 34.8884 36.8931 34.5633 36.7917 34.2671C36.6899 33.9707 36.453 33.7788 36.0804 33.6908C35.9084 33.6502 35.7484 33.6328 35.601 33.638C35.4567 33.6433 35.3128 33.6547 35.1695 33.6723C35.0291 33.6898 34.8894 33.7046 34.7505 33.7172C34.6121 33.7297 34.4729 33.7297 34.3345 33.7172C34.2245 33.7115 34.0926 33.673 33.9382 33.6011C33.7776 33.5258 33.6241 33.4364 33.4793 33.3339C33.3278 33.2276 33.1959 33.1134 33.0837 32.9909C32.9711 32.8685 32.9084 32.7504 32.8949 32.6361C32.8866 32.5432 32.9042 32.3509 32.9482 32.0585C32.996 31.7425 33.0503 31.4274 33.1108 31.1135C33.172 30.7927 33.2374 30.4728 33.3071 30.1537C33.3731 29.8518 33.4199 29.6434 33.447 29.5287C33.4652 29.4525 33.4944 29.3282 33.535 29.1561C33.5776 28.9768 33.6271 28.7993 33.6833 28.6238C33.7378 28.4523 33.7957 28.282 33.857 28.1128C33.9142 27.9549 33.9735 27.8528 34.035 27.8067C34.1129 27.7344 34.2725 27.6865 34.5154 27.663C34.7577 27.6398 35.0374 27.6299 35.354 27.6341C35.6709 27.6384 36.012 27.6559 36.3782 27.6868C36.7438 27.7176 37.0912 27.7518 37.4206 27.7891C37.7496 27.8265 38.0475 27.8666 38.3148 27.9095C38.5819 27.9523 38.773 27.9872 38.8876 28.0143C39.0213 28.0459 39.158 28.0961 39.2984 28.1644C39.4385 28.2329 39.5599 28.3168 39.6624 28.4168C39.7635 28.5144 39.8414 28.6337 39.8902 28.7656C39.9398 28.8983 39.9451 29.0458 39.9068 29.2082C39.8459 29.466 39.7065 29.6502 39.489 29.76C39.2758 29.8689 39.0442 29.9373 38.8061 29.9619C38.6204 29.9786 38.3989 29.9768 38.1418 29.9563C37.8799 29.9355 37.6183 29.9116 37.357 29.8845C37.0912 29.8572 36.8342 29.8242 36.586 29.7857C36.3696 29.7527 36.1536 29.7169 35.9381 29.6782L35.4764 31.763C35.6763 31.77 35.8746 31.7839 36.0715 31.805C36.2721 31.8271 36.4712 31.8614 36.6676 31.9078C37.68 32.1468 38.3895 32.592 38.7958 33.2424C39.2021 33.8931 39.2855 34.7248 39.0465 35.7373Z" fill="#FFD548"/>
<path d="M28.7117 13.8987C28.4144 14.5787 27.9616 15.125 27.3535 15.5374C26.7453 15.9501 26.0537 16.2225 25.2784 16.3548C25.5743 16.5414 25.8091 16.7529 25.983 16.9891C26.1563 17.2255 26.276 17.4777 26.3411 17.7464C26.406 18.0149 26.422 18.2959 26.3883 18.5887C26.3547 18.8818 26.2754 19.1711 26.1506 19.4568C25.905 20.0186 25.5483 20.4527 25.0811 20.759C24.6135 21.0656 24.0955 21.2649 23.5263 21.3577C22.9571 21.4506 22.3673 21.4539 21.7564 21.3683C21.1454 21.2828 20.5668 21.1319 20.0194 20.9152C19.7187 20.7962 19.4262 20.6573 19.1438 20.4996C18.8604 20.3409 18.6062 20.1593 18.3812 19.955C18.2976 19.8872 18.2698 19.7348 18.298 19.4973C18.3263 19.26 18.3881 18.9811 18.4842 18.6605C18.5801 18.3405 18.695 17.9983 18.8285 17.6352C18.9561 17.287 19.0886 16.9406 19.226 16.5962C19.3408 16.3062 19.4604 16.0182 19.5846 15.7321C19.6922 15.4859 19.7675 15.3134 19.8107 15.2148L20.2662 14.1725C20.4181 13.8244 20.5807 13.4811 20.7538 13.143C20.815 13.0053 20.8779 12.8684 20.9426 12.7323C21.0297 12.5474 21.1265 12.3399 21.2333 12.1106C21.3399 11.8811 21.4571 11.6413 21.5853 11.3915C21.7046 11.1574 21.8306 10.9267 21.9631 10.6998C22.0867 10.4887 22.2071 10.314 22.3245 10.1753C22.4416 10.0368 22.5409 9.96057 22.6226 9.94649C22.9339 9.8962 23.269 9.86406 23.6277 9.84998C23.9861 9.83557 24.3481 9.84298 24.7131 9.87195C25.078 9.90084 25.4343 9.9491 25.7822 10.0175C26.1299 10.0857 26.4487 10.1771 26.7383 10.2917C27.1353 10.4487 27.4963 10.6523 27.8213 10.9023C28.1463 11.1521 28.4005 11.4349 28.5835 11.7499C28.7667 12.0651 28.8757 12.4061 28.911 12.7724C28.946 13.1391 28.8795 13.5144 28.7117 13.8987ZM23.766 17.872C23.839 17.7045 23.8263 17.5608 23.7276 17.4406C23.6291 17.3208 23.4994 17.229 23.3384 17.1652C23.188 17.1058 23.0157 17.0752 22.8217 17.0734C22.627 17.0718 22.457 17.0939 22.3111 17.1401C22.2701 17.1473 22.2245 17.187 22.1741 17.2595C22.1235 17.3321 22.075 17.4141 22.0287 17.5054C21.9848 17.5921 21.9407 17.6787 21.8963 17.7651C21.8543 17.8469 21.827 17.9023 21.8141 17.932C21.8053 17.9517 21.7882 17.991 21.7624 18.0503C21.7355 18.1119 21.7112 18.1746 21.6895 18.2382C21.6667 18.3045 21.6515 18.3678 21.6443 18.4283C21.6367 18.489 21.6433 18.5233 21.665 18.5319C21.8152 18.5914 21.9986 18.618 22.2155 18.6111C22.4306 18.6047 22.6442 18.5728 22.8518 18.516C23.0588 18.4594 23.2468 18.3748 23.4158 18.2623C23.5846 18.1499 23.7013 18.0197 23.766 17.872ZM25.6974 13.6251C25.7707 13.4576 25.768 13.3121 25.6897 13.1885C25.6116 13.0652 25.4811 12.9675 25.2988 12.8952C25.1484 12.8357 24.9774 12.8026 24.7853 12.7961C24.5929 12.7893 24.4164 12.8121 24.2553 12.8637C24.2101 12.8807 24.1439 12.9527 24.0571 13.0801C23.9698 13.2076 23.8805 13.3545 23.7892 13.5205C23.7028 13.6764 23.621 13.8348 23.5438 13.9955C23.4716 14.1462 23.4249 14.2461 23.4035 14.2952C23.3947 14.3151 23.3807 14.347 23.3613 14.3915C23.3409 14.4383 23.3231 14.4862 23.308 14.535C23.2928 14.5816 23.2815 14.6292 23.274 14.6776C23.2673 14.7212 23.2748 14.7472 23.2965 14.7557C23.4788 14.828 23.6935 14.841 23.9404 14.794C24.1876 14.7472 24.4284 14.6635 24.664 14.5427C24.8943 14.4251 25.1096 14.2803 25.3055 14.1115C25.4977 13.9449 25.6284 13.7828 25.6974 13.6251Z" fill="#004587"/>
<path d="M41.2213 31.2088C41.153 31.1428 41.0157 30.2144 40.8909 30.2219C40.7661 30.2294 40.6575 31.15 40.5991 31.2106C40.4824 31.3322 39.6264 31.4185 39.6333 31.5363C39.6403 31.6539 40.4809 31.7097 40.5993 31.8247C40.6657 31.8887 40.8049 32.8194 40.9301 32.8122C41.0543 32.805 41.1612 31.887 41.222 31.8242C41.3346 31.7066 42.1972 31.616 42.1903 31.4975C42.1833 31.3794 41.3354 31.32 41.2213 31.2088ZM27.0248 22.3636C26.9564 22.2976 26.8192 21.3692 26.6944 21.3768C26.5695 21.3844 26.461 22.3049 26.4025 22.3654C26.2858 22.4871 25.4299 22.5733 25.4368 22.6912C25.4437 22.8088 26.2844 22.8646 26.4028 22.9796C26.4691 23.0436 26.6084 23.9743 26.7335 23.9671C26.8577 23.9598 26.9646 23.0419 27.0254 22.979C27.1381 22.8614 28.0007 22.7709 27.9938 22.6524C27.9867 22.5343 27.1389 22.4749 27.0248 22.3636Z" fill="white"/>
<path d="M10.9514 33.0509C10.883 32.9849 10.7458 32.0565 10.621 32.0641C10.4961 32.0716 10.3876 32.9921 10.3291 33.0527C10.2124 33.1743 9.35641 33.2606 9.36332 33.3784C9.37024 33.496 10.2109 33.5519 10.3293 33.6669C10.3956 33.7308 10.5349 34.6616 10.66 34.6543C10.7842 34.6471 10.8911 33.7292 10.9519 33.6663C11.0646 33.5487 11.9272 33.4581 11.9203 33.3396C11.9134 33.2215 11.0655 33.1621 10.9514 33.0509Z" fill="#004587"/>
<path d="M9.40389 24.2659C12.2963 24.2659 14.641 21.9212 14.641 19.0288C14.641 16.1364 12.2963 13.7916 9.40389 13.7916C6.5115 13.7916 4.16675 16.1364 4.16675 19.0288C4.16675 21.9212 6.5115 24.2659 9.40389 24.2659Z" fill="#FFD548"/>
<path d="M25.9029 32.6573C27.4227 32.5731 28.5866 31.2728 28.5024 29.7529C28.4182 28.233 27.1179 27.0692 25.5981 27.1533C24.0783 27.2375 22.9144 28.5379 22.9986 30.0577C23.0828 31.5776 24.3831 32.7415 25.9029 32.6573Z" fill="#FFA4AD"/>
<path d="M41.3431 22.4824C42.8653 22.4824 44.0993 21.2484 44.0993 19.7262C44.0993 18.204 42.8653 16.97 41.3431 16.97C39.8209 16.97 38.5869 18.204 38.5869 19.7262C38.5869 21.2484 39.8209 22.4824 41.3431 22.4824Z" fill="#00EEE4"/>
<path d="M12.3183 18.6988C12.3721 18.8629 12.4183 19.0528 12.4568 19.2687C12.4954 19.4847 12.5192 19.7102 12.5283 19.9452C12.5371 20.1815 12.5247 20.4182 12.4914 20.6524C12.4579 20.8888 12.3948 21.1114 12.3021 21.3203C12.2116 21.5259 12.0835 21.7129 11.9244 21.8715C11.765 22.0301 11.5594 22.1507 11.3074 22.2333C11.0421 22.3202 10.7837 22.3452 10.532 22.3089C10.2824 22.2732 10.0431 22.1852 9.8299 22.0505C9.86041 22.2097 9.83348 22.3671 9.74852 22.5234C9.66364 22.6794 9.52749 22.7883 9.34015 22.8496C9.23029 22.8857 9.12213 22.868 9.01634 22.7961C8.91062 22.7245 8.81053 22.6209 8.71613 22.486C8.62164 22.3509 8.53375 22.1966 8.4518 22.0231C8.3724 21.8558 8.30037 21.6851 8.2359 21.5115C8.17968 21.3609 8.12636 21.2092 8.07599 21.0565L7.98134 20.7682C7.85462 20.3806 7.73417 19.9911 7.62002 19.5996C7.57221 19.4556 7.52338 19.3119 7.47353 19.1685C7.40034 18.9561 7.33199 18.7421 7.26854 18.5266C7.1962 18.2836 7.13195 18.0384 7.07591 17.7912C7.01772 17.538 6.98452 17.2998 6.97589 17.0772C6.96751 16.8545 6.99363 16.6613 7.05451 16.4973C7.1153 16.3334 7.2254 16.2221 7.38532 16.1634C7.51463 16.121 7.63759 16.1247 7.75389 16.1741C7.87034 16.2237 7.98061 16.3034 8.08478 16.4133C8.18878 16.5232 8.28489 16.6529 8.37319 16.8025C8.46069 16.9505 8.53949 17.1035 8.60919 17.2606C8.67465 17.4077 8.73445 17.5573 8.78847 17.709C8.82971 17.8254 8.86972 17.9423 8.90851 18.0595C8.91412 18.0764 8.92503 18.1153 8.94139 18.1756C8.95734 18.2361 8.97687 18.3002 8.99909 18.368C9.02122 18.4359 9.04132 18.4967 9.05882 18.5504L9.08812 18.6394C9.11106 18.5131 9.16079 18.3808 9.23729 18.243C9.31578 18.1024 9.40949 17.9709 9.51674 17.8509C9.6263 17.7275 9.74783 17.6152 9.87954 17.5158C10.0114 17.4164 10.1454 17.3442 10.2812 17.2997C10.5527 17.2106 10.8005 17.1968 11.0246 17.2581C11.2488 17.3194 11.4461 17.4252 11.6174 17.5757C11.7894 17.7276 11.9351 17.9068 12.0489 18.1061C12.1653 18.3091 12.2553 18.5067 12.3183 18.6988ZM10.9761 19.4205C10.9516 19.3469 10.9226 19.2748 10.8893 19.2047C10.855 19.1307 10.8075 19.0635 10.7492 19.0064C10.6924 18.9509 10.6236 18.9091 10.5482 18.8844C10.4719 18.8593 10.3854 18.8627 10.2884 18.8943C10.1838 18.9289 10.0867 18.9831 10.0023 19.0538C9.91453 19.1267 9.83539 19.2094 9.76634 19.3002C9.69769 19.3898 9.63527 19.4841 9.57949 19.5822C9.52877 19.6709 9.48352 19.7625 9.44399 19.8566L9.5943 20.6435C9.73896 20.7392 9.90261 20.8026 10.074 20.8291C10.2478 20.8569 10.4281 20.84 10.6159 20.7784C10.758 20.7319 10.863 20.6538 10.9307 20.5437C10.9984 20.434 11.041 20.312 11.0579 20.178C11.0748 20.0427 11.0733 19.9058 11.0534 19.7709C11.0334 19.6335 11.0078 19.5167 10.9761 19.4205Z" fill="#FF854A"/>
<path d="M9.82514 15.3214C9.25312 15.228 9.10688 16.1168 9.67988 16.2104C10.2519 16.3039 10.3981 15.415 9.82514 15.3214ZM6.4586 19.9629C5.88658 19.8694 5.74034 20.7583 6.31334 20.8518C6.88544 20.9454 7.0316 20.0564 6.4586 19.9629ZM13.3115 19.5079C12.7394 19.4144 12.5932 20.3033 13.1662 20.3969C13.7383 20.4904 13.8845 19.6014 13.3115 19.5079ZM24.8402 28.6451C24.2682 28.5516 24.1219 29.4405 24.6949 29.5341C25.267 29.6276 25.4132 28.7387 24.8402 28.6451ZM26.9846 30.1083C26.4126 30.0149 26.2664 30.9037 26.8394 30.9973C27.4115 31.0907 27.5576 30.2019 26.9846 30.1083ZM41.857 20.0295C41.2849 19.9361 41.1387 20.8249 41.7117 20.9185C42.2837 21.012 42.43 20.1231 41.857 20.0295Z" fill="white"/>
</svg>
