<svg width="50" height="50" viewBox="0 0 50 50" fill="none" xmlns="http://www.w3.org/2000/svg">
<rect width="50" height="50" rx="12" fill="#FFEAEF"/>
<path d="M24.9241 35.4775C25.6636 34.7432 26.8635 34.7598 27.6003 35.4966L31.5877 39.484C31.5999 39.4962 31.6086 39.5116 31.6127 39.5284C31.6168 39.5451 31.6162 39.5627 31.611 39.5792C31.6059 39.5957 31.5963 39.6105 31.5833 39.6219C31.5703 39.6333 31.5545 39.6409 31.5374 39.6439L29.668 39.9781C29.6051 39.9893 29.5471 40.0196 29.5019 40.0648C29.4567 40.11 29.4265 40.1679 29.4153 40.2308L29.0811 42.1002C29.0781 42.1172 29.0705 42.133 29.0591 42.146C29.0476 42.159 29.0329 42.1686 29.0164 42.1738C28.9999 42.1789 28.9823 42.1795 28.9656 42.1754C28.9488 42.1713 28.9334 42.1626 28.9212 42.1504L24.9194 38.1486C24.1815 37.4107 24.1831 36.2134 24.9241 35.4775Z" fill="url(#paint0_linear_438_1068)"/>
<path d="M27.5059 35.4775C26.7665 34.7432 25.5666 34.7598 24.8298 35.4966L20.8424 39.484C20.8302 39.4963 20.8215 39.5116 20.8174 39.5284C20.8133 39.5451 20.8139 39.5627 20.819 39.5792C20.8242 39.5957 20.8338 39.6105 20.8468 39.6219C20.8598 39.6333 20.8756 39.6409 20.8926 39.6439L22.762 39.9781C22.8249 39.9893 22.8829 40.0196 22.9281 40.0648C22.9733 40.11 23.0035 40.1679 23.0147 40.2308L23.3489 42.1002C23.3623 42.1754 23.4547 42.2044 23.5088 42.1504L27.5106 38.1486C28.2485 37.4107 28.2469 36.2134 27.5059 35.4775Z" fill="url(#paint1_linear_438_1068)"/>
<path d="M42.1633 37.8357C43.4633 37.7812 44.51 35.3944 44.51 32.4561C44.51 29.5178 43.4633 27.131 42.1633 27.0765V27.0737H7.88138C6.56104 27.0737 5.49011 29.4834 5.49011 32.4561C5.49011 35.4288 6.56104 37.8385 7.88138 37.8385H42.1633V37.8357Z" fill="url(#paint2_linear_438_1068)"/>
<path d="M42.1633 27.0765V27.0737H10.4341C10.3045 28.0454 10.2301 28.8665 10.2301 29.1405C10.2301 29.3226 10.3776 29.4637 10.6057 29.5646L18.8796 37.8385H42.1633V37.8358C43.4634 37.7812 44.51 35.3945 44.51 32.4562C44.51 29.5178 43.4634 27.131 42.1633 27.0765Z" fill="url(#paint3_linear_438_1068)"/>
<path d="M7.88138 37.8385C6.56104 37.8385 5.49011 35.4288 5.49011 32.4561C5.49011 29.4834 6.56104 27.0737 7.88138 27.0737C9.20281 27.0737 10.2737 29.4834 10.2737 32.4561C10.2737 35.4288 9.20273 37.8385 7.88138 37.8385Z" fill="url(#paint4_linear_438_1068)"/>
<path d="M7.88138 37.8385C6.56104 37.8385 5.49011 35.4288 5.49011 32.4561C5.49011 32.1177 5.50431 31.7868 5.53062 31.4655C5.54482 31.3777 5.5612 31.2929 5.57986 31.2097C5.6028 31.1085 5.62801 31.0103 5.65532 30.9159C5.67389 30.8534 5.69364 30.7924 5.7144 30.7337C5.72532 30.7039 5.73516 30.6749 5.74608 30.6466C5.897 30.2465 6.09835 29.9445 6.32692 29.7884C6.42432 29.7215 6.52818 29.6806 6.63432 29.6702C6.65215 29.6687 6.67004 29.6679 6.68793 29.668H9.92811C10.1468 30.4816 10.2737 31.4358 10.2737 32.4562C10.2737 32.48 10.2737 32.5045 10.2726 32.5284C10.2562 35.4675 9.1918 37.8385 7.88138 37.8385Z" fill="url(#paint5_linear_438_1068)"/>
<path d="M10.2727 32.5284H7.92619C7.92619 32.5046 7.92728 32.4808 7.92728 32.4562C7.92728 30.9167 7.37266 29.668 6.68787 29.668H9.92805C10.1468 30.4816 10.2737 31.4358 10.2737 32.4562C10.2738 32.48 10.2738 32.5045 10.2727 32.5284Z" fill="url(#paint6_linear_438_1068)"/>
<path d="M27.5206 27.0765V27.0737H24.0295V27.0765C25.3296 27.131 26.3763 29.5178 26.3763 32.4561C26.3763 35.3944 25.3296 37.7812 24.0295 37.8357V37.8384H27.5206V37.8357C28.8206 37.7812 29.8673 35.3944 29.8673 32.4561C29.8672 29.5178 28.8206 27.131 27.5206 27.0765Z" fill="url(#paint7_linear_438_1068)"/>
<path d="M27.5206 27.0765V27.0737H24.0295V27.0765C25.3296 27.131 26.3763 29.5178 26.3763 32.4561C26.3763 35.3944 25.3296 37.7812 24.0295 37.8357V37.8384H27.5206V37.8357C28.8206 37.7812 29.8673 35.3944 29.8673 32.4561C29.8672 29.5178 28.8206 27.131 27.5206 27.0765Z" fill="url(#paint8_linear_438_1068)"/>
<path d="M11.4582 14.9402H38.542C39.2167 14.9402 39.7637 15.4872 39.7637 16.1619V22.8963C39.7637 24.6962 38.6614 26.3123 36.9858 26.9694C29.2809 29.9907 20.7193 29.9907 13.0144 26.9694C11.3388 26.3123 10.2366 24.6962 10.2366 22.8963V16.1619C10.2365 15.4872 10.7835 14.9402 11.4582 14.9402Z" fill="url(#paint9_linear_438_1068)"/>
<path d="M38.5419 14.9402H11.7136V26.1734C12.0972 26.5129 12.5374 26.7823 13.0143 26.9693C20.7192 29.9906 29.2808 29.9906 36.9857 26.9693C38.6614 26.3122 39.7635 24.6961 39.7635 22.8963V16.1618C39.7635 15.4872 39.2166 14.9402 38.5419 14.9402Z" fill="url(#paint10_linear_438_1068)"/>
<path d="M38.5419 14.9402H11.4581C10.7834 14.9402 10.2365 15.4872 10.2365 16.1619V16.805L22.5759 29.1443C27.4815 29.5081 32.4061 28.7647 36.9858 26.9693C38.6614 26.3122 39.7636 24.6961 39.7636 22.8963V16.1618C39.7636 15.4872 39.2166 14.9402 38.5419 14.9402Z" fill="url(#paint11_linear_438_1068)"/>
<path d="M46.4283 13.6826C46.4326 13.5448 46.3539 13.4047 46.1909 13.3604L26.7772 8.0939C25.6137 7.77827 24.3872 7.77827 23.2238 8.0939L3.81012 13.3605C3.64709 13.4047 3.56827 13.5449 3.57255 13.6827V14.7394C3.56827 14.8771 3.64701 15.0173 3.81012 15.0616L23.2237 20.3281C24.3871 20.6437 25.6137 20.6437 26.7771 20.3281L46.1908 15.0616C46.3538 15.0174 46.4326 14.8771 46.4282 14.7394V13.6826H46.4283Z" fill="url(#paint12_linear_438_1068)"/>
<path d="M23.2233 8.09384L3.80971 13.3604C3.49198 13.4466 3.49198 13.8974 3.80971 13.9836L23.2233 19.2501C24.3867 19.5657 25.6132 19.5657 26.7767 19.2501L46.1903 13.9836C46.508 13.8974 46.508 13.4466 46.1903 13.3604L26.7768 8.09384C25.6133 7.77829 24.3868 7.77829 23.2233 8.09384Z" fill="url(#paint13_linear_438_1068)"/>
<path d="M23.4115 9.30051L6.05367 14.0093C5.76955 14.0864 5.76955 14.4894 6.05367 14.5666L23.4115 19.2754C24.4518 19.5576 25.5484 19.5576 26.5886 19.2754L43.9465 14.5666C44.2306 14.4895 44.2306 14.0865 43.9465 14.0093L26.5886 9.30051C25.5484 9.01832 24.4517 9.01832 23.4115 9.30051Z" fill="url(#paint14_linear_438_1068)"/>
<path d="M25 11.0491C24.2657 11.0491 23.6576 11.5832 23.5391 12.2837L13.5155 15.003C12.4532 15.2912 11.6308 16.0893 11.2832 17.089L23.2233 20.3281C24.3868 20.6437 25.6133 20.6437 26.7767 20.3281L33.1528 18.5983L26.1485 11.594C25.8764 11.2616 25.4631 11.0491 25 11.0491Z" fill="url(#paint15_linear_438_1068)"/>
<path d="M11.6764 22.2285C11.601 22.2285 11.5264 22.2136 11.4567 22.1848C11.3871 22.156 11.3238 22.1137 11.2705 22.0604C11.2172 22.0071 11.1749 21.9438 11.1461 21.8742C11.1173 21.8045 11.1024 21.7299 11.1024 21.6545V18.1578C11.1024 16.6857 12.0948 15.3884 13.5155 15.0029L24.9173 11.9098C25.2231 11.8275 25.5385 12.0076 25.6215 12.3134C25.6614 12.4603 25.6412 12.617 25.5655 12.7491C25.4898 12.8812 25.3648 12.9778 25.2179 13.0177L13.816 16.1108C12.8941 16.3609 12.2502 17.2026 12.2502 18.1578V21.6545C12.2502 21.8067 12.1898 21.9527 12.0822 22.0604C11.9745 22.168 11.8286 22.2285 11.6764 22.2285Z" fill="url(#paint16_linear_438_1068)"/>
<path d="M26.4834 12.5324C26.4834 13.3517 23.5167 13.3517 23.5167 12.5324C23.5167 11.7132 24.1808 11.0491 25.0001 11.0491C25.8193 11.0491 26.4834 11.7132 26.4834 12.5324Z" fill="url(#paint17_linear_438_1068)"/>
<path d="M13.1972 29.1411C13.1972 29.9604 10.2306 29.9604 10.2306 29.1411C10.2306 28.3219 10.8947 22.6104 11.714 22.6104C12.5331 22.6104 13.1972 28.3219 13.1972 29.1411Z" fill="url(#paint18_linear_438_1068)"/>
<path d="M13.1968 29.1407C13.1968 29.4141 12.8649 29.5968 12.4225 29.6875C11.9864 29.7773 11.4427 29.7773 11.0054 29.6875C10.9376 29.5968 10.8979 29.4861 10.8979 29.3536C10.8979 28.5136 11.258 22.7024 11.7035 22.6116C11.7066 22.6106 11.7108 22.6106 11.7139 22.6106C11.717 22.6106 11.7212 22.6106 11.7243 22.6116C12.5394 22.6597 13.1968 28.3247 13.1968 29.1407Z" fill="url(#paint19_linear_438_1068)"/>
<path d="M12.7073 29.1407C12.7073 29.531 12.2566 29.7355 11.7828 29.7543C11.7362 29.7553 11.6896 29.7553 11.643 29.7543C10.9261 29.7418 10.2301 29.5373 10.2301 29.1407C10.2301 28.3257 10.8875 22.67 11.7015 22.6116C11.7057 22.6106 11.7098 22.6106 11.714 22.6106C11.7182 22.6106 11.7223 22.6106 11.7265 22.6116C12.2701 22.6993 12.7073 28.3278 12.7073 29.1407Z" fill="url(#paint20_linear_438_1068)"/>
<path d="M11.7137 23.6725C12.5112 23.6725 13.1577 23.026 13.1577 22.2285C13.1577 21.4309 12.5112 20.7844 11.7137 20.7844C10.9162 20.7844 10.2697 21.4309 10.2697 22.2285C10.2697 23.026 10.9162 23.6725 11.7137 23.6725Z" fill="url(#paint21_linear_438_1068)"/>
<path d="M11.7137 23.4335C12.3792 23.4335 12.9188 22.8939 12.9188 22.2283C12.9188 21.5627 12.3792 21.0232 11.7137 21.0232C11.0481 21.0232 10.5085 21.5627 10.5085 22.2283C10.5085 22.8939 11.0481 23.4335 11.7137 23.4335Z" fill="url(#paint22_linear_438_1068)"/>
<path d="M12.3596 20.9368C12.4601 21.1373 12.5122 21.3585 12.5119 21.5827C12.5119 22.3802 11.8654 23.0268 11.0678 23.0268C10.8357 23.0268 10.6162 22.9719 10.4219 22.8745C10.6589 23.3477 11.1483 23.6726 11.7136 23.6726C12.5111 23.6726 13.1577 23.0261 13.1577 22.2285C13.1577 21.6632 12.8328 21.1739 12.3596 20.9368Z" fill="url(#paint23_linear_438_1068)"/>
<defs>
<linearGradient id="paint0_linear_438_1068" x1="29.6822" y1="39.9534" x2="27.4693" y2="38.1831" gradientUnits="userSpaceOnUse">
<stop stop-color="#FF7044"/>
<stop offset="1" stop-color="#F92814"/>
</linearGradient>
<linearGradient id="paint1_linear_438_1068" x1="24.7213" y1="36.0888" x2="23.79" y2="43.2128" gradientUnits="userSpaceOnUse">
<stop stop-color="#FF7044"/>
<stop offset="1" stop-color="#F92814"/>
</linearGradient>
<linearGradient id="paint2_linear_438_1068" x1="25" y1="29.62" x2="25" y2="37.1758" gradientUnits="userSpaceOnUse">
<stop stop-color="#F9F7FC"/>
<stop offset="1" stop-color="#F0DDFC"/>
</linearGradient>
<linearGradient id="paint3_linear_438_1068" x1="27.9785" y1="33.3027" x2="25.6255" y2="21.454" gradientUnits="userSpaceOnUse">
<stop stop-color="#F0DDFC" stop-opacity="0"/>
<stop offset="0.289" stop-color="#C8B7E0" stop-opacity="0.289"/>
<stop offset="0.592" stop-color="#A595C8" stop-opacity="0.592"/>
<stop offset="0.84" stop-color="#8F81B8" stop-opacity="0.84"/>
<stop offset="1" stop-color="#8779B3"/>
</linearGradient>
<linearGradient id="paint4_linear_438_1068" x1="3.57834" y1="32.4561" x2="11.8921" y2="32.4561" gradientUnits="userSpaceOnUse">
<stop stop-color="#F0DDFC" stop-opacity="0"/>
<stop offset="0.289" stop-color="#C8B7E0" stop-opacity="0.289"/>
<stop offset="0.592" stop-color="#A595C8" stop-opacity="0.592"/>
<stop offset="0.84" stop-color="#8F81B8" stop-opacity="0.84"/>
<stop offset="1" stop-color="#8779B3"/>
</linearGradient>
<linearGradient id="paint5_linear_438_1068" x1="4.37977" y1="36.7808" x2="12.1092" y2="29.0514" gradientUnits="userSpaceOnUse">
<stop stop-color="#F0DDFC" stop-opacity="0"/>
<stop offset="0.289" stop-color="#C8B7E0" stop-opacity="0.289"/>
<stop offset="0.592" stop-color="#A595C8" stop-opacity="0.592"/>
<stop offset="0.84" stop-color="#8F81B8" stop-opacity="0.84"/>
<stop offset="1" stop-color="#8779B3"/>
</linearGradient>
<linearGradient id="paint6_linear_438_1068" x1="8.40569" y1="30.6775" x2="14.6704" y2="35.7317" gradientUnits="userSpaceOnUse">
<stop stop-color="#F9F7FC"/>
<stop offset="1" stop-color="#F0DDFC"/>
</linearGradient>
<linearGradient id="paint7_linear_438_1068" x1="26.9484" y1="32.6063" x2="26.9484" y2="37.7728" gradientUnits="userSpaceOnUse">
<stop stop-color="#FF7044"/>
<stop offset="1" stop-color="#F92814"/>
</linearGradient>
<linearGradient id="paint8_linear_438_1068" x1="26.9484" y1="31.2901" x2="26.9484" y2="28.0011" gradientUnits="userSpaceOnUse">
<stop stop-color="#F92814" stop-opacity="0"/>
<stop offset="1" stop-color="#C1272D"/>
</linearGradient>
<linearGradient id="paint9_linear_438_1068" x1="17.8101" y1="22.0877" x2="37.7168" y2="22.0877" gradientUnits="userSpaceOnUse">
<stop stop-color="#7E8595"/>
<stop offset="1" stop-color="#555A66"/>
</linearGradient>
<linearGradient id="paint10_linear_438_1068" x1="16.3697" y1="22.0877" x2="11.7331" y2="22.0877" gradientUnits="userSpaceOnUse">
<stop stop-color="#555A66" stop-opacity="0"/>
<stop offset="1" stop-color="#555A66"/>
</linearGradient>
<linearGradient id="paint11_linear_438_1068" x1="27.3306" y1="28.1229" x2="23.5188" y2="8.9863" gradientUnits="userSpaceOnUse">
<stop stop-color="#555A66" stop-opacity="0"/>
<stop offset="1" stop-color="#555A66"/>
</linearGradient>
<linearGradient id="paint12_linear_438_1068" x1="25.0004" y1="10.9023" x2="25.0004" y2="19.6478" gradientUnits="userSpaceOnUse">
<stop stop-color="#7E8595"/>
<stop offset="1" stop-color="#555A66"/>
</linearGradient>
<linearGradient id="paint13_linear_438_1068" x1="20.1854" y1="7.12005" x2="30.382" y2="20.9959" gradientUnits="userSpaceOnUse">
<stop stop-color="#7E8595"/>
<stop offset="1" stop-color="#555A66"/>
</linearGradient>
<linearGradient id="paint14_linear_438_1068" x1="24.968" y1="13.9627" x2="22.8589" y2="-7.43836" gradientUnits="userSpaceOnUse">
<stop stop-color="#BEC3D2" stop-opacity="0"/>
<stop offset="0.558" stop-color="#D4D9E4" stop-opacity="0.558"/>
<stop offset="1" stop-color="#E9EDF5"/>
</linearGradient>
<linearGradient id="paint15_linear_438_1068" x1="22.1053" y1="17.5509" x2="20.0654" y2="12.2471" gradientUnits="userSpaceOnUse">
<stop stop-color="#555A66" stop-opacity="0"/>
<stop offset="1" stop-color="#555A66"/>
</linearGradient>
<linearGradient id="paint16_linear_438_1068" x1="15.5582" y1="13.2301" x2="18.867" y2="17.7327" gradientUnits="userSpaceOnUse">
<stop stop-color="#FFDA45"/>
<stop offset="1" stop-color="#FFA425"/>
</linearGradient>
<linearGradient id="paint17_linear_438_1068" x1="24.1764" y1="11.4724" x2="25.7272" y2="13.0232" gradientUnits="userSpaceOnUse">
<stop stop-color="#7E8595"/>
<stop offset="1" stop-color="#555A66"/>
</linearGradient>
<linearGradient id="paint18_linear_438_1068" x1="10.9253" y1="26.2015" x2="15.0197" y2="26.1074" gradientUnits="userSpaceOnUse">
<stop stop-color="#FFDA45"/>
<stop offset="1" stop-color="#FFA425"/>
</linearGradient>
<linearGradient id="paint19_linear_438_1068" x1="12.4932" y1="25.9819" x2="9.73492" y2="27.2484" gradientUnits="userSpaceOnUse">
<stop stop-color="#FFDA45" stop-opacity="0"/>
<stop offset="1" stop-color="#FCEE21"/>
</linearGradient>
<linearGradient id="paint20_linear_438_1068" x1="10.8566" y1="26.5702" x2="15.6653" y2="24.7014" gradientUnits="userSpaceOnUse">
<stop stop-color="#FFDA45" stop-opacity="0"/>
<stop offset="1" stop-color="#B53759"/>
</linearGradient>
<linearGradient id="paint21_linear_438_1068" x1="11.1734" y1="21.6882" x2="13.0436" y2="23.5584" gradientUnits="userSpaceOnUse">
<stop stop-color="#FF7044"/>
<stop offset="1" stop-color="#F92814"/>
</linearGradient>
<linearGradient id="paint22_linear_438_1068" x1="11.8575" y1="22.3722" x2="10.5507" y2="21.0654" gradientUnits="userSpaceOnUse">
<stop stop-color="#FF7044" stop-opacity="0"/>
<stop offset="1" stop-color="#FFA425"/>
</linearGradient>
<linearGradient id="paint23_linear_438_1068" x1="11.7638" y1="22.782" x2="13.7487" y2="19.0903" gradientUnits="userSpaceOnUse">
<stop stop-color="#F92814" stop-opacity="0"/>
<stop offset="1" stop-color="#C1272D"/>
</linearGradient>
</defs>
</svg>
