<svg version="1.1" xmlns="http://www.w3.org/2000/svg" xmlns:xlink="http://www.w3.org/1999/xlink">
    <symbol width="100vw" id="wave_top" viewBox="0 0 1920 110">
        <path opacity="0.25" d="M1920 110V63.7055C1843.54 41.5033 1754.26 31.5323 1667.2 35.7027C1554.62 41.0732 1449.07 69.016 1336.32 73.2064C1218.18 77.5668 1100.26 56.3247 987.2 37.9429C876.368 19.9412 765.92 13.0605 652.16 24.8617C594.32 30.8622 540.4 42.7034 485.04 54.2045C336.816 84.9975 139.2 124.291 -2.86102e-05 57.5249V110H1920Z" fill="#FF7497" fill-opacity="0.5"/>
        <path opacity="0.5" d="M1920 110V94.1884C1899.2 73.0764 1875.78 53.1344 1843.7 37.9429C1760.94 -1.28092 1656 -1.01089 1560.67 18.411C1510.83 28.562 1464.53 44.4836 1417.2 58.2149C1351.73 77.2168 1281.63 104.219 1207.87 107.89C1149.86 110.74 1094.43 98.4689 1050.11 76.3267C999.28 50.9342 950.4 14.3206 884.304 3.31954C819.6 -7.47152 754.144 10.0102 693.696 27.6019C633.248 45.1936 573.44 66.6057 506.624 70.6561C411.056 76.5067 325.376 47.7739 236.384 31.8123C188.064 23.1515 141.984 25.6417 97.04 39.3131C61.152 50.2041 20.24 66.2457 -1.72853e-05 88.5579V110H1920Z" fill="#FF7497" fill-opacity="0.22"/>
        <path d="M1920 110V104.369C1680.11 50.9942 1417.46 38.673 1158.67 67.4258C1089.87 75.0666 1023.9 87.5478 954.496 93.8884C860.096 102.519 774.528 81.6472 689.6 58.4849C595.312 32.7724 502.4 14.7507 398.08 19.9912C259.632 26.9919 122.144 65.7057 -2.86102e-05 104.809V110H1920Z" fill="#FFF3F6"/>
    </symbol>


    <symbol id="wave_bottom" viewBox="0 0 1920 110">
        <path opacity="0.25" d="M0 0V46.2945C76.464 68.4967 165.744 78.4677 252.8 74.2973C365.376 68.9268 470.928 40.984 583.68 36.7936C701.824 32.4332 819.744 53.6753 932.8 72.0571C1043.63 90.0588 1154.08 96.9395 1267.84 85.1383C1325.68 79.1378 1379.6 67.2966 1434.96 55.7955C1583.18 25.0025 1780.8 -14.2914 1920 52.4751V0H0Z" fill="#FF7497" fill-opacity="0.5"/>
        <path opacity="0.5" d="M0 0V15.8116C20.8 36.9236 44.224 56.8656 76.304 72.0571C159.056 111.281 264 111.011 359.328 91.589C409.168 81.438 455.472 65.5164 502.8 51.7851C568.272 32.7832 638.368 5.78057 712.128 2.11021C770.144 -0.740073 825.568 11.5311 869.888 33.6733C920.72 59.0658 969.6 95.6794 1035.7 106.68C1100.4 117.472 1165.86 99.9898 1226.3 82.3981C1286.75 64.8064 1346.56 43.3943 1413.38 39.3439C1508.94 33.4933 1594.62 62.2261 1683.62 78.1877C1731.94 86.8485 1778.02 84.3583 1822.96 70.6869C1858.85 59.7959 1899.76 43.7543 1920 21.4421V0H0Z" fill="#FF7497" fill-opacity="0.22"/>
        <path d="M0 0V5.63055C239.888 59.0058 502.544 71.327 761.328 42.5742C830.128 34.9334 896.096 22.4522 965.504 16.1116C1059.9 7.48073 1145.47 28.3528 1230.4 51.5151C1324.69 77.2276 1417.6 95.2493 1521.92 90.0088C1660.37 83.0081 1797.86 44.2943 1920 5.19051V0H0Z" fill="#FFF3F6"/>
    </symbol>
</svg>