<svg width="1200" height="68" viewBox="0 0 1200 68" fill="none" xmlns="http://www.w3.org/2000/svg">
<path d="M4.17605e-08 66.6075L6.74469e-09 10.7577C31.3745 9.71677 62.749 8.67585 100 10.1302C137.251 11.5845 180.379 15.5341 214.167 12.8495C247.955 10.1648 272.404 0.846047 310 0.717277C347.596 0.588507 398.34 9.64976 438.333 11.3852C478.327 13.1207 507.569 7.53037 546.667 8.24759C585.764 8.96482 634.716 15.9896 668.333 14.9412C701.951 13.8928 720.233 4.77126 753.333 3.22738C786.434 1.68351 834.354 7.71732 879.167 6.78337C923.98 5.84941 965.687 -2.05232 1000 0.508101C1034.31 3.06853 1061.23 16.0911 1093.33 19.5431C1125.43 22.995 1162.72 16.8764 1200 10.7577L1200 66.6075L4.17605e-08 66.6075Z" fill="#25282E" fill-opacity="0.15"/>
<path d="M2.35496e-08 67.8189L5.78486e-09 39.4844C37.6415 41.7467 75.2831 44.0091 112.5 41.3874C149.717 38.7658 186.509 31.2602 218.333 30.8148C250.157 30.3695 277.013 36.9844 310 42.6561C342.987 48.3279 382.104 53.0564 424.167 49.6341C466.23 46.2117 511.239 34.6384 554.167 34.4095C597.094 34.1806 637.941 45.2961 669.167 45.6165C700.392 45.9368 721.997 35.4621 757.5 31.8721C793.003 28.2821 842.403 31.5769 879.167 33.1408C915.931 34.7047 940.058 34.5378 978.333 38.0042C1016.61 41.4706 1069.03 48.5704 1108.33 49.4226C1147.64 50.2749 1173.82 44.8796 1200 39.4844L1200 67.8189L2.35496e-08 67.8189Z" fill="#25282E"/>
</svg>
