<svg width="1920" height="66" viewBox="0 0 1920 66" fill="none" xmlns="http://www.w3.org/2000/svg">
<path d="M0 65.7913L0 10.6259C50.1992 9.59769 100.398 8.56952 160 10.006C219.602 11.4425 288.606 15.3437 342.667 12.692C396.728 10.0403 435.846 0.835679 496 0.708487C556.154 0.581294 637.344 9.5315 701.333 11.2457C765.323 12.9599 812.111 7.43808 874.667 8.14652C937.223 8.85495 1015.55 15.7936 1069.33 14.7581C1123.12 13.7226 1152.37 4.71278 1205.33 3.18783C1258.29 1.66288 1334.97 7.62275 1406.67 6.70023C1478.37 5.77772 1545.1 -2.02717 1600 0.501875C1654.9 3.03092 1697.97 15.8939 1749.33 19.3036C1800.69 22.7132 1860.35 16.6695 1920 10.6259V65.7913L0 65.7913Z" fill="#FFF3F6" fill-opacity="0.4"/>
<path d="M0 66L0 38.0127C60.2265 40.2473 120.453 42.4819 180 39.8924C239.547 37.3029 298.415 29.8893 349.333 29.4494C400.252 29.0095 443.222 35.5433 496 41.1456C548.778 46.7478 611.366 51.4184 678.667 48.038C745.968 44.6576 817.982 33.2261 886.667 33C955.351 32.7739 1020.71 43.7532 1070.67 44.0696C1120.63 44.3861 1155.2 34.0397 1212 30.4937C1268.8 26.9477 1347.84 30.2021 1406.67 31.7468C1465.49 33.2916 1504.09 33.1267 1565.33 36.5506C1626.57 39.9746 1710.45 46.9873 1773.33 47.8291C1836.22 48.6709 1878.11 43.3418 1920 38.0127V66L0 66Z" fill="#FFF3F6"/>
</svg>
