<svg width="1920" height="66" viewBox="0 0 1920 66" fill="none" xmlns="http://www.w3.org/2000/svg">
<path d="M1920 0.20881V55.3741C1869.8 56.4023 1819.6 57.4305 1760 55.994C1700.4 54.5575 1631.39 50.6563 1577.33 53.308C1523.27 55.9597 1484.15 65.1643 1424 65.2915C1363.85 65.4187 1282.66 56.4685 1218.67 54.7543C1154.68 53.0401 1107.89 58.5619 1045.33 57.8535C982.777 57.1451 904.454 50.2064 850.667 51.2419C796.879 52.2775 767.628 61.2872 714.667 62.8122C661.705 64.3371 585.034 58.3773 513.333 59.2998C441.632 60.2223 374.901 68.0272 320 65.4981C265.099 62.9691 222.028 50.1061 170.667 46.6965C119.305 43.2868 59.6525 49.3305 0 55.3741V0.20881L1920 0.20881Z" fill="#FFF3F6" fill-opacity="0.4"/>
<path d="M1920 1.94295e-05V27.9873C1859.77 25.7527 1799.55 23.5181 1740 26.1076C1680.45 28.6971 1621.59 36.1107 1570.67 36.5506C1519.75 36.9905 1476.78 30.4567 1424 24.8544C1371.22 19.2522 1308.63 14.5816 1241.33 17.962C1174.03 21.3425 1102.02 32.7739 1033.33 33C964.649 33.2261 899.294 22.2468 849.333 21.9304C799.372 21.6139 764.804 31.9603 708 35.5063C651.196 39.0523 572.156 35.7979 513.333 34.2532C454.511 32.7084 415.907 32.8733 354.667 29.4494C293.426 26.0254 209.55 19.0127 146.667 18.1709C83.7828 17.3291 41.8914 22.6582 -5.72205e-05 27.9873V1.94295e-05L1920 1.94295e-05Z" fill="#FFF3F6"/>
</svg>
