<svg width="1920" height="117" viewBox="0 0 1920 117" fill="none" xmlns="http://www.w3.org/2000/svg">
<path d="M0 114.692L0 18.5238C50.1992 16.7315 100.398 14.9391 160 17.4433C219.602 19.9475 288.606 26.7483 342.667 22.1257C396.728 17.503 435.846 1.45682 496 1.23509C556.154 1.01336 637.344 16.6161 701.333 19.6044C765.323 22.5927 812.111 12.9666 874.667 14.2016C937.223 15.4367 1015.55 27.5327 1069.33 25.7275C1123.12 23.9222 1152.37 8.21569 1205.33 5.55728C1258.29 2.89886 1334.97 13.2886 1406.67 11.6804C1478.37 10.0722 1545.1 -3.53393 1600 0.874907C1654.9 5.28374 1697.97 27.7075 1749.33 33.6515C1800.69 39.5955 1860.35 29.0596 1920 18.5238V114.692L0 114.692Z" fill="#FFF3F6" fill-opacity="0.4"/>
<path d="M0 116.056L0 67.2666C60.2265 71.1622 120.453 75.0578 180 70.5436C239.547 66.0293 298.415 53.1053 349.333 52.3384C400.252 51.5716 443.222 62.9619 496 72.7282C548.778 82.4944 611.366 90.6366 678.667 84.7436C745.968 78.8505 817.982 58.9223 886.667 58.5282C955.351 58.134 1020.71 77.274 1070.67 77.8256C1120.63 78.3773 1155.2 60.3406 1212 54.1589C1268.8 47.9773 1347.84 53.6506 1406.67 56.3436C1465.49 59.0365 1504.09 58.7491 1565.33 64.7179C1626.57 70.6868 1710.45 82.912 1773.33 84.3795C1836.22 85.847 1878.11 76.5568 1920 67.2666V116.056L0 116.056Z" fill="#FFF3F6"/>
</svg>
