<svg width="50" height="50" viewBox="0 0 50 50" fill="none" xmlns="http://www.w3.org/2000/svg">
<rect width="50" height="50" rx="11" fill="#FFF3F6"/>
<path d="M43.75 17.1875C43.75 16.7731 43.5854 16.3757 43.2924 16.0826C42.9993 15.7896 42.6019 15.625 42.1875 15.625H7.8125C7.3981 15.625 7.00067 15.7896 6.70765 16.0826C6.41462 16.3757 6.25 16.7731 6.25 17.1875V23.4375C6.25 23.8519 6.41462 24.2493 6.70765 24.5424C7.00067 24.8354 7.3981 25 7.8125 25H42.1875C42.6019 25 42.9993 24.8354 43.2924 24.5424C43.5854 24.2493 43.75 23.8519 43.75 23.4375V17.1875Z" fill="#FF3D65"/>
<path d="M40.625 25H9.375V45.3125C9.375 45.7269 9.53962 46.1243 9.83265 46.4174C10.1257 46.7104 10.5231 46.875 10.9375 46.875H39.0625C39.4769 46.875 39.8743 46.7104 40.1674 46.4174C40.4604 46.1243 40.625 45.7269 40.625 45.3125V25Z" fill="#E6375A"/>
<path d="M21.875 25H28.125V46.875H21.875V25Z" fill="#E6A327"/>
<path d="M20.3125 15.625H29.6875V25H20.3125V15.625Z" fill="#FEB62C"/>
<path d="M43.75 31.25C43.75 30.8356 43.5854 30.4382 43.2924 30.1451C42.9993 29.8521 42.6019 29.6875 42.1875 29.6875H7.8125C7.3981 29.6875 7.00067 29.8521 6.70765 30.1451C6.41462 30.4382 6.25 30.8356 6.25 31.25V40.625C6.25 41.0394 6.41462 41.4368 6.70765 41.7299C7.00067 42.0229 7.3981 42.1875 7.8125 42.1875H42.1875C42.6019 42.1875 42.9993 42.0229 43.2924 41.7299C43.5854 41.4368 43.75 41.0394 43.75 40.625V31.25Z" fill="#4BBA6C"/>
<path d="M13.2813 34.0625V39.0625C13.2813 39.2697 13.3636 39.4684 13.5101 39.6149C13.6566 39.7614 13.8553 39.8438 14.0625 39.8438C14.2697 39.8438 14.4684 39.7614 14.6149 39.6149C14.7614 39.4684 14.8438 39.2697 14.8438 39.0625V36.7188H17.1875C17.3947 36.7188 17.5934 36.6364 17.7399 36.4899C17.8864 36.3434 17.9688 36.1447 17.9688 35.9375C17.9688 35.7303 17.8864 35.5316 17.7399 35.3851C17.5934 35.2386 17.3947 35.1562 17.1875 35.1562H14.8438V34.0625C14.8434 34.0009 14.8554 33.9398 14.8788 33.8827C14.9022 33.8257 14.9368 33.7739 14.9804 33.7304C15.0239 33.6868 15.0757 33.6522 15.1328 33.6288C15.1898 33.6054 15.2509 33.5934 15.3125 33.5938H17.1875C17.3947 33.5938 17.5934 33.5114 17.7399 33.3649C17.8864 33.2184 17.9688 33.0197 17.9688 32.8125C17.9688 32.6053 17.8864 32.4066 17.7399 32.2601C17.5934 32.1136 17.3947 32.0313 17.1875 32.0313H15.3125C14.7734 32.0313 14.257 32.2453 13.8766 32.6266C13.6878 32.815 13.538 33.0388 13.4359 33.2852C13.3337 33.5316 13.2812 33.7958 13.2813 34.0625ZM19.5312 32.8125V39.0625C19.5312 39.2697 19.6136 39.4684 19.7601 39.6149C19.9066 39.7614 20.1053 39.8438 20.3125 39.8438C20.5197 39.8438 20.7184 39.7614 20.8649 39.6149C21.0114 39.4684 21.0938 39.2697 21.0938 39.0625V36.7188H22.1875C22.2491 36.7184 22.3102 36.7304 22.3672 36.7538C22.4243 36.7772 22.4761 36.8118 22.5196 36.8554C22.5632 36.8989 22.5978 36.9507 22.6212 37.0077C22.6446 37.0648 22.6566 37.1259 22.6562 37.1875V39.0625C22.6562 39.2697 22.7386 39.4684 22.8851 39.6149C23.0316 39.7614 23.2303 39.8438 23.4375 39.8438C23.6447 39.8438 23.8434 39.7614 23.9899 39.6149C24.1364 39.4684 24.2188 39.2697 24.2188 39.0625V37.1875C24.2187 36.7345 24.0671 36.2945 23.7883 35.9375C24.0671 35.5805 24.2187 35.1405 24.2188 34.6875V34.0625C24.2188 33.5234 24.0047 33.007 23.6234 32.6266C23.435 32.4378 23.2112 32.288 22.9648 32.1859C22.7184 32.0837 22.4542 32.0312 22.1875 32.0313H20.3125C20.1053 32.0313 19.9066 32.1136 19.7601 32.2601C19.6136 32.4066 19.5312 32.6053 19.5312 32.8125ZM21.0938 35.1562V33.5938H22.1875C22.2491 33.5934 22.3102 33.6054 22.3672 33.6288C22.4243 33.6522 22.4761 33.6868 22.5196 33.7304C22.5632 33.7739 22.5978 33.8257 22.6212 33.8827C22.6446 33.9398 22.6566 34.0009 22.6562 34.0625V34.6875C22.6566 34.7491 22.6446 34.8102 22.6212 34.8673C22.5978 34.9243 22.5632 34.9761 22.5196 35.0196C22.4761 35.0632 22.4243 35.0978 22.3672 35.1212C22.3102 35.1446 22.2491 35.1566 22.1875 35.1562H21.0938ZM25.7812 34.0625V37.8125C25.7812 38.3516 25.9953 38.868 26.3766 39.2484C26.565 39.4372 26.7888 39.587 27.0352 39.6891C27.2816 39.7913 27.5458 39.8438 27.8125 39.8438H29.6875C29.8947 39.8438 30.0934 39.7614 30.2399 39.6149C30.3864 39.4684 30.4688 39.2697 30.4688 39.0625C30.4688 38.8553 30.3864 38.6566 30.2399 38.5101C30.0934 38.3636 29.8947 38.2812 29.6875 38.2812H27.8125C27.7509 38.2816 27.6898 38.2696 27.6327 38.2462C27.5757 38.2228 27.5239 38.1882 27.4804 38.1446C27.4368 38.1011 27.4022 38.0493 27.3788 37.9923C27.3554 37.9352 27.3434 37.8741 27.3438 37.8125V36.7188H29.6875C29.8947 36.7188 30.0934 36.6364 30.2399 36.4899C30.3864 36.3434 30.4688 36.1447 30.4688 35.9375C30.4688 35.7303 30.3864 35.5316 30.2399 35.3851C30.0934 35.2386 29.8947 35.1562 29.6875 35.1562H27.3438V34.0625C27.3434 34.0009 27.3554 33.9398 27.3788 33.8827C27.4022 33.8257 27.4368 33.7739 27.4804 33.7304C27.5239 33.6868 27.5757 33.6522 27.6327 33.6288C27.6898 33.6054 27.7509 33.5934 27.8125 33.5938H29.6875C29.8947 33.5938 30.0934 33.5114 30.2399 33.3649C30.3864 33.2184 30.4688 33.0197 30.4688 32.8125C30.4688 32.6053 30.3864 32.4066 30.2399 32.2601C30.0934 32.1136 29.8947 32.0313 29.6875 32.0313H27.8125C27.2734 32.0313 26.757 32.2453 26.3766 32.6266C26.1878 32.815 26.038 33.0388 25.9359 33.2852C25.8337 33.5316 25.7812 33.7958 25.7812 34.0625ZM32.0312 34.0625V37.8125C32.0312 38.3516 32.2453 38.868 32.6266 39.2484C32.815 39.4372 33.0388 39.587 33.2852 39.6891C33.5316 39.7913 33.7958 39.8438 34.0625 39.8438H35.9375C36.1447 39.8438 36.3434 39.7614 36.4899 39.6149C36.6364 39.4684 36.7188 39.2697 36.7188 39.0625C36.7188 38.8553 36.6364 38.6566 36.4899 38.5101C36.3434 38.3636 36.1447 38.2812 35.9375 38.2812H34.0625C34.0009 38.2816 33.9398 38.2696 33.8827 38.2462C33.8257 38.2228 33.7739 38.1882 33.7304 38.1446C33.6868 38.1011 33.6522 38.0493 33.6288 37.9923C33.6054 37.9352 33.5934 37.8741 33.5938 37.8125V36.7188H35.9375C36.1447 36.7188 36.3434 36.6364 36.4899 36.4899C36.6364 36.3434 36.7188 36.1447 36.7188 35.9375C36.7188 35.7303 36.6364 35.5316 36.4899 35.3851C36.3434 35.2386 36.1447 35.1562 35.9375 35.1562H33.5938V34.0625C33.5934 34.0009 33.6054 33.9398 33.6288 33.8827C33.6522 33.8257 33.6868 33.7739 33.7304 33.7304C33.7739 33.6868 33.8257 33.6522 33.8827 33.6288C33.9398 33.6054 34.0009 33.5934 34.0625 33.5938H35.9375C36.1447 33.5938 36.3434 33.5114 36.4899 33.3649C36.6364 33.2184 36.7188 33.0197 36.7188 32.8125C36.7188 32.6053 36.6364 32.4066 36.4899 32.2601C36.3434 32.1136 36.1447 32.0313 35.9375 32.0313H34.0625C33.5234 32.0313 33.007 32.2453 32.6266 32.6266C32.4378 32.815 32.288 33.0388 32.1859 33.2852C32.0837 33.5316 32.0312 33.7958 32.0312 34.0625Z" fill="#F8F4F0"/>
<path d="M18.75 15.625C15.3008 15.625 12.5 12.8242 12.5 9.375C12.5 5.92578 15.3008 3.125 18.75 3.125C22.1992 3.125 25 5.92578 25 9.375C25 5.92578 27.8008 3.125 31.25 3.125C34.6992 3.125 37.5 5.92578 37.5 9.375C37.5 12.8242 34.6992 15.625 31.25 15.625H18.75Z" fill="#FEB62C"/>
<path d="M18.75 6.25C20.475 6.25 21.875 7.65 21.875 9.375V12.5H18.75C17.025 12.5 15.625 11.1 15.625 9.375C15.625 7.65 17.025 6.25 18.75 6.25ZM31.25 6.25C29.525 6.25 28.125 7.65 28.125 9.375V12.5H31.25C32.975 12.5 34.375 11.1 34.375 9.375C34.375 7.65 32.975 6.25 31.25 6.25Z" fill="#F8F4F0"/>
</svg>
