<svg width="50" height="50" viewBox="0 0 50 50" fill="none" xmlns="http://www.w3.org/2000/svg">
<mask id="mask0_47_60" style="mask-type:luminance" maskUnits="userSpaceOnUse" x="0" y="0" width="50" height="50">
<path d="M49.25 49.25V0.75H0.75V49.25H49.25Z" fill="white" stroke="white" stroke-width="1.5"/>
</mask>
<g mask="url(#mask0_47_60)">
<path d="M19.9496 36.3864L20.452 34.6565L19.9637 26.7627L17.039 21.7658C16.9317 21.6035 16.8494 21.4261 16.7946 21.2394L15.0728 15.389C14.7694 14.3566 15.3604 13.2736 16.3929 12.9702C17.4253 12.6668 18.5083 13.2578 18.8117 14.2902L20.4689 19.9214L23.3176 24.7883H26.6822L29.5308 19.9214L31.1881 14.2902C31.4914 13.2578 32.5744 12.6668 33.6069 12.9702C34.6394 13.2736 35.2304 14.3566 34.927 15.389L33.2051 21.2394C33.1505 21.4261 33.0681 21.6036 32.9607 21.7658L30.0362 26.7627L29.5479 34.6565L33.004 46.5589C33.2863 47.5998 32.6714 48.6725 31.6306 48.9549C30.5896 49.2372 29.517 48.6222 29.2346 47.5813L25.3895 36.0444H24.6103L20.7652 47.5813C20.4828 48.6222 19.4102 49.2372 18.3692 48.9549C17.3284 48.6725 16.7135 47.5998 16.9958 46.5589L17.4981 44.8287" stroke="#F2184F" stroke-width="1.5" stroke-miterlimit="22.926" stroke-linecap="round" stroke-linejoin="round"/>
<path d="M24.9999 24.3257C26.7211 24.3257 28.1249 22.9219 28.1249 21.2007C28.1249 19.4795 26.7211 18.0757 24.9999 18.0757C23.2787 18.0757 21.8749 19.4795 21.8749 21.2007C21.8749 22.9219 23.2787 24.3257 24.9999 24.3257Z" stroke="#F2184F" stroke-width="1.5" stroke-miterlimit="22.926" stroke-linecap="round" stroke-linejoin="round"/>
<path d="M20.3032 20.0185L17.2759 21.7904" stroke="#F2184F" stroke-width="1.5" stroke-miterlimit="22.926" stroke-linecap="round" stroke-linejoin="round"/>
<path d="M29.73 20.0378L32.6906 21.7708" stroke="#F2184F" stroke-width="1.5" stroke-miterlimit="22.926" stroke-linecap="round" stroke-linejoin="round"/>
<path d="M24.9998 0.976368L26.8206 4.48867L30.7237 5.13496L27.9459 7.95205L28.5374 11.8638L24.9998 10.0925L21.4623 11.8638L22.0537 7.95205L19.276 5.13496L23.179 4.48867L24.9998 0.976368Z" stroke="#F2184F" stroke-width="1.5" stroke-miterlimit="22.926" stroke-linecap="round" stroke-linejoin="round"/>
<path d="M4.37722 18.393L7.31326 19.3243L9.81804 17.5313L9.83962 20.6115L12.3188 22.4395L9.39607 23.4118L8.42371 26.3346L6.59568 23.8554L3.5155 23.8338L5.30847 21.3291L4.37722 18.393Z" stroke="#F2184F" stroke-width="1.5" stroke-miterlimit="22.926" stroke-linecap="round" stroke-linejoin="round"/>
<path d="M45.6225 18.393L42.6865 19.3243L40.1818 17.5313L40.1601 20.6115L37.681 22.4395L40.6037 23.4118L41.576 26.3346L43.4041 23.8554L46.4843 23.8338L44.6913 21.3291L45.6225 18.393Z" stroke="#F2184F" stroke-width="1.5" stroke-miterlimit="22.926" stroke-linecap="round" stroke-linejoin="round"/>
<path d="M10.1633 7.57043H10.164" stroke="#F2184F" stroke-width="1.5" stroke-miterlimit="22.926" stroke-linecap="round" stroke-linejoin="round"/>
<path d="M41.0227 9.91406H41.0235" stroke="#F2184F" stroke-width="1.5" stroke-miterlimit="22.926" stroke-linecap="round" stroke-linejoin="round"/>
<path d="M13.679 29.8359H13.6796" stroke="#F2184F" stroke-width="1.5" stroke-miterlimit="22.926" stroke-linecap="round" stroke-linejoin="round"/>
<path d="M9.96802 39.9923H9.9688" stroke="#F2184F" stroke-width="1.5" stroke-miterlimit="22.926" stroke-linecap="round" stroke-linejoin="round"/>
<path d="M36.7258 33.3516H36.7266" stroke="#F2184F" stroke-width="1.5" stroke-miterlimit="22.926" stroke-linecap="round" stroke-linejoin="round"/>
<path d="M41.218 44.0939H41.2188" stroke="#F2184F" stroke-width="1.5" stroke-miterlimit="22.926" stroke-linecap="round" stroke-linejoin="round"/>
<path d="M18.7238 40.6077H18.7244" stroke="#F2184F" stroke-width="1.5" stroke-miterlimit="2.613" stroke-linecap="round" stroke-linejoin="round"/>
</g>
</svg>
