<svg width="50" height="50" viewBox="0 0 50 50" fill="none" xmlns="http://www.w3.org/2000/svg">
<path d="M12.0968 0C9.70426 0 7.36548 0.709463 5.37617 2.03867C3.38687 3.36788 1.83639 5.25714 0.920817 7.46754C0.00524146 9.67793 -0.234315 12.1102 0.232442 14.4567C0.699198 16.8033 1.8513 18.9587 3.54307 20.6505C5.23483 22.3422 7.39027 23.4944 9.73681 23.9611C12.0834 24.4279 14.5156 24.1883 16.726 23.2727C18.9364 22.3572 20.8257 20.8067 22.1549 18.8174C23.4841 16.8281 24.1936 14.4893 24.1936 12.0968C24.1936 8.88851 22.9191 5.81165 20.6505 3.54306C18.3819 1.27448 15.305 0 12.0968 0ZM12.0968 22.5806C10.0233 22.5806 7.99632 21.9658 6.27225 20.8138C4.54819 19.6618 3.20444 18.0245 2.41095 16.1088C1.61745 14.1931 1.40983 12.0851 1.81435 10.0515C2.21888 8.0178 3.21737 6.14975 4.68356 4.68356C6.14976 3.21736 8.01781 2.21887 10.0515 1.81435C12.0851 1.40983 14.1931 1.61744 16.1088 2.41094C18.0245 3.20444 19.6618 4.54818 20.8138 6.27225C21.9658 7.99631 22.5806 10.0233 22.5806 12.0968C22.5806 14.8773 21.4761 17.5439 19.51 19.51C17.5439 21.4761 14.8773 22.5806 12.0968 22.5806Z" fill="#F2184F"/>
<path d="M17.0484 9.56454H16.1291L16.6533 7.45971C16.7826 6.97193 16.7204 6.45315 16.4795 6.00976C16.2385 5.56638 15.837 5.232 15.3574 5.07521C14.8777 4.91842 14.3562 4.9511 13.8999 5.16655C13.4436 5.382 13.087 5.7639 12.9033 6.2339L12.0404 8.51616C11.9255 8.82358 11.7196 9.08865 11.4501 9.27597C11.1807 9.4633 10.8605 9.56397 10.5323 9.56454H9.55648C9.55648 9.35066 9.47152 9.14554 9.32028 8.9943C9.16904 8.84306 8.96392 8.75809 8.75003 8.75809H5.52422C5.31034 8.75809 5.10522 8.84306 4.95398 8.9943C4.80274 9.14554 4.71777 9.35066 4.71777 9.56454V16.8226C4.71777 17.0365 4.80274 17.2416 4.95398 17.3929C5.10522 17.5441 5.31034 17.6291 5.52422 17.6291H8.75003C8.96392 17.6291 9.16904 17.5441 9.32028 17.3929C9.47152 17.2416 9.55648 17.0365 9.55648 16.8226L10.4436 17.4758C10.5819 17.576 10.7486 17.6297 10.9194 17.6291H16.6936C17.2904 17.6329 17.8676 17.416 18.3142 17.02C18.7608 16.624 19.0453 16.0769 19.1129 15.4839L19.4758 12.2581C19.5146 11.9181 19.4809 11.5738 19.3768 11.2479C19.2727 10.9219 19.1006 10.6217 18.872 10.3672C18.6433 10.1126 18.3633 9.90945 18.0503 9.77109C17.7374 9.63274 17.3986 9.56234 17.0565 9.56454H17.0484ZM7.94358 16.0162H6.33068V10.371H7.94358V16.0162ZM17.492 15.3226C17.47 15.5208 17.3755 15.7038 17.2266 15.8363C17.0776 15.9689 16.8849 16.0416 16.6855 16.0403H11.1855L10.3065 15.3952C10.1669 15.2905 9.9971 15.2339 9.82261 15.2339H9.55648V11.2016H10.5404C11.1971 11.2027 11.8386 11.0034 12.379 10.6301C12.9194 10.2569 13.333 9.72755 13.5645 9.11293L14.4194 6.82261C14.4347 6.77774 14.4589 6.7364 14.4905 6.70103C14.5221 6.66567 14.5604 6.63699 14.6033 6.61669C14.6461 6.59639 14.6926 6.58489 14.74 6.58286C14.7873 6.58083 14.8346 6.58831 14.8791 6.60487C14.9684 6.64705 15.0395 6.71997 15.0795 6.8103C15.1195 6.90062 15.1256 7.00232 15.0968 7.0968L14.2904 10.2016C14.2601 10.3207 14.2575 10.445 14.2827 10.5652C14.3078 10.6854 14.3601 10.7983 14.4355 10.8952C14.5115 10.9913 14.6083 11.0689 14.7187 11.1219C14.8291 11.175 14.9501 11.2023 15.0726 11.2016H17.0162C17.13 11.201 17.2426 11.2244 17.3467 11.2703C17.4508 11.3163 17.544 11.3837 17.6202 11.4683C17.6964 11.5528 17.7538 11.6526 17.7887 11.7609C17.8236 11.8692 17.8351 11.9837 17.8226 12.0968L17.492 15.3226ZM36.2903 46.7742V30.6452C36.2903 30.4313 36.2054 30.2262 36.0541 30.0749C35.9029 29.9237 35.6978 29.8387 35.4839 29.8387H30.6452C30.4313 29.8387 30.2262 29.9237 30.0749 30.0749C29.9237 30.2262 29.8387 30.4313 29.8387 30.6452V46.7742H31.4516V31.4516H34.6774V46.7742H36.2903ZM25 46.7742V36.2903C25 36.0765 24.9151 35.8713 24.7638 35.7201C24.6126 35.5689 24.4075 35.4839 24.1936 35.4839H19.3549C19.141 35.4839 18.9359 35.5689 18.7846 35.7201C18.6334 35.8713 18.5484 36.0765 18.5484 36.2903V46.7742H20.1613V37.0968H23.3871V46.7742H25ZM13.7097 46.7742V41.1291C13.7097 40.9152 13.6247 40.71 13.4735 40.5588C13.3223 40.4076 13.1171 40.3226 12.9033 40.3226H8.06455C7.85066 40.3226 7.64554 40.4076 7.4943 40.5588C7.34306 40.71 7.2581 40.9152 7.2581 41.1291V46.7742H8.871V41.9355H12.0968V46.7742H13.7097ZM47.5807 46.7742V24.1936C47.5807 23.9797 47.4957 23.7746 47.3445 23.6233C47.1932 23.4721 46.9881 23.3871 46.7742 23.3871H41.9355C41.7216 23.3871 41.5165 23.4721 41.3653 23.6233C41.214 23.7746 41.1291 23.9797 41.1291 24.1936V46.7742H42.742V25H45.9678V46.7742H47.5807ZM4.83874 48.3871H50V50H4.83874V48.3871ZM8.30648 36.2903C21.4605 32.0647 33.7222 25.4486 44.4758 16.7742L43.8226 19.0162L45.371 19.4678L46.7742 14.742C46.8102 14.6191 46.8163 14.4895 46.7923 14.3638C46.7682 14.2381 46.7145 14.1199 46.6357 14.019C46.5569 13.9182 46.4552 13.8375 46.3391 13.7837C46.2229 13.7299 46.0957 13.7046 45.9678 13.7097L41.0565 14.0403L41.1694 15.6533L43.5887 15.492C32.9524 24.0485 20.8269 30.5665 7.82261 34.7178L8.30648 36.2903Z" fill="#F2184F"/>
</svg>
