<svg width="50" height="50" viewBox="0 0 50 50" fill="none" xmlns="http://www.w3.org/2000/svg">
<mask id="mask0_47_81" style="mask-type:luminance" maskUnits="userSpaceOnUse" x="0" y="0" width="50" height="50">
<path d="M49.25 49.25V0.75H0.75V49.25H49.25Z" fill="white" stroke="white" stroke-width="1.5"/>
</mask>
<g mask="url(#mask0_47_81)">
<path d="M43.4156 9.44138C42.1951 10.6618 40.2165 10.6618 38.9961 9.44138C37.7757 8.22097 37.7757 6.24236 38.9961 5.02195C40.2165 3.80154 42.1951 3.80154 43.4156 5.02195C44.636 6.24236 44.636 8.22097 43.4156 9.44138Z" stroke="#F2184F" stroke-width="1.5" stroke-miterlimit="10" stroke-linecap="round" stroke-linejoin="round"/>
<path d="M11.0039 44.9781C9.78352 46.1985 7.80491 46.1985 6.5845 44.9781C5.36409 43.7577 5.36409 41.7791 6.5845 40.5587C7.80491 39.3383 9.78352 39.3383 11.0039 40.5587C12.2243 41.7791 12.2243 43.7577 11.0039 44.9781Z" stroke="#F2184F" stroke-width="1.5" stroke-miterlimit="10" stroke-linecap="round" stroke-linejoin="round"/>
<path d="M20.2625 48.5563C21.8224 48.8678 23.4093 49.0242 25 49.0234C38.2678 49.0234 49.0235 38.2678 49.0235 25C49.0235 19.2081 46.9735 13.8952 43.5599 9.74648" stroke="#F2184F" stroke-width="1.5" stroke-miterlimit="10" stroke-linecap="round" stroke-linejoin="round"/>
<path d="M29.7832 1.45286C28.2086 1.13533 26.6063 0.975776 25 0.976589C11.7322 0.976589 0.976562 11.7323 0.976562 25C0.976562 30.7919 3.02656 36.1048 6.44014 40.2535" stroke="#F2184F" stroke-width="1.5" stroke-miterlimit="10" stroke-linecap="round" stroke-linejoin="round"/>
<path d="M24.9999 32.0928C21.0828 32.0928 17.9072 28.9173 17.9072 25C17.9072 21.0828 21.0828 17.9073 24.9999 17.9073C28.9171 17.9073 32.0927 21.0828 32.0927 25C32.0927 28.9173 28.9171 32.0928 24.9999 32.0928ZM39.144 21.9382C38.778 20.2349 38.1056 18.6123 37.1596 17.1493L39.0307 15.2781L34.7115 10.962L32.8418 12.8316C31.3789 11.8856 29.7563 11.2133 28.0531 10.8474V8.20312H21.9468V10.8474C20.2436 11.2133 18.621 11.8856 17.1581 12.8316L15.2884 10.962L10.9692 15.2781L12.8403 17.1493C11.8943 18.6123 11.2219 20.2349 10.8559 21.9382H8.20474L8.20142 28.0443H10.8558C11.2218 29.7476 11.8942 31.3703 12.8402 32.8333L10.962 34.7115L15.2781 39.0309L17.1579 37.151C18.6208 38.097 20.2435 38.7694 21.9468 39.1354V41.7969H28.0531V39.1354C29.7564 38.7694 31.3791 38.097 32.842 37.151L34.7218 39.0309L39.0379 34.7115L37.1597 32.8333C38.1057 31.3703 38.7781 29.7476 39.1441 28.0443H41.7985V21.9382H39.144Z" stroke="#F2184F" stroke-width="1.5" stroke-miterlimit="10" stroke-linecap="round" stroke-linejoin="round"/>
</g>
</svg>
