<svg width="50" height="50" viewBox="0 0 50 50" fill="none" xmlns="http://www.w3.org/2000/svg">
<path d="M44.7235 26.9307C44.7245 26.0587 44.4502 25.2086 43.9397 24.5017C43.4292 23.7947 42.7086 23.267 41.8805 22.9937L38.8076 21.9755C39.6145 20.9879 40.0995 19.7275 40.0995 18.3556V17.1154C40.0995 13.9555 37.5287 11.3847 34.3687 11.3847C32.1593 11.3847 30.2153 12.6315 29.2612 14.5119C28.1226 13.5111 26.6315 12.9021 25 12.9021C23.3686 12.9021 21.8775 13.511 20.7389 14.5118C19.7849 12.6314 17.8407 11.3846 15.6314 11.3846C12.4714 11.3846 9.9006 13.9554 9.9006 17.1153V18.3555C9.9006 19.7274 10.3856 20.9878 11.1925 21.9754L8.11955 22.9936C7.29151 23.267 6.57088 23.7947 6.06039 24.5016C5.5499 25.2085 5.27559 26.0586 5.27658 26.9306V33.0312C5.27658 33.5704 5.71369 34.0077 6.25294 34.0077H13.2001V37.734C13.2001 38.2731 13.6372 38.7103 14.1765 38.7103H35.8236C36.3628 38.7103 36.7999 38.2731 36.7999 37.734V34.0077H43.7471C44.2864 34.0077 44.7235 33.5705 44.7235 33.0312V26.9307ZM34.3687 13.3374C36.4519 13.3374 38.1466 15.032 38.1466 17.1152V18.3554C38.1466 19.6622 37.4796 20.8158 36.4684 21.4944C36.4064 21.5249 36.3477 21.5617 36.2932 21.6047C35.7112 21.9514 35.0462 22.134 34.3687 22.1334C33.2331 22.1334 32.1844 21.6372 31.4634 20.7671V19.3653C31.4647 18.2905 31.1964 17.2326 30.6828 16.2885C31.0646 14.5678 32.586 13.3374 34.3687 13.3374ZM20.4896 19.3654C20.4894 16.8783 22.5128 14.8549 24.9999 14.8549C27.487 14.8549 29.5105 16.8783 29.5105 19.3654V20.7968C29.5105 22.3619 28.7088 23.7428 27.4951 24.552C27.4284 24.5842 27.3656 24.6239 27.3076 24.6704C26.6103 25.088 25.8127 25.3081 25 25.3073C24.1873 25.3081 23.3896 25.0879 22.6923 24.6703C22.6348 24.6241 22.5722 24.5846 22.5058 24.5525C21.2915 23.7433 20.4896 22.3622 20.4896 20.7968V19.3654ZM11.8531 17.1153C11.8532 15.0321 13.548 13.3375 15.6312 13.3375C17.4139 13.3375 18.9352 14.5678 19.317 16.2886C18.8036 17.2327 18.5352 18.2906 18.5365 19.3654V20.7673C17.8153 21.6374 16.7667 22.1336 15.6311 22.1336C14.9534 22.1342 14.2882 21.9514 13.706 21.6046C13.6521 21.5623 13.594 21.5257 13.5325 21.4954C12.5206 20.8169 11.8531 19.6629 11.8531 18.3556V17.1153ZM13.2 30.6933V32.055H7.22922V26.9307C7.22872 26.4692 7.37388 26.0194 7.64401 25.6454C7.91414 25.2713 8.29545 24.992 8.73361 24.8473L12.9876 23.4376C13.8034 23.8644 14.7106 24.087 15.6313 24.0863C16.8409 24.0863 17.9846 23.7144 18.9377 23.0376C19.2119 23.7747 19.6182 24.4556 20.1367 25.0469L16.378 26.2925C15.4523 26.598 14.6468 27.1879 14.0762 27.9781C13.5055 28.7683 13.1989 29.7185 13.2 30.6933ZM15.1528 36.7577V30.6933C15.1521 30.1291 15.3296 29.5791 15.6598 29.1218C15.9901 28.6644 16.4563 28.3229 16.992 28.1461L21.9614 26.4994C22.8958 26.9999 23.9397 27.2612 24.9997 27.2602C26.0598 27.2613 27.1036 26.9999 28.0381 26.4994L33.0075 28.1461C33.5432 28.3229 34.0094 28.6644 34.3397 29.1218C34.6699 29.5791 34.8474 30.1291 34.8467 30.6933V36.7577H15.1528ZM42.7706 32.055H36.7998V30.6933C36.8009 29.7186 36.4943 28.7684 35.9237 27.9782C35.3531 27.1879 34.5476 26.598 33.622 26.2925L29.8632 25.0469C30.3817 24.4556 30.788 23.7747 31.0622 23.0376C32.0154 23.7145 33.159 24.0863 34.3687 24.0863C35.2894 24.087 36.1965 23.8644 37.0122 23.4376L41.2663 24.8473C41.7045 24.992 42.0858 25.2713 42.3559 25.6454C42.626 26.0194 42.7712 26.4692 42.7706 26.9307V32.055ZM4.99171 11.6652C4.53195 11.3835 3.93078 11.5277 3.64904 11.9877L3.62443 12.028C3.34376 12.4886 3.48976 13.0892 3.9504 13.3698C4.0599 13.4366 4.18148 13.4811 4.30819 13.5008C4.43491 13.5206 4.56427 13.5152 4.68889 13.4849C4.8135 13.4546 4.93093 13.4 5.03445 13.3243C5.13797 13.2487 5.22556 13.1533 5.2922 13.0437L5.31408 13.008C5.59582 12.548 5.45148 11.9469 4.99171 11.6652Z" fill="#F2184F"/>
<path d="M41.8918 40.7164H37.0423C36.8492 40.7164 36.6604 40.7736 36.4998 40.8809C36.3392 40.9881 36.214 41.1406 36.1401 41.3191C36.0662 41.4975 36.0468 41.6938 36.0845 41.8832C36.1222 42.0726 36.2152 42.2466 36.3518 42.3832L37.9967 44.0281C28.9532 50.2136 16.5228 49.1074 8.70565 41.2901C1.93357 34.518 0.0479252 24.4785 3.90203 15.7131C4.11912 15.2195 3.8948 14.6433 3.40125 14.4262C2.9076 14.209 2.33152 14.4334 2.11443 14.927C0.109644 19.4866 -0.484497 24.4982 0.39607 29.4201C1.29754 34.4575 3.69344 39.0397 7.32479 42.6711C11.5989 46.9451 17.2702 49.5246 23.2939 49.9345C23.863 49.9731 24.4307 49.9924 24.9977 49.9924C30.155 49.9922 35.1927 48.4015 39.3997 45.4311L41.2014 47.2328C41.3379 47.3694 41.5119 47.4624 41.7013 47.5C41.8907 47.5377 42.087 47.5184 42.2655 47.4445C42.4439 47.3706 42.5964 47.2454 42.7036 47.0848C42.8109 46.9243 42.8682 46.7355 42.8682 46.5424V41.6929C42.8683 41.1536 42.4312 40.7164 41.8918 40.7164ZM40.9154 44.185L39.3996 42.6692H40.9154V44.185ZM49.6257 20.6972C48.742 15.61 46.3384 10.9845 42.6748 7.32105C38.4008 3.04702 32.7295 0.467528 26.7058 0.0577619C20.9615 -0.332473 15.2694 1.26401 10.5999 4.56099L8.79832 2.75942C8.66176 2.62291 8.48778 2.52995 8.29839 2.4923C8.109 2.45465 7.9127 2.47399 7.7343 2.54789C7.55591 2.62179 7.40342 2.74692 7.29613 2.90746C7.18884 3.06801 7.13156 3.25676 7.13152 3.44985V8.29937C7.13152 8.83853 7.56863 9.27574 8.10789 9.27574H12.9573C13.1504 9.27577 13.3392 9.21853 13.4998 9.11125C13.6604 9.00398 13.7856 8.85148 13.8595 8.67306C13.9334 8.49464 13.9528 8.29831 13.9151 8.10889C13.8774 7.91948 13.7844 7.74549 13.6478 7.60894L12.0029 5.96402C21.0464 -0.221633 33.4768 0.884618 41.294 8.70191C48.0365 15.4445 49.9282 25.8105 46.0009 34.4964C45.7787 34.9877 45.9969 35.5661 46.4883 35.7883C46.6144 35.8456 46.7514 35.8753 46.89 35.8754C47.2617 35.8754 47.6171 35.6617 47.7803 35.301C49.8515 30.7204 50.4896 25.6706 49.6257 20.6972ZM9.08436 7.3229V5.80718L10.6002 7.323L9.08436 7.3229ZM45.9822 36.745C45.5236 36.4614 44.922 36.6032 44.6382 37.0619L44.6083 37.1102C44.3246 37.5688 44.4666 38.1705 44.9253 38.4542C45.0343 38.5217 45.1556 38.567 45.2822 38.5876C45.4088 38.6082 45.5382 38.6037 45.663 38.5743C45.7878 38.5448 45.9056 38.4911 46.0097 38.4161C46.1137 38.3411 46.2019 38.2464 46.2693 38.1373L46.2992 38.0889C46.5828 37.6303 46.4408 37.0286 45.9822 36.745Z" fill="#F2184F"/>
</svg>
