<svg width="50" height="47" viewBox="0 0 50 47" fill="none" xmlns="http://www.w3.org/2000/svg">
<path d="M41.6406 16.1326L40.2578 15.2029C39.9141 14.9686 39.4375 15.0623 39.2031 15.4061C38.9688 15.7498 39.0625 16.2264 39.4063 16.4608L42.3828 18.4608C42.5078 18.5467 42.6563 18.5936 42.8047 18.5936C42.8594 18.5936 42.9219 18.5858 42.9766 18.5701C43.1797 18.5233 43.3594 18.3904 43.4609 18.2108L45.2422 15.0936C45.4531 14.7264 45.3203 14.2654 44.9609 14.0623C44.8749 14.0127 44.7798 13.9806 44.6813 13.9679C44.5827 13.9552 44.4826 13.9621 44.3868 13.9883C44.2909 14.0144 44.2012 14.0593 44.1227 14.1203C44.0443 14.1812 43.9787 14.2571 43.9297 14.3436L43.1094 15.7811C38.8047 0.898274 24.5625 2.17952 24.4141 2.19515C24 2.23421 23.6953 2.60921 23.7344 3.02327C23.7813 3.43733 24.1406 3.74202 24.5625 3.70296C25.125 3.64046 37.6719 2.52327 41.6406 16.1326ZM22.6953 44.492C22.2031 44.5389 11.0313 45.4295 7.50004 33.3592L8.57035 34.0936C8.9141 34.3279 9.39066 34.242 9.62504 33.8982C9.85941 33.5545 9.77347 33.0857 9.42972 32.8436L6.75785 31.0076C6.58598 30.8904 6.36723 30.8436 6.1641 30.8904C5.96098 30.9373 5.78129 31.0623 5.67191 31.2498L4.0391 34.0467C3.93852 34.221 3.91082 34.4279 3.96203 34.6225C4.01324 34.8171 4.13921 34.9836 4.31254 35.0857C4.42973 35.1561 4.56254 35.1873 4.69535 35.1873C4.95317 35.1873 5.21098 35.0545 5.3516 34.8123L6.01566 33.6717C9.32816 45.1873 19.3047 46.0232 22.1016 46.0232C22.5547 46.0232 22.8203 45.9998 22.836 45.9998C23.25 45.9607 23.5547 45.5935 23.5235 45.1717C23.5145 45.0724 23.4858 44.9758 23.4392 44.8877C23.3926 44.7996 23.3288 44.7216 23.2518 44.6584C23.1747 44.5951 23.0858 44.5478 22.9903 44.5193C22.8947 44.4907 22.7945 44.4814 22.6953 44.492ZM4.48442 27.1561C4.48442 27.5779 4.82035 27.9139 5.24223 27.9139L16.086 27.9451C16.5 27.9451 16.8438 27.6092 16.8438 27.1873L16.8594 21.8826C16.8594 21.7889 16.9297 21.7186 17.0235 21.7186L18.7969 21.7264H18.8047C19.4219 21.7264 20.0078 21.4842 20.4453 21.0467C20.8907 20.6092 21.1328 20.0233 21.1328 19.3983L21.1407 16.9529L21.9141 16.867C22.3203 16.8201 22.6719 16.5779 22.8594 16.2186C23.0469 15.8592 23.0469 15.4295 22.875 15.1326L20.8516 10.5467C20.8672 10.4217 20.8672 10.3358 20.8828 10.1639C21.0469 7.07014 20.0703 4.3514 18.1407 2.49202C16.2032 0.632648 13.4141 -0.234538 10.2735 0.054524C4.14067 0.632648 0.0156694 4.7264 4.4407e-05 10.242C-0.00776809 13.0233 1.01567 16.1248 2.74223 18.5311C3.89067 20.1404 4.50004 22.0936 4.49223 24.1795L4.48442 27.1561ZM3.9766 17.6483C2.42973 15.492 1.50786 12.7186 1.51567 10.2498C1.53129 5.55452 5.1016 2.06234 10.4141 1.57015C13.1328 1.32015 15.4532 2.01546 17.086 3.58577C18.6953 5.13264 19.5078 7.43733 19.3672 10.0858L19.3594 10.1639C19.3516 10.2889 19.3516 10.3436 19.3203 10.5467C19.2969 10.6873 19.3203 10.8358 19.375 10.9686L21.3438 15.4139L20.3047 15.5311C19.9219 15.5779 19.6328 15.8983 19.6328 16.2811L19.625 19.3983C19.625 19.8436 19.2578 20.2108 18.8125 20.2108L17.0391 20.2029H17.0313C16.1094 20.2029 15.3516 20.9529 15.3516 21.8748L15.336 26.4217L6.00004 26.4061L6.00785 24.1873C6.01566 21.7811 5.31254 19.5233 3.9766 17.6483ZM49.2422 33.1717H48.1094C47.8672 32.1248 47.4453 31.117 46.875 30.2029L47.6797 29.3982C47.9766 29.1014 47.9766 28.6248 47.6797 28.3279L45.5781 26.2264C45.508 26.1558 45.4246 26.0999 45.3328 26.0617C45.2409 26.0235 45.1424 26.0038 45.043 26.0038C44.9435 26.0038 44.845 26.0235 44.7532 26.0617C44.6613 26.0999 44.578 26.1558 44.5078 26.2264L43.7031 27.0311C42.7891 26.4608 41.7813 26.0467 40.7344 25.7967V24.6639C40.7344 24.242 40.3984 23.9061 39.9766 23.9061H37.0078C36.5859 23.9061 36.25 24.242 36.25 24.6639V25.8045C35.2031 26.0467 34.1953 26.4686 33.2813 27.0389L32.4766 26.2342C32.3319 26.0944 32.1387 26.0163 31.9375 26.0163C31.7364 26.0163 31.5431 26.0944 31.3985 26.2342L29.3047 28.3358C29.0078 28.6326 29.0078 29.1092 29.3047 29.4061L30.1094 30.2107C29.5391 31.1248 29.125 32.1326 28.875 33.1795H27.7422C27.3203 33.1795 26.9844 33.5154 26.9844 33.9373V36.8982C26.9844 37.3201 27.3203 37.6561 27.7422 37.6561H28.875C29.1172 38.7029 29.5391 39.7107 30.1094 40.6248L29.3125 41.4295C29.0156 41.7264 29.0156 42.2029 29.3125 42.4998L31.4063 44.6014C31.5509 44.7411 31.7442 44.8192 31.9453 44.8192C32.1465 44.8192 32.3397 44.7411 32.4844 44.6014L33.2891 43.7967C34.2031 44.367 35.211 44.7889 36.2578 45.031V46.1639C36.2578 46.5857 36.5938 46.9217 37.0156 46.9217H39.9844C40.4063 46.9217 40.7422 46.5857 40.7422 46.1639V45.0232C41.7891 44.781 42.7969 44.3592 43.7109 43.7889L44.5156 44.5935C44.8125 44.8904 45.2891 44.8904 45.5859 44.5935L47.6875 42.492C47.9844 42.1951 47.9844 41.7186 47.6875 41.4217L46.875 40.6248C47.4453 39.7107 47.8672 38.7029 48.1094 37.6561H49.2422C49.6641 37.6561 50 37.3201 50 36.8982V33.9295C50 33.7285 49.9202 33.5358 49.778 33.3936C49.6359 33.2515 49.4432 33.1717 49.2422 33.1717ZM48.4844 36.1404H47.4844C47.1094 36.1404 46.7969 36.4139 46.7344 36.7732C46.5313 38.0311 46.0313 39.242 45.2813 40.2732C45.0625 40.5779 45.0938 40.992 45.3594 41.2576L46.0703 41.9685L45.0469 42.992L44.3359 42.2889C44.2096 42.1609 44.0414 42.0827 43.8622 42.0683C43.6829 42.054 43.5045 42.1045 43.3594 42.2107C42.3281 42.9529 41.1172 43.4607 39.8594 43.6639C39.4922 43.7264 39.2266 44.0389 39.2266 44.4139V45.4139H37.7734V44.4139C37.7734 44.0467 37.5078 43.7264 37.1406 43.6639C35.8775 43.456 34.6796 42.9586 33.6406 42.2107C33.4957 42.1042 33.3171 42.0535 33.1378 42.0678C32.9585 42.0822 32.7903 42.1606 32.6641 42.2889L31.9453 42.992L30.9219 41.9685L31.6328 41.2576C31.7608 41.1312 31.839 40.9631 31.8534 40.7839C31.8677 40.6046 31.8172 40.4262 31.711 40.2811C30.9637 39.2389 30.4665 38.0386 30.2578 36.7732C30.2285 36.5958 30.1369 36.4347 29.9994 36.3187C29.862 36.2027 29.6877 36.1395 29.5078 36.1404H28.5078V34.6873H29.5078C29.8828 34.6873 30.1953 34.4217 30.2578 34.0545C30.4688 32.7811 30.9531 31.6014 31.711 30.5467C31.9297 30.242 31.8906 29.8357 31.6328 29.5701L30.9219 28.8592L31.9453 27.8357L32.6563 28.5467C32.9219 28.8123 33.336 28.8436 33.6328 28.6248C34.6641 27.8826 35.875 27.3748 37.1328 27.1717C37.5 27.1092 37.7656 26.7967 37.7656 26.4217V25.4295H39.2188V26.4217C39.2188 26.7889 39.4844 27.1092 39.8516 27.1717C41.1094 27.3748 42.3203 27.8826 43.3516 28.6248C43.6484 28.8436 44.0625 28.8045 44.3281 28.5467L45.0391 27.8436L46.0625 28.867L45.3516 29.5779C45.0859 29.8436 45.0547 30.2576 45.2734 30.5623C46.0234 31.5936 46.5234 32.8045 46.7266 34.0623C46.7891 34.4295 47.1016 34.6951 47.4766 34.6951H48.4766V36.1404H48.4844Z" fill="#F2184F"/>
<path d="M38.5 28.5935C34.7344 28.5935 31.6797 31.656 31.6797 35.4138C31.6797 39.1794 34.7422 42.2341 38.5 42.2341C42.2656 42.2341 45.3203 39.1716 45.3203 35.4138C45.3203 31.656 42.2578 28.5935 38.5 28.5935ZM38.5 40.7263C35.5703 40.7263 33.1953 38.3435 33.1953 35.4216C33.1953 32.4919 35.5781 30.1091 38.5 30.1091C41.4297 30.1091 43.8047 32.4919 43.8047 35.4216C43.8047 38.3435 41.4219 40.7263 38.5 40.7263Z" fill="#F2184F"/>
</svg>
