<svg width="50" height="50" viewBox="0 0 50 50" fill="none" xmlns="http://www.w3.org/2000/svg">
<path d="M42.6777 7.32227C37.9558 2.60049 31.6777 0 25 0C18.3223 0 12.0442 2.60049 7.32227 7.32227C2.60049 12.0441 0 18.3223 0 25C0 31.6777 2.60049 37.9559 7.32227 42.6777C12.0442 47.3995 18.3223 50 25 50C31.6777 50 37.9558 47.3995 42.6777 42.6777C47.3995 37.9559 50 31.6777 50 25C50 18.3223 47.3995 12.0441 42.6777 7.32227ZM25 48.5352C12.0227 48.5352 1.46484 37.9773 1.46484 25C1.46484 12.0227 12.0227 1.46484 25 1.46484C37.9773 1.46484 48.5352 12.0227 48.5352 25C48.5352 37.9773 37.9773 48.5352 25 48.5352Z" fill="#F2184F"/>
<path d="M40.6061 9.39395C36.4375 5.22539 30.8952 2.92969 25 2.92969C19.1048 2.92969 13.5625 5.22539 9.39395 9.39395C5.22539 13.5625 2.92969 19.1049 2.92969 25C2.92969 27.7383 3.42646 30.4129 4.40635 32.9494C4.44098 33.0392 4.49296 33.1212 4.55931 33.1908C4.62566 33.2605 4.70509 33.3164 4.79305 33.3553C4.88101 33.3943 4.97578 33.4155 5.07195 33.4178C5.16811 33.4201 5.26379 33.4034 5.35352 33.3688C5.44323 33.3341 5.52524 33.2821 5.59487 33.2158C5.66449 33.1494 5.72036 33.07 5.75929 32.982C5.79822 32.8941 5.81945 32.7994 5.82176 32.7032C5.82407 32.6071 5.80742 32.5114 5.77275 32.4217C4.9458 30.2808 4.48877 28.0338 4.40859 25.7324H12.1396C12.2095 30.47 12.957 34.9896 14.2543 38.8247C13.257 39.3009 12.2923 39.8428 11.3667 40.4468C9.60062 38.89 8.1142 37.0422 6.97187 34.9836C6.92521 34.8995 6.86243 34.8254 6.78713 34.7656C6.71183 34.7057 6.62547 34.6613 6.533 34.6348C6.44053 34.6084 6.34375 34.6004 6.24819 34.6113C6.15263 34.6223 6.06017 34.6519 5.97607 34.6986C5.80624 34.7929 5.68081 34.9508 5.62737 35.1375C5.57393 35.3243 5.59686 35.5246 5.69111 35.6944C7.00063 38.0546 8.73167 40.1547 10.7984 41.8906C10.8229 41.9145 10.8491 41.9357 10.8763 41.9556C12.9865 43.7118 15.4051 45.0601 18.0086 45.9314C18.0658 45.959 18.1263 45.9789 18.1887 45.9908C20.3883 46.7061 22.687 47.0704 25 47.0703C30.8952 47.0703 36.4375 44.7746 40.6061 40.6061C44.7746 36.4375 47.0703 30.8951 47.0703 25C47.0703 19.1049 44.7746 13.5625 40.6061 9.39395ZM16.4424 6.25752C15.8194 7.33242 15.2566 8.51768 14.7581 9.79268C14.0062 9.42794 13.2744 9.02333 12.5656 8.58057C13.7689 7.66658 15.069 6.88756 16.4424 6.25752ZM4.40898 24.2676C4.61436 18.42 7.26748 13.1852 11.3735 9.55771C12.2971 10.1598 13.2594 10.7002 14.2543 11.1753C12.957 15.0104 12.2096 19.53 12.1396 24.2676H4.40898ZM12.5599 41.4229C13.2704 40.9788 14.0042 40.5731 14.7581 40.2073C15.2563 41.4815 15.8188 42.6661 16.4412 43.7404C15.0666 43.1121 13.765 42.335 12.5599 41.4229ZM24.2676 45.5923C22.4017 45.5259 20.5535 45.2056 18.774 44.6403C17.7401 43.2345 16.8397 41.5337 16.0927 39.6119C18.6763 38.5536 21.4363 37.965 24.2676 37.8784V45.5923ZM24.2676 36.413C21.2647 36.4995 18.3368 37.1176 15.5945 38.233C14.3759 34.582 13.6728 30.2687 13.6043 25.7324H24.2676V36.413ZM24.2676 24.2676H13.6043C13.6728 19.7313 14.3759 15.418 15.5945 11.767C18.3368 12.8824 21.2647 13.5005 24.2676 13.587V24.2676ZM24.2676 12.1217C21.4362 12.0351 18.6763 11.4465 16.0927 10.3882C16.8404 8.46455 17.7418 6.7625 18.7769 5.35586C20.519 4.80273 22.3607 4.47598 24.2676 4.40898V12.1217ZM45.591 24.2676H37.8605C37.7905 19.53 37.043 15.0104 35.7457 11.1753C36.7406 10.7002 37.7029 10.1598 38.6265 9.55771C42.7325 13.1852 45.3856 18.42 45.591 24.2676ZM37.4344 8.58057C36.7256 9.02329 35.9938 9.4279 35.2419 9.79268C34.7434 8.51768 34.1806 7.33242 33.5576 6.25762C34.931 6.88765 36.2311 7.66664 37.4344 8.58057ZM25.7325 4.40898C27.6393 4.47588 29.481 4.80264 31.2231 5.35586C32.2582 6.7625 33.1596 8.46455 33.9074 10.3882C31.3238 11.4465 28.5639 12.0351 25.7325 12.1217V4.40898ZM25.7324 13.587C28.7353 13.5005 31.6632 12.8824 34.4055 11.767C35.6242 15.418 36.3273 19.7313 36.3957 24.2676H25.7324V13.587ZM25.7324 25.7324H36.3957C36.3272 30.2687 35.6241 34.582 34.4055 38.233C31.6632 37.1176 28.7353 36.4995 25.7324 36.413V25.7324ZM25.7324 45.591V37.8783C28.5638 37.9649 31.3237 38.5535 33.9073 39.6118C33.1596 41.5354 32.2582 43.2375 31.2231 44.6441C29.481 45.1973 27.6393 45.524 25.7324 45.591ZM33.5576 43.7425C34.1806 42.6676 34.7434 41.4823 35.2419 40.2073C35.9938 40.5721 36.7256 40.9767 37.4344 41.4194C36.2311 42.3334 34.931 43.1124 33.5576 43.7425ZM38.6265 40.4423C37.7029 39.8402 36.7406 39.2998 35.7457 38.8247C37.043 34.9896 37.7904 30.47 37.8605 25.7324H45.591C45.3856 31.58 42.7325 36.8148 38.6265 40.4423Z" fill="#F2184F"/>
</svg>
