<svg width="215" height="58" viewBox="0 0 215 58" fill="none" xmlns="http://www.w3.org/2000/svg">
<path d="M0.799682 47.1228H7.19713L6.39745 55.2339H5.25505L5.94049 48.0367H1.82784L1.1424 55.2339H0L0.799682 47.1228Z" fill="black"/>
<path d="M7.76855 57.5187L8.56824 49.4077H9.48216V50.0931C9.71064 49.7504 9.93912 49.5219 10.2818 49.4077C10.5103 49.2934 10.853 49.1792 11.31 49.1792C11.767 49.1792 12.2239 49.2934 12.5666 49.5219C12.9094 49.7504 13.1378 50.0931 13.3663 50.6643C13.4806 51.1213 13.5948 51.6925 13.4806 52.2637C13.3663 52.8349 13.2521 53.4061 13.0236 53.863C12.7951 54.32 12.4524 54.6627 11.9954 55.0054C11.5385 55.2339 11.0815 55.3482 10.6246 55.3482C10.2818 55.3482 10.0534 55.2339 9.71064 55.1197C9.48216 55.0055 9.25368 54.777 9.13944 54.5485L8.79672 57.4045H7.76855V57.5187ZM9.25368 52.2637C9.13944 53.0634 9.25368 53.5203 9.5964 53.9773C9.82488 54.32 10.1676 54.5485 10.6246 54.5485C11.0815 54.5485 11.4242 54.32 11.767 53.9773C12.1097 53.6346 12.3382 53.0634 12.4524 52.2637C12.5666 51.464 12.4524 51.007 12.1097 50.5501C11.8812 50.2074 11.5385 49.9789 11.0815 49.9789C10.6246 49.9789 10.2818 50.2074 9.93912 50.5501C9.48216 51.007 9.25368 51.5782 9.25368 52.2637Z" fill="black"/>
<path d="M14.2807 52.2637C14.3949 51.1213 14.7377 50.3216 15.4231 49.8646C15.9943 49.4077 16.5655 49.1792 17.3652 49.1792C18.1649 49.1792 18.8503 49.4077 19.3073 49.9789C19.7642 50.5501 19.9927 51.2355 19.8785 52.1494C19.7642 52.9491 19.65 53.5203 19.3073 53.9773C18.9645 54.4343 18.6218 54.777 18.1649 55.0054C17.7079 55.2339 17.2509 55.3482 16.6797 55.3482C15.8801 55.3482 15.1946 55.1197 14.7377 54.5485C14.3949 53.9773 14.1665 53.2918 14.2807 52.2637ZM15.3089 52.2637C15.1946 53.0634 15.3089 53.6346 15.6516 53.9773C15.9943 54.32 16.337 54.5485 16.794 54.5485C17.2509 54.5485 17.7079 54.32 18.0506 53.9773C18.3933 53.6346 18.6218 53.0634 18.7361 52.2637C18.8503 51.5782 18.7361 51.007 18.3933 50.6643C18.0506 50.3216 17.7079 50.0931 17.2509 50.0931C16.794 50.0931 16.337 50.3216 15.9943 50.6643C15.6516 51.007 15.4231 51.5782 15.3089 52.2637Z" fill="black"/>
<path d="M24.9048 47.1228H25.933L25.7045 49.9788C25.933 49.7503 26.1615 49.5218 26.3899 49.4076C26.6184 49.2934 26.9611 49.1791 27.1896 49.1791C27.8751 49.1791 28.4463 49.5218 28.789 50.093C29.1317 50.6642 29.2459 51.3497 29.1317 52.2636C29.0175 53.1775 28.789 53.9772 28.2178 54.4342C27.7608 55.0054 27.1896 55.2339 26.5042 55.2339C26.2757 55.2339 26.0472 55.2339 25.8187 55.1196C25.5903 55.0054 25.3618 55.0054 25.1333 54.6627L24.9048 57.4044H23.8766L24.1051 54.6627C23.8766 54.8911 23.6482 55.0054 23.4197 55.1196C23.1912 55.2339 22.8485 55.2339 22.62 55.2339C22.0488 55.2339 21.4776 55.0054 21.1349 54.4342C20.6779 53.863 20.5637 53.1775 20.6779 52.1494C20.7922 51.3497 21.0206 50.55 21.4776 49.9788C21.9346 49.4076 22.5058 49.0649 23.1912 49.0649C23.5339 49.0649 23.7624 49.1791 23.9909 49.2934C24.2194 49.4076 24.4478 49.6361 24.5621 49.8646L24.9048 47.1228ZM21.7061 52.1494C21.5918 52.9491 21.7061 53.5203 21.9346 53.9772C22.163 54.4342 22.5058 54.5484 22.9627 54.5484C23.4197 54.5484 23.7624 54.3199 23.9909 53.9772C24.2194 53.6345 24.4478 53.0633 24.4478 52.3779C24.5621 51.5782 24.4478 51.007 24.3336 50.6642C24.1051 50.3215 23.8766 50.093 23.4197 50.093C22.9627 50.093 22.62 50.3215 22.3915 50.6642C22.163 51.007 21.7061 51.4639 21.7061 52.1494ZM25.3618 52.2636C25.2475 53.1775 25.3618 53.7487 25.5903 54.0915C25.8187 54.4342 26.0472 54.5484 26.5042 54.5484C26.9611 54.5484 27.3039 54.3199 27.6466 53.9772C27.9893 53.6345 28.2178 53.0633 28.2178 52.2636C28.332 51.4639 28.2178 51.007 27.9893 50.55C27.7608 50.2073 27.4181 49.9788 27.0754 49.9788C26.6184 49.9788 26.2757 50.2073 26.0472 50.55C25.5903 51.007 25.476 51.5782 25.3618 52.2636Z" fill="black"/>
<path d="M34.2718 53.2918L35.3 53.4061C35.0715 53.9773 34.7288 54.4342 34.2718 54.777C33.8149 55.1197 33.2436 55.2339 32.5582 55.2339C31.6443 55.2339 31.0731 55.0054 30.6161 54.4342C30.1592 53.863 30.0449 53.1776 30.0449 52.2637C30.1592 51.2355 30.5019 50.5501 31.0731 49.9789C31.6443 49.4077 32.3297 49.1792 33.1294 49.1792C33.9291 49.1792 34.5003 49.4077 34.9573 49.9789C35.4142 50.5501 35.5285 51.2355 35.5285 52.2637C35.5285 52.3779 35.5285 52.3779 35.5285 52.4922H31.1873C31.1873 53.1776 31.3016 53.6346 31.6443 53.9773C31.987 54.32 32.3297 54.4342 32.7867 54.4342C33.1294 54.4342 33.4721 54.32 33.7006 54.0915C33.9291 53.863 34.0433 53.7488 34.2718 53.2918ZM31.0731 51.6925H34.386C34.386 51.2355 34.2718 50.7786 34.1576 50.5501C33.9291 50.2074 33.4721 49.9789 33.0152 49.9789C32.5582 49.9789 32.2155 50.0931 31.8728 50.4358C31.4158 50.7786 31.1873 51.2355 31.0731 51.6925Z" fill="black"/>
<path d="M40.441 53.0634L41.3549 53.1776C41.1264 53.863 40.8979 54.4342 40.3267 54.777C39.8698 55.1197 39.2986 55.3482 38.6131 55.3482C37.8134 55.3482 37.2422 55.1197 36.7853 54.5485C36.3283 53.9773 36.2141 53.2918 36.3283 52.2637C36.4426 51.5782 36.5568 51.1213 36.7853 50.5501C37.0138 50.0931 37.3565 49.7504 37.8134 49.5219C38.2704 49.2934 38.7274 49.1792 39.2986 49.1792C39.984 49.1792 40.441 49.2934 40.7837 49.6362C41.1264 49.9789 41.3549 50.4358 41.4691 51.007L40.441 51.2355C40.441 50.8928 40.2125 50.5501 40.0982 50.3216C39.8698 50.0931 39.6413 49.9789 39.2986 49.9789C38.8416 49.9789 38.3846 50.2074 38.0419 50.5501C37.6992 50.8928 37.4707 51.464 37.3565 52.2637C37.2422 53.0634 37.3565 53.6346 37.585 53.9773C37.8134 54.32 38.2704 54.5485 38.7274 54.5485C39.0701 54.5485 39.4128 54.4342 39.7555 54.2058C40.0982 53.9773 40.2125 53.5203 40.441 53.0634Z" fill="black"/>
<path d="M46.0386 53.0634L46.9525 53.1776C46.7241 53.863 46.4956 54.4342 45.9244 54.777C45.4674 55.1197 44.8962 55.3482 44.2108 55.3482C43.4111 55.3482 42.8399 55.1197 42.3829 54.5485C41.926 53.9773 41.8117 53.2918 41.926 52.2637C42.0402 51.5782 42.1544 51.1213 42.3829 50.5501C42.6114 50.0931 42.9541 49.7504 43.4111 49.5219C43.8681 49.2934 44.325 49.1792 44.8962 49.1792C45.5817 49.1792 46.0386 49.2934 46.3813 49.6362C46.7241 49.9789 46.9525 50.4358 47.0668 51.007L46.1529 51.2355C46.1529 50.8928 45.9244 50.5501 45.8101 50.3216C45.5817 50.0931 45.3532 49.9789 45.0105 49.9789C44.5535 49.9789 44.0965 50.2074 43.7538 50.5501C43.4111 50.8928 43.1826 51.464 43.0684 52.2637C42.9541 53.0634 43.0684 53.6346 43.2969 53.9773C43.5253 54.32 43.9823 54.5485 44.4393 54.5485C44.782 54.5485 45.1247 54.4342 45.4674 54.2058C45.6959 53.9773 45.9244 53.5203 46.0386 53.0634Z" fill="black"/>
<path d="M48.3232 49.2932H49.3513L48.8944 53.7486L52.0931 49.2932H53.1212L52.55 55.2337H51.5219L51.9788 50.7783L48.7801 55.2337H47.752L48.3232 49.2932Z" fill="black"/>
<path d="M54.0363 52.2637C54.1506 51.1213 54.4933 50.3216 55.1787 49.8646C55.7499 49.4077 56.3211 49.1792 57.1208 49.1792C57.9205 49.1792 58.6059 49.4077 59.0629 49.9789C59.5199 50.5501 59.7483 51.2355 59.6341 52.1494C59.5199 52.9491 59.4056 53.5203 59.0629 53.9773C58.7202 54.4343 58.3775 54.777 57.9205 55.0054C57.4635 55.2339 57.0066 55.3482 56.4354 55.3482C55.6357 55.3482 54.9502 55.1197 54.4933 54.5485C54.0363 53.9773 53.9221 53.2918 54.0363 52.2637ZM55.0645 52.2637C54.9502 53.0634 55.0645 53.6346 55.4072 53.9773C55.7499 54.32 56.0926 54.5485 56.5496 54.5485C57.0066 54.5485 57.4635 54.32 57.8062 53.9773C58.149 53.6346 58.3775 53.0634 58.4917 52.2637C58.6059 51.5782 58.4917 51.007 58.149 50.6643C57.8063 50.3216 57.4635 50.0931 57.0066 50.0931C56.5496 50.0931 56.0926 50.3216 55.7499 50.6643C55.293 51.007 55.0645 51.5782 55.0645 52.2637Z" fill="black"/>
<path d="M61.0028 49.2932H62.031L61.6883 51.8065H64.43L64.6585 49.4075H65.6867L65.1155 55.2337H64.0873L64.3158 52.6062H61.6883L61.4598 55.2337H60.4316L61.0028 49.2932Z" fill="black"/>
<path d="M70.5998 54.5485C70.2571 54.8912 69.8001 55.1197 69.4574 55.234C69.1147 55.3482 68.772 55.4624 68.315 55.4624C67.6296 55.4624 67.1726 55.3482 66.8299 55.0055C66.4872 54.6628 66.3729 54.32 66.4872 53.7488C66.4872 53.4061 66.6014 53.1776 66.7157 52.9492C66.8299 52.7207 67.0584 52.4922 67.2869 52.378C67.5153 52.2637 67.7438 52.1495 68.0865 52.0352C68.315 52.0352 68.5435 51.921 69.0005 51.921C69.8001 51.8068 70.3713 51.6925 70.8283 51.5783C70.8283 51.464 70.8283 51.3498 70.8283 51.3498C70.8283 50.8928 70.8283 50.6644 70.5998 50.5501C70.3713 50.3216 70.0286 50.2074 69.4574 50.2074C69.0005 50.2074 68.6577 50.3216 68.4293 50.4359C68.2008 50.5501 67.9723 50.8928 67.8581 51.3498L66.9441 51.2356C67.0584 50.7786 67.2869 50.4359 67.5153 50.2074C67.7438 49.9789 68.0865 49.7504 68.4293 49.6362C68.772 49.522 69.2289 49.4077 69.8001 49.4077C70.2571 49.4077 70.7141 49.522 71.0568 49.6362C71.3995 49.7504 71.628 49.8647 71.7422 50.0932C71.8565 50.3216 71.9707 50.5501 71.9707 50.7786C71.9707 50.8928 71.9707 51.2356 71.9707 51.6925L71.8565 53.0634C71.7422 53.9773 71.7422 54.5485 71.7422 54.777C71.7422 55.0055 71.8565 55.234 71.9707 55.4624H70.9425C70.5998 55.0055 70.5998 54.777 70.5998 54.5485ZM70.7141 52.2637C70.3713 52.378 69.8001 52.4922 69.0005 52.6064C68.5435 52.7207 68.315 52.7207 68.0865 52.8349C67.8581 52.9492 67.7438 53.0634 67.6296 53.1776C67.5153 53.2919 67.5153 53.5204 67.4011 53.6346C67.4011 53.8631 67.4011 54.0916 67.6296 54.32C67.8581 54.5485 68.0865 54.5485 68.4293 54.5485C68.772 54.5485 69.1147 54.4343 69.4574 54.32C69.8001 54.2058 70.0286 53.9773 70.1429 53.6346C70.2571 53.4061 70.3713 53.0634 70.3713 52.6064L70.7141 52.2637Z" fill="black"/>
<path d="M74.028 49.2932H78.5976L78.0264 55.1195H76.9983L77.4552 50.0929H74.8277L74.485 53.0631C74.3707 53.7486 74.3707 54.2055 74.2565 54.434C74.1423 54.6625 74.028 54.891 73.7995 55.0052C73.5711 55.1195 73.3426 55.2337 72.8856 55.2337C72.6571 55.2337 72.4287 55.2337 72.0859 55.2337L72.2002 54.434H72.6571C72.8856 54.434 72.9999 54.434 73.1141 54.3198C73.2283 54.3198 73.2283 54.2055 73.3426 54.0913C73.3426 53.9771 73.4568 53.7486 73.4568 53.1774L74.028 49.2932Z" fill="black"/>
<path d="M80.1962 49.2932H81.2244L80.9959 51.578H82.2525C83.0522 51.578 83.7376 51.6923 84.0804 52.035C84.5373 52.3777 84.6516 52.8347 84.6516 53.4059C84.6516 53.8628 84.4231 54.3198 83.9661 54.6625C83.5092 55.0052 82.938 55.2337 82.1383 55.2337H79.625L80.1962 49.2932ZM80.6532 54.434H81.6813C82.3668 54.434 82.8237 54.3198 83.0522 54.2055C83.2807 54.0913 83.5092 53.8628 83.5092 53.5201C83.5092 53.2916 83.5092 53.0631 83.2807 52.8347C83.0522 52.6062 82.7095 52.4919 82.0241 52.4919H80.8816L80.6532 54.434Z" fill="black"/>
<path d="M86.1376 49.2932H87.1658L86.9373 51.6923H89.6791L89.9075 49.2932H90.9357L90.3645 55.1195H89.3363L89.5648 52.4919H86.823L86.5946 55.1195H85.5664L86.1376 49.2932Z" fill="black"/>
<path d="M95.7336 54.5485C95.3909 54.8912 94.9339 55.1197 94.5912 55.234C94.2485 55.3482 93.9058 55.4624 93.4488 55.4624C92.7634 55.4624 92.3064 55.3482 91.9637 55.0055C91.621 54.6628 91.5067 54.32 91.621 53.7488C91.621 53.4061 91.7352 53.1776 91.8495 52.9492C91.9637 52.7207 92.1922 52.4922 92.4207 52.378C92.6491 52.2637 92.8776 52.1495 93.2203 52.0352C93.4488 52.0352 93.6773 51.921 94.1343 51.921C94.9339 51.8068 95.5051 51.6925 95.9621 51.5783C95.9621 51.464 95.9621 51.3498 95.9621 51.3498C95.9621 50.8928 95.9621 50.6644 95.7336 50.5501C95.5051 50.3216 95.1624 50.2074 94.5912 50.2074C94.1343 50.2074 93.7915 50.3216 93.5631 50.4359C93.3346 50.5501 93.1061 50.8928 92.9919 51.3498L92.0779 51.2356C92.1922 50.7786 92.4206 50.4359 92.6491 50.2074C92.8776 49.9789 93.2203 49.7504 93.5631 49.6362C93.9058 49.522 94.3627 49.4077 94.9339 49.4077C95.3909 49.4077 95.8479 49.522 96.1906 49.6362C96.5333 49.7504 96.7618 49.8647 96.876 50.0932C96.9903 50.3216 97.1045 50.5501 97.1045 50.7786C97.1045 50.8928 97.1045 51.2356 97.1045 51.6925L96.9903 53.0634C96.876 53.9773 96.876 54.5485 96.876 54.777C96.876 55.0055 96.9903 55.234 97.1045 55.4624H96.0763C95.7336 55.0055 95.7336 54.777 95.7336 54.5485ZM95.8479 52.2637C95.5051 52.378 94.9339 52.4922 94.1343 52.6064C93.6773 52.7207 93.4488 52.7207 93.2203 52.8349C92.9918 52.9492 92.8776 53.0634 92.7634 53.1776C92.6491 53.2919 92.6491 53.5204 92.5349 53.6346C92.5349 53.8631 92.5349 54.0916 92.7634 54.32C92.9918 54.5485 93.2203 54.5485 93.5631 54.5485C93.9058 54.5485 94.2485 54.4343 94.5912 54.32C94.9339 54.2058 95.1624 53.9773 95.2767 53.6346C95.3909 53.4061 95.5051 53.0634 95.5051 52.6064L95.8479 52.2637Z" fill="black"/>
<path d="M103.387 49.2932L102.816 55.2337H101.787L102.016 52.9489H101.445C101.102 52.9489 100.874 52.9489 100.645 53.0631C100.417 53.1774 100.188 53.4059 99.8454 53.9771L98.8172 55.2337H97.5605L98.8172 53.6343C99.1599 53.1774 99.5026 52.8347 99.8454 52.8347C99.2742 52.7204 98.9314 52.6062 98.5887 52.2635C98.3602 51.9207 98.246 51.578 98.246 51.1211C98.246 50.6641 98.4745 50.2071 98.9314 49.8644C99.2741 49.5217 99.8453 49.4075 100.531 49.4075H103.387V49.2932ZM102.244 50.2071H100.874C100.302 50.2071 99.8454 50.3214 99.7311 50.4356C99.5026 50.6641 99.3884 50.7783 99.3884 51.1211C99.3884 51.4638 99.5026 51.6923 99.7311 51.9207C99.9596 52.1492 100.417 52.1492 101.102 52.1492H102.244V50.2071Z" fill="black"/>
<path d="M108.985 52.6064L109.099 51.8068C109.556 51.8068 109.785 51.8068 110.013 51.8068C110.127 51.8068 110.356 51.6925 110.47 51.5783C110.584 51.464 110.699 51.2356 110.699 51.0071C110.699 50.7786 110.699 50.5501 110.47 50.3216C110.242 50.0932 110.127 50.0932 109.785 50.0932C109.214 50.0932 108.757 50.4359 108.528 51.1213L107.614 51.0071C108.071 49.8647 108.757 49.4077 109.899 49.4077C110.47 49.4077 111.041 49.522 111.27 49.8647C111.613 50.2074 111.727 50.6644 111.727 51.1213C111.727 51.5783 111.384 52.0352 110.927 52.2637C111.156 52.378 111.384 52.6064 111.498 52.8349C111.613 53.0634 111.613 53.4061 111.613 53.7488C111.613 54.32 111.27 54.6628 110.927 55.0055C110.47 55.3482 110.013 55.4624 109.214 55.4624C107.843 55.4624 107.157 54.8912 107.043 53.6346L107.957 53.4061C107.957 53.7488 108.185 54.0916 108.414 54.32C108.642 54.5485 108.985 54.6628 109.328 54.6628C109.67 54.6628 109.899 54.5485 110.242 54.4343C110.47 54.2058 110.584 53.9773 110.699 53.7488C110.699 53.5204 110.699 53.2919 110.584 53.1776C110.47 53.0634 110.356 52.9492 110.127 52.8349C110.013 52.8349 109.67 52.7207 109.328 52.7207C109.214 52.6064 109.099 52.6064 108.985 52.6064Z" fill="black"/>
<path d="M116.526 54.5485C116.183 54.8912 115.726 55.1197 115.383 55.234C115.04 55.3482 114.698 55.4624 114.241 55.4624C113.555 55.4624 113.098 55.3482 112.756 55.0055C112.413 54.6628 112.299 54.32 112.413 53.7488C112.413 53.4061 112.527 53.1776 112.641 52.9492C112.756 52.7207 112.984 52.4922 113.213 52.378C113.441 52.2637 113.67 52.1495 114.012 52.0352C114.241 52.0352 114.469 51.921 114.926 51.921C115.726 51.8068 116.297 51.6925 116.754 51.5783C116.754 51.464 116.754 51.3498 116.754 51.3498C116.754 50.8928 116.754 50.6644 116.526 50.5501C116.297 50.3216 115.954 50.2074 115.383 50.2074C114.926 50.2074 114.584 50.3216 114.355 50.4359C114.127 50.5501 113.898 50.8928 113.784 51.3498L112.87 51.2356C112.984 50.7786 113.213 50.4359 113.441 50.2074C113.67 49.9789 114.012 49.7504 114.355 49.6362C114.698 49.522 115.155 49.4077 115.726 49.4077C116.183 49.4077 116.64 49.522 116.983 49.6362C117.325 49.7504 117.554 49.8647 117.668 50.0932C117.782 50.3216 117.896 50.5501 117.896 50.7786C117.896 50.8928 117.896 51.2356 117.896 51.6925L117.782 53.0634C117.668 53.9773 117.668 54.5485 117.668 54.777C117.668 55.0055 117.782 55.234 117.896 55.4624H116.868C116.64 55.0055 116.526 54.777 116.526 54.5485ZM116.64 52.2637C116.297 52.378 115.726 52.4922 114.926 52.6064C114.469 52.7207 114.241 52.7207 114.012 52.8349C113.784 52.9492 113.67 53.0634 113.555 53.1776C113.441 53.2919 113.441 53.5204 113.327 53.6346C113.327 53.8631 113.327 54.0916 113.555 54.32C113.784 54.5485 114.012 54.5485 114.355 54.5485C114.698 54.5485 115.04 54.4343 115.383 54.32C115.726 54.2058 115.954 53.9773 116.069 53.6346C116.183 53.4061 116.297 53.0634 116.297 52.6064L116.64 52.2637Z" fill="black"/>
<path d="M119.609 49.2932H120.637L120.181 54.3198H122.465L122.922 49.2932H123.95L123.493 54.3198H125.778L126.235 49.2932H127.263L126.806 54.3198H127.492L127.263 56.8331H126.464L126.578 55.1195H119.267L119.609 49.2932Z" fill="black"/>
<path d="M128.862 49.2932H129.89L129.433 53.7486L132.632 49.2932H133.66L133.089 55.1195H132.061L132.518 50.6641L129.319 55.1195H128.291L128.862 49.2932Z" fill="black"/>
<path d="M134.689 49.2932H139.488L139.373 50.0929H137.431L136.974 55.1195H135.946L136.403 50.0929H134.461L134.689 49.2932Z" fill="black"/>
<path d="M140.517 49.2932H141.545L141.316 51.6923H144.058L144.286 49.2932H145.315L144.743 55.1195H143.715L143.944 52.4919H141.202L140.973 55.1195H139.945L140.517 49.2932Z" fill="black"/>
<path d="M150.111 54.5485C149.768 54.8912 149.311 55.1197 148.968 55.234C148.625 55.3482 148.283 55.4624 147.826 55.4624C147.14 55.4624 146.683 55.3482 146.341 55.0055C145.998 54.6628 145.884 54.32 145.998 53.7488C145.998 53.4061 146.112 53.1776 146.226 52.9492C146.341 52.7207 146.569 52.4922 146.798 52.378C147.026 52.2637 147.255 52.1495 147.597 52.0352C147.826 52.0352 148.054 51.921 148.511 51.921C149.311 51.8068 149.882 51.6925 150.339 51.5783C150.339 51.464 150.339 51.3498 150.339 51.3498C150.339 50.8928 150.339 50.6644 150.111 50.5501C149.882 50.3216 149.539 50.2074 148.968 50.2074C148.511 50.2074 148.168 50.3216 147.94 50.4359C147.712 50.5501 147.483 50.8928 147.369 51.3498L146.455 51.2356C146.569 50.7786 146.798 50.4359 147.026 50.2074C147.255 49.9789 147.597 49.7504 147.94 49.6362C148.283 49.522 148.74 49.4077 149.311 49.4077C149.768 49.4077 150.225 49.522 150.568 49.6362C150.91 49.7504 151.139 49.8647 151.253 50.0932C151.367 50.3216 151.481 50.5501 151.481 50.7786C151.481 50.8928 151.481 51.2356 151.481 51.6925L151.367 53.0634C151.253 53.9773 151.253 54.5485 151.253 54.777C151.253 55.0055 151.367 55.234 151.481 55.4624H150.453C150.111 55.0055 150.111 54.777 150.111 54.5485ZM150.225 52.2637C149.882 52.378 149.311 52.4922 148.511 52.6064C148.054 52.7207 147.826 52.7207 147.597 52.8349C147.369 52.9492 147.255 53.0634 147.14 53.1776C147.026 53.2919 147.026 53.5204 146.912 53.6346C146.912 53.8631 146.912 54.0916 147.14 54.32C147.369 54.5485 147.597 54.5485 147.94 54.5485C148.283 54.5485 148.625 54.4343 148.968 54.32C149.311 54.2058 149.539 53.9773 149.654 53.6346C149.768 53.4061 149.882 53.0634 149.882 52.6064L150.225 52.2637Z" fill="black"/>
<path d="M157.651 49.2932L157.08 55.1195H156.052L156.281 52.8347H155.709C155.367 52.8347 155.138 52.8347 154.91 52.9489C154.681 53.0631 154.453 53.2916 154.11 53.8628L153.082 55.1195H151.939L153.196 53.5201C153.539 53.0631 153.882 52.7204 154.224 52.7204C153.653 52.6062 153.31 52.4919 152.968 52.1492C152.739 51.8065 152.625 51.4638 152.625 51.0068C152.625 50.5499 152.853 50.0929 153.31 49.7502C153.653 49.4075 154.224 49.2932 154.91 49.2932H157.651ZM156.623 50.2071H155.252C154.681 50.2071 154.224 50.3214 154.11 50.4356C153.882 50.6641 153.767 50.7783 153.767 51.1211C153.767 51.4638 153.882 51.6923 154.11 51.9207C154.338 52.1492 154.795 52.1492 155.481 52.1492H156.623V50.2071Z" fill="black"/>
<path d="M161.651 52.2637C161.765 51.1213 162.108 50.3216 162.793 49.8646C163.364 49.4077 163.936 49.1792 164.735 49.1792C165.535 49.1792 166.22 49.4077 166.677 49.9789C167.134 50.5501 167.363 51.2355 167.249 52.1494C167.134 52.9491 167.02 53.5203 166.677 53.9773C166.449 54.4343 165.992 54.777 165.535 55.0054C165.078 55.2339 164.621 55.3482 164.05 55.3482C163.25 55.3482 162.565 55.1197 162.108 54.5485C161.765 53.9773 161.537 53.2918 161.651 52.2637ZM162.679 52.2637C162.565 53.0634 162.679 53.6346 163.022 53.9773C163.364 54.32 163.707 54.5485 164.164 54.5485C164.621 54.5485 165.078 54.32 165.421 53.9773C165.763 53.6346 165.992 53.0634 166.106 52.2637C166.22 51.5782 166.106 51.007 165.763 50.6643C165.421 50.3216 165.078 50.0931 164.621 50.0931C164.164 50.0931 163.707 50.3216 163.364 50.6643C163.022 51.007 162.793 51.5782 162.679 52.2637Z" fill="black"/>
<path d="M169.19 49.2932H173.303L172.846 54.3198H173.531L173.303 56.8331H172.503L172.617 55.1195H168.048L167.933 56.8331H167.134L167.362 54.3198H167.933C168.505 53.4059 168.962 51.8065 169.19 49.2932ZM169.99 50.2071C169.761 52.1492 169.304 53.5201 168.733 54.434H171.932L172.389 50.2071H169.99Z" fill="black"/>
<path d="M178.672 53.2918L179.7 53.4061C179.472 53.9773 179.129 54.4342 178.672 54.777C178.215 55.1197 177.644 55.2339 176.959 55.2339C176.045 55.2339 175.473 55.0054 175.017 54.4342C174.56 53.863 174.445 53.1776 174.445 52.2637C174.56 51.2355 174.902 50.5501 175.473 49.9789C176.045 49.4077 176.73 49.1792 177.53 49.1792C178.329 49.1792 178.901 49.4077 179.358 49.9789C179.815 50.5501 179.929 51.2355 179.929 52.2637C179.929 52.3779 179.929 52.3779 179.929 52.4922H175.588C175.588 53.1776 175.702 53.6346 176.045 53.9773C176.387 54.32 176.73 54.4342 177.187 54.4342C177.53 54.4342 177.873 54.32 178.101 54.0915C178.329 53.863 178.444 53.7488 178.672 53.2918ZM175.588 51.6925H178.901C178.901 51.2355 178.786 50.7786 178.672 50.5501C178.444 50.2074 177.987 49.9789 177.53 49.9789C177.073 49.9789 176.73 50.0931 176.387 50.4358C175.816 50.7786 175.702 51.2355 175.588 51.6925Z" fill="black"/>
<path d="M184.841 49.2934L184.613 51.8067C184.955 51.8067 185.184 51.6925 185.298 51.5782C185.412 51.464 185.641 51.1213 185.983 50.5501C186.326 49.9789 186.555 49.6362 186.669 49.5219C186.897 49.4077 187.126 49.2934 187.583 49.2934H187.926L187.811 50.0931H187.583C187.354 50.0931 187.126 50.0931 187.012 50.2074C186.897 50.3216 186.783 50.5501 186.555 50.8928C186.326 51.2355 186.212 51.5782 186.098 51.6925C185.983 51.8067 185.755 51.921 185.526 52.1494C185.983 52.2637 186.326 52.6064 186.669 53.2918L187.583 55.1197H186.44L185.526 53.2918C185.298 52.9491 185.184 52.7206 185.07 52.6064C184.955 52.4922 184.727 52.3779 184.498 52.3779L184.27 55.1197H183.242L183.47 52.3779C183.242 52.3779 183.013 52.3779 182.899 52.4922C182.67 52.6064 182.556 52.8349 182.214 53.1776L180.957 55.0054H179.814L181.071 53.1776C181.528 52.4922 181.985 52.1494 182.442 52.0352C182.214 51.921 181.985 51.8067 181.871 51.5782C181.757 51.464 181.642 51.007 181.414 50.4358C181.3 50.2074 181.3 50.0931 181.185 50.0931C181.071 50.0931 180.957 49.9789 180.728 49.9789C180.728 49.9789 180.614 49.9789 180.386 49.9789L180.5 49.1792H180.614C180.957 49.1792 181.3 49.1792 181.414 49.2934C181.528 49.2934 181.642 49.4077 181.757 49.6362C181.871 49.8646 181.985 50.0931 182.099 50.5501C182.328 51.1213 182.442 51.464 182.556 51.5782C182.67 51.6925 182.899 51.8067 183.242 51.8067L183.47 49.2934H184.841Z" fill="black"/>
<path d="M189.638 49.2932H193.751L193.294 54.3198H193.979L193.751 56.8331H192.951L193.066 55.1195H188.496L188.382 56.8331H187.354L187.582 54.3198H188.153C188.953 53.4059 189.41 51.8065 189.638 49.2932ZM190.324 50.2071C190.095 52.1492 189.638 53.5201 189.067 54.434H192.266L192.723 50.2071H190.324Z" fill="black"/>
<path d="M198.779 54.5485C198.436 54.8912 197.979 55.1197 197.636 55.234C197.293 55.3482 196.951 55.4624 196.494 55.4624C195.808 55.4624 195.351 55.3482 195.009 55.0055C194.666 54.6628 194.552 54.32 194.666 53.7488C194.666 53.4061 194.78 53.1776 194.894 52.9492C195.009 52.7207 195.237 52.4922 195.466 52.378C195.694 52.2637 195.923 52.1495 196.265 52.0352C196.494 52.0352 196.722 51.921 197.179 51.921C197.979 51.8068 198.55 51.6925 199.007 51.5783C199.007 51.464 199.007 51.3498 199.007 51.3498C199.007 50.8928 199.007 50.6644 198.779 50.5501C198.55 50.3216 198.207 50.2074 197.636 50.2074C197.179 50.2074 196.836 50.3216 196.608 50.4359C196.38 50.5501 196.151 50.8928 196.037 51.3498L195.123 51.2356C195.237 50.7786 195.466 50.4359 195.694 50.2074C195.923 49.9789 196.265 49.7504 196.608 49.6362C196.951 49.522 197.408 49.4077 197.979 49.4077C198.436 49.4077 198.893 49.522 199.235 49.6362C199.578 49.7504 199.807 49.8647 199.921 50.0932C200.035 50.3216 200.149 50.5501 200.149 50.7786C200.149 50.8928 200.149 51.2356 200.149 51.6925L200.035 53.0634C199.921 53.9773 199.921 54.5485 199.921 54.777C199.921 55.0055 200.035 55.234 200.149 55.4624H199.121C198.893 55.0055 198.779 54.777 198.779 54.5485ZM198.893 52.2637C198.55 52.378 197.979 52.4922 197.179 52.6064C196.722 52.7207 196.494 52.7207 196.265 52.8349C196.037 52.9492 195.923 53.0634 195.808 53.1776C195.694 53.2919 195.694 53.5204 195.58 53.6346C195.58 53.8631 195.58 54.0916 195.808 54.32C196.037 54.5485 196.265 54.5485 196.608 54.5485C196.951 54.5485 197.293 54.4343 197.636 54.32C197.979 54.2058 198.207 53.9773 198.322 53.6346C198.436 53.4061 198.55 53.0634 198.55 52.6064L198.893 52.2637Z" fill="black"/>
<path fill-rule="evenodd" clip-rule="evenodd" d="M8.45379 17.4203L5.94051 43.4671C8.79652 43.4671 11.6525 43.4671 14.5085 43.4671L17.0218 17.4203H25.2471C25.4756 14.7928 25.7041 12.2795 26.0468 9.65196H0.913939C0.685459 12.1652 0.456978 14.7928 0.114258 17.4203H8.45379ZM52.4363 9.7662C44.5537 9.7662 39.1844 9.7662 31.3018 9.7662C30.2737 20.9617 29.1313 32.2715 27.9889 43.5813C35.7572 43.5813 41.5835 43.5813 49.466 43.5813C49.6945 41.068 49.923 38.4405 50.1515 35.9272C45.1249 35.9272 42.1547 35.9272 37.2423 35.9272C37.4708 33.8709 37.5851 31.9288 37.8135 29.9867H49.3518C49.5803 27.4734 49.8088 24.8459 50.0372 22.3326H38.7275L39.1844 17.5345C44.211 17.5345 46.61 17.5345 51.6366 17.5345C51.9793 14.7928 52.2078 12.2795 52.4363 9.7662ZM56.6632 26.6738C55.635 38.212 63.7461 43.924 72.3141 43.924C79.5112 43.924 87.3938 40.1541 89.6786 30.5579C86.7084 30.5579 84.0808 30.5579 81.2248 30.5579C79.9682 34.2136 76.8837 36.0415 73.1138 36.0415C67.973 36.0415 65.117 31.7003 65.5739 26.6738C66.1451 21.076 69.8008 17.3061 74.8274 17.3061C78.4831 17.3061 80.8821 18.9054 81.6818 22.3326C84.652 22.3326 87.2796 22.3326 90.1356 22.3326C89.6786 13.3076 82.4815 9.53772 75.5128 9.53772C67.059 9.30924 57.8056 15.1355 56.6632 26.6738Z" fill="#94120A"/>
<path fill-rule="evenodd" clip-rule="evenodd" d="M112.756 9.76611C107.844 9.76611 102.817 9.76611 97.9048 9.76611C96.7624 21.0759 95.7342 32.2714 94.5918 43.5812C97.3336 43.5812 100.304 43.5812 103.274 43.5812L104.188 33.6423H108.643L113.441 43.5812H123.038L123.152 42.3246L117.554 31.586C126.808 25.7597 126.008 9.76611 112.756 9.76611ZM111.157 25.874H104.988C105.216 23.1322 105.559 20.162 105.787 17.4202C107.844 17.4202 109.9 17.4202 111.956 17.4202C116.869 17.5344 115.84 25.874 111.157 25.874Z" fill="black"/>
<path fill-rule="evenodd" clip-rule="evenodd" d="M209.06 0.855398C212.144 0.855398 214.657 3.36868 214.657 6.45317C214.657 9.53765 212.144 12.0509 209.06 12.0509C205.975 12.0509 203.462 9.53765 203.462 6.45317C203.576 3.36868 205.975 0.855398 209.06 0.855398ZM209.06 0.398438C205.747 0.398438 203.119 3.02596 203.119 6.33893C203.119 9.65189 205.747 12.2794 209.06 12.2794C212.373 12.2794 215 9.65189 215 6.33893C215 3.1402 212.373 0.398438 209.06 0.398438Z" fill="black"/>
<path fill-rule="evenodd" clip-rule="evenodd" d="M206.204 9.88022V2.56885H209.517C210.203 2.56885 210.659 2.68309 211.002 2.79733C211.345 2.91157 211.573 3.14005 211.802 3.48277C212.03 3.82549 212.145 4.16821 212.145 4.62517C212.145 5.19637 212.03 5.53909 211.688 5.99605C211.345 6.33878 210.888 6.56726 210.088 6.6815C210.317 6.79574 210.545 6.90998 210.659 7.02422C210.888 7.2527 211.231 7.59542 211.459 8.05238L212.716 10.1087H211.459L210.431 8.62358C210.203 8.16662 209.86 7.8239 209.746 7.59542C209.517 7.36694 209.403 7.2527 209.289 7.13846C209.174 7.02422 208.946 7.02422 208.832 6.90998C208.717 6.90998 208.489 6.90998 208.26 6.90998H207.118V10.2229H206.204V9.88022ZM207.118 5.76757H209.174C209.631 5.76757 209.974 5.76757 210.203 5.65333C210.431 5.53909 210.659 5.42485 210.774 5.19637C210.888 4.96789 211.002 4.73941 211.002 4.51093C211.002 4.16821 210.888 3.82549 210.659 3.59701C210.431 3.36853 209.974 3.25429 209.517 3.25429H207.232V5.76757H207.118Z" fill="black"/>
<path fill-rule="evenodd" clip-rule="evenodd" d="M147.828 9.19482L146.914 17.6486C150.912 17.9913 154.339 20.9616 153.768 26.7878C153.197 32.6141 148.97 35.6986 144.972 35.927L144.058 44.2666C152.626 44.0381 161.536 38.2118 162.565 26.6736C163.707 15.3638 156.167 9.53754 147.828 9.19482Z" fill="black"/>
<path fill-rule="evenodd" clip-rule="evenodd" d="M143.715 35.8128C139.716 35.4701 136.289 32.4998 136.746 26.6736C137.317 20.8473 141.544 17.7628 145.657 17.5343L146.571 9.08057C138.003 9.19481 129.092 15.0211 127.95 26.5593C126.807 37.9833 134.461 43.8096 142.801 44.0381L143.715 35.8128Z" fill="black"/>
<path fill-rule="evenodd" clip-rule="evenodd" d="M191.01 9.76611L189.41 26.3309L185.183 21.7613L183.927 33.2996L193.409 43.5812H196.493L199.806 9.76611C196.836 9.76611 193.98 9.76611 191.01 9.76611Z" fill="black"/>
<path fill-rule="evenodd" clip-rule="evenodd" d="M184.04 20.5049L173.873 9.53784H170.789L167.476 43.4672C170.446 43.4672 173.416 43.4672 176.386 43.4672L177.986 26.9024L182.784 32.0432L184.04 20.5049Z" fill="black"/>
</svg>
