<svg version="1.1" xmlns="http://www.w3.org/2000/svg" xmlns:xlink="http://www.w3.org/1999/xlink">

    <!-- vk -->
    <symbol viewBox="0 0 18 11" id="vk">
        <path d="M17.1389 1.18152C17.1389 1.18152 17.0138 0.82408 16.2364 0.922375L13.6628 0.940248C13.4663 0.91344 13.3233 0.993863 13.3233 0.993863C13.3233 0.993863 13.1714 1.07429 13.0999 1.27088C12.6799 2.35213 12.1437 3.28147 12.1437 3.28147C10.9999 5.22951 10.5353 5.33674 10.3476 5.21164C9.90974 4.93462 10.0259 4.08571 10.0259 3.47806C10.0259 1.58364 10.3119 0.797272 9.46295 0.591744C9.18593 0.529193 8.9804 0.484513 8.25659 0.475577C7.33619 0.466641 6.55876 0.475577 6.1209 0.690041C5.82601 0.833016 5.60261 1.15471 5.73665 1.17258C5.90643 1.19939 6.29068 1.27981 6.49621 1.55683C6.49621 1.55683 6.71961 1.9232 6.75535 2.72744C6.85364 4.9525 6.39791 5.22951 6.39791 5.22951C6.04941 5.41717 5.44176 5.10441 4.54817 3.2636C4.54817 3.2636 4.02988 2.35213 3.62776 1.3513C3.55627 1.16365 3.4133 1.06535 3.4133 1.06535C3.4133 1.06535 3.25245 0.940248 3.02012 0.904503L0.571662 0.922375C0.196351 0.922375 0.0623117 1.09216 0.0623117 1.09216C0.0623117 1.09216 -0.0717277 1.23513 0.0533758 1.53002C1.96567 6.02481 4.14605 8.27667 4.14605 8.27667C4.14605 8.27667 6.13877 10.3588 8.39957 10.2158H9.4272C9.73996 10.189 9.90081 10.0192 9.90081 10.0192C9.90081 10.0192 10.0438 9.85834 10.0348 9.56345C10.017 8.18731 10.6604 7.98179 10.6604 7.98179C11.2859 7.7852 12.0901 9.31325 12.948 9.90302C12.948 9.90302 13.6003 10.3498 14.0918 10.2515L16.3794 10.2158C17.5857 10.2068 17.0138 9.20601 17.0138 9.20601C16.9692 9.12559 16.6832 8.50901 15.3071 7.23117C13.8773 5.89971 14.065 6.11417 15.7985 3.80869C16.853 2.40574 17.273 1.54789 17.1389 1.18152Z"/>
    </symbol>

    <!-- wechat -->
    <symbol viewBox="0 0 24 24" fill-rule="evenodd" clip-rule="evenodd" id="wechat">
        <path d="M21.502 19.525c1.524-1.105 2.498-2.738 2.498-4.554 0-3.326-3.237-6.023-7.229-6.023s-7.229 2.697-7.229 6.023c0 3.327 3.237 6.024 7.229 6.024.825 0 1.621-.117 2.36-.33l.212-.032c.139 0 .265.043.384.111l1.583.914.139.045c.133 0 .241-.108.241-.241l-.039-.176-.326-1.215-.025-.154c0-.162.08-.305.202-.392zm-12.827-17.228c-4.791 0-8.675 3.236-8.675 7.229 0 2.178 1.168 4.139 2.997 5.464.147.104.243.276.243.471l-.03.184-.391 1.458-.047.211c0 .16.13.29.289.29l.168-.054 1.899-1.097c.142-.082.293-.133.46-.133l.255.038c.886.255 1.842.397 2.832.397l.476-.012c-.188-.564-.291-1.158-.291-1.771 0-3.641 3.542-6.593 7.911-6.593l.471.012c-.653-3.453-4.24-6.094-8.567-6.094zm5.686 11.711c-.532 0-.963-.432-.963-.964 0-.533.431-.964.963-.964.533 0 .964.431.964.964 0 .532-.431.964-.964.964zm4.82 0c-.533 0-.964-.432-.964-.964 0-.533.431-.964.964-.964.532 0 .963.431.963.964 0 .532-.431.964-.963.964zm-13.398-5.639c-.639 0-1.156-.518-1.156-1.156 0-.639.517-1.157 1.156-1.157.639 0 1.157.518 1.157 1.157 0 .638-.518 1.156-1.157 1.156zm5.783 0c-.639 0-1.156-.518-1.156-1.156 0-.639.517-1.157 1.156-1.157.639 0 1.157.518 1.157 1.157 0 .638-.518 1.156-1.157 1.156z"/>
    </symbol>

    <!-- pinterest -->
    <symbol  viewBox="0 0 12 15" id="pinterest">
        <path d="M0.974609 5.30441C0.974609 6.40616 1.41195 8.01253 2.61462 8.37418C2.65667 8.38259 2.71555 8.39941 2.7576 8.39941C3.03514 8.39941 3.19493 7.62566 3.19493 7.40699C3.19493 7.14627 2.53052 6.59119 2.53052 5.50626C2.53052 3.25229 4.24622 1.65433 6.46655 1.65433C8.37569 1.65433 9.78863 2.73926 9.78863 4.73251C9.78863 6.22113 9.19149 9.01336 7.25712 9.01336C6.55906 9.01336 5.96193 8.50874 5.96193 7.78545C5.96193 6.72575 6.70204 5.69969 6.70204 4.60635C6.70204 3.94194 6.32357 3.40368 5.61711 3.40368C4.65833 3.40368 4.06961 4.4802 4.06961 5.32964C4.06961 5.80062 4.12848 6.32206 4.33874 6.75098C3.95186 8.41623 3.16129 10.8973 3.16129 12.613C3.16129 13.1428 3.23699 13.6643 3.28745 14.1941L3.36314 14.2782L3.48088 14.2362C4.89382 12.3018 4.84336 11.9233 5.48254 9.39182C5.82736 10.0478 6.71886 10.4011 7.42533 10.4011C10.4026 10.4011 11.7398 7.4995 11.7398 4.88389C11.7398 2.10008 9.33447 0.283447 6.69363 0.283447C3.8173 0.283447 0.974609 2.201 0.974609 5.30441Z" />
    </symbol>

    <!-- instagram -->
    <symbol viewBox="0 0 17 16" id="instagram">
        <path fill-rule="evenodd" clip-rule="evenodd" d="M8.51521 1.35516C9.52072 1.31744 10.5276 1.34545 11.5295 1.43899C12.0155 1.43303 12.4983 1.51834 12.9528 1.69049C13.5798 1.98274 14.0838 2.48671 14.3761 3.11379C14.5482 3.56831 14.6335 4.0511 14.6276 4.53709C14.6276 5.29065 14.7114 5.54215 14.7114 7.55134C14.7491 8.55685 14.7211 9.56375 14.6276 10.5656C14.6335 11.0516 14.5482 11.5344 14.3761 11.9889C14.0838 12.616 13.5798 13.1199 12.9528 13.4122C12.4983 13.5843 12.0155 13.6697 11.5295 13.6637C10.7759 13.6637 10.5244 13.7475 8.51521 13.7475C7.5097 13.7852 6.50281 13.7572 5.50095 13.6637C5.01496 13.6697 4.53217 13.5843 4.07766 13.4122C3.45058 13.1199 2.9466 12.616 2.65436 11.9889C2.48221 11.5344 2.3969 11.0516 2.40286 10.5656C2.40286 9.81204 2.31903 9.56054 2.31903 7.55134C2.28131 6.54584 2.30931 5.53894 2.40286 4.53709C2.3969 4.0511 2.48221 3.56831 2.65436 3.11379C2.80044 2.80327 2.9986 2.52004 3.24026 2.27639C3.43651 1.98345 3.7352 1.77446 4.07766 1.69049C4.53217 1.51834 5.01496 1.43303 5.50095 1.43899C6.50281 1.34545 7.5097 1.31744 8.51521 1.35516ZM8.51521 0.0156972C7.48178 -0.0211344 6.44705 0.00686525 5.41712 0.0995313C4.78804 0.0980191 4.16398 0.211341 3.57559 0.433926C3.06752 0.599695 2.60768 0.887175 2.23613 1.27132C1.85151 1.64304 1.56369 2.10322 1.39779 2.61173C1.13514 3.18828 1.02022 3.82117 1.0634 4.45325C0.970732 5.48318 0.942733 6.51791 0.979564 7.55134C0.942733 8.58478 0.970732 9.6195 1.0634 10.6494C1.06207 11.2789 1.17572 11.9033 1.39873 12.4919C1.5645 13 1.85198 13.4598 2.23613 13.8314C2.60768 14.2155 3.06752 14.503 3.57559 14.6688C4.16421 14.8918 4.78861 15.0054 5.41806 15.0041C6.4477 15.0964 7.48211 15.1241 8.51521 15.087C9.54865 15.1238 10.5834 15.0958 11.6133 15.0032C12.2428 15.0045 12.8672 14.8908 13.4558 14.6678C13.9601 14.4941 14.4182 14.2078 14.7954 13.8306C15.1726 13.4534 15.4589 12.9953 15.6326 12.491C15.8556 11.9023 15.9693 11.2779 15.968 10.6485C15.967 9.81204 16.0509 9.56054 16.0509 7.55134C16.0877 6.51791 16.0597 5.48318 15.967 4.45325C15.9684 3.8238 15.8547 3.1994 15.6317 2.61079C15.4659 2.10271 15.1784 1.64287 14.7943 1.27132C14.4227 0.887175 13.9629 0.599695 13.4548 0.433926C12.8664 0.211341 12.2424 0.0980191 11.6133 0.0995313C10.5834 0.00686525 9.54865 -0.0211344 8.51521 0.0156972ZM8.51521 3.69969C8.00709 3.69128 7.50246 3.78516 7.03136 3.97575C6.56025 4.16634 6.1323 4.44974 5.77295 4.80908C5.4136 5.16843 5.1302 5.59639 4.93962 6.06749C4.74903 6.53859 4.65515 7.04322 4.66355 7.55134C4.66355 8.31313 4.88945 9.05781 5.31267 9.69121C5.7359 10.3246 6.33745 10.8183 7.04125 11.1098C7.74504 11.4013 8.51948 11.4776 9.26663 11.329C10.0138 11.1804 10.7001 10.8135 11.2387 10.2749C11.7774 9.73621 12.1442 9.04991 12.2929 8.30276C12.4415 7.55562 12.3652 6.78118 12.0737 6.07738C11.7822 5.37358 11.2885 4.77203 10.6551 4.34881C10.0217 3.92558 9.277 3.69969 8.51521 3.69969ZM8.51521 10.0635C8.18362 10.0697 7.85419 10.0089 7.54662 9.88481C7.23906 9.76073 6.95967 9.57591 6.72516 9.3414C6.49064 9.10689 6.30582 8.8275 6.18175 8.51993C6.05767 8.21236 5.99688 7.88294 6.00302 7.55134C5.99688 7.21975 6.05767 6.89032 6.18175 6.58276C6.30582 6.27519 6.49064 5.9958 6.72516 5.76129C6.95967 5.52678 7.23906 5.34196 7.54662 5.21788C7.85419 5.0938 8.18362 5.03301 8.51521 5.03915C8.84681 5.03301 9.17623 5.0938 9.4838 5.21788C9.79136 5.34196 10.0708 5.52678 10.3053 5.76129C10.5398 5.9958 10.7246 6.27519 10.8487 6.58276C10.9728 6.89032 11.0335 7.21975 11.0274 7.55134C11.0335 7.88294 10.9728 8.21236 10.8487 8.51993C10.7246 8.8275 10.5398 9.10689 10.3053 9.3414C10.0708 9.57591 9.79136 9.76073 9.4838 9.88481C9.17623 10.0089 8.84681 10.0697 8.51521 10.0635ZM12.5345 2.61173C12.3523 2.61173 12.1742 2.66576 12.0227 2.76698C11.8712 2.86821 11.7532 3.01209 11.6834 3.18042C11.6137 3.34875 11.5955 3.53398 11.631 3.71268C11.6666 3.89139 11.7543 4.05553 11.8831 4.18437C12.012 4.31321 12.1761 4.40095 12.3548 4.43649C12.5335 4.47204 12.7187 4.45379 12.8871 4.38407C13.0554 4.31434 13.1993 4.19627 13.3005 4.04477C13.4017 3.89327 13.4558 3.71516 13.4558 3.53296C13.4538 3.28924 13.3561 3.05607 13.1838 2.88373C13.0114 2.71139 12.7783 2.6137 12.5345 2.61173Z" />
    </symbol>
   
    <!-- twitter -->
    <symbol viewBox="0 0 16 14" id="twitter">
        <path fill-rule="evenodd" clip-rule="evenodd" d="M5.08344 13.1242C6.24091 13.1347 7.38886 12.9144 8.46024 12.4762C9.53162 12.038 10.505 11.3908 11.3234 10.5722C12.1418 9.75371 12.789 8.7803 13.227 7.70887C13.6651 6.63745 13.8853 5.48948 13.8747 4.33201V3.91378C14.4597 3.46835 14.9687 2.93107 15.3818 2.32281C14.8203 2.5669 14.229 2.73571 13.6232 2.82488C14.2459 2.43381 14.718 1.84353 14.9627 1.15008C14.3578 1.48691 13.7101 1.74039 13.0373 1.90364C12.7539 1.5847 12.4056 1.33009 12.0156 1.1569C11.6257 0.983707 11.2033 0.895949 10.7766 0.899519C9.95882 0.911914 9.17799 1.2423 8.59965 1.82064C8.02131 2.39898 7.69092 3.17981 7.67852 3.99761C7.65951 4.22426 7.68806 4.45238 7.76236 4.66734C6.53016 4.60788 5.3249 4.28573 4.22735 3.7225C3.1298 3.15926 2.16531 2.36795 1.3985 1.40158C1.12295 1.88644 0.978787 2.43486 0.980276 2.99254C0.991327 3.49865 1.11773 3.99556 1.34984 4.44543C1.58196 4.89531 1.91368 5.28628 2.31974 5.58858C1.81653 5.5784 1.32517 5.43402 0.896445 5.17035C0.895661 5.8875 1.14675 6.58216 1.6059 7.13307C2.06505 7.68397 2.70308 8.05614 3.40864 8.18461C3.13597 8.25818 2.85308 8.2865 2.57124 8.26844C2.37223 8.2818 2.17262 8.25324 1.98534 8.18461C2.19006 8.80512 2.58144 9.34727 3.10596 9.73691C3.63049 10.1266 4.26257 10.3447 4.91577 10.3615C3.8151 11.2212 2.46071 11.6922 1.06411 11.7009C0.810024 11.7145 0.555432 11.6862 0.310547 11.6171C1.69621 12.6233 3.37121 13.1522 5.08344 13.1242Z" />
    </symbol>

    <!-- facebook -->
    <symbol viewBox="0 0 9 16" id="facebook">
        <path fill-rule="evenodd" clip-rule="evenodd" d="M5.74791 15.0869V8.221H8.09244L8.42777 5.54208H5.74791V3.86728C5.74791 3.11372 5.99941 2.52782 7.08737 2.52782H8.51067V0.0994599C8.17627 0.0994599 7.33888 0.0156258 6.41764 0.0156258C5.95164 -0.0152718 5.48448 0.0551944 5.04832 0.222172C4.61217 0.38915 4.21739 0.648672 3.89116 0.982867C3.56493 1.31706 3.31501 1.71799 3.15861 2.15805C3.0022 2.5981 2.94302 3.06683 2.98515 3.53195V5.54208H0.640625V8.221H2.98515V15.0869H5.74791Z" />
    </symbol>

    <!-- phone -->
    <symbol viewBox="0 0 19 18" id="phone">
        <path d="M18.3735 14.3661C18.3735 14.2802 18.3735 14.1943 18.3357 14.1083C18.2476 13.8505 17.6306 13.5804 17.3787 13.4577C16.661 13.0648 15.9307 12.6842 15.2256 12.2791C14.8982 12.0827 14.4953 11.7144 14.1049 11.7144C13.3368 11.7144 12.2162 13.9365 11.5362 13.9365C11.1963 13.9365 10.7556 13.6295 10.4534 13.4577C8.1617 12.2177 6.57516 10.6708 5.30341 8.43645C5.12713 8.14181 4.81234 7.71212 4.81234 7.38065C4.81234 6.7177 7.09142 5.62507 7.09142 4.87619C7.09142 4.49561 6.71367 4.10275 6.51221 3.78355C6.09668 3.09605 5.70635 2.384 5.30341 1.68422C5.1775 1.43869 4.90048 0.837124 4.63606 0.751186C4.54792 0.714355 4.45978 0.714355 4.37164 0.714355C3.91834 0.714355 3.03693 0.910785 2.62141 1.09494C2.00442 1.35275 1.60149 2.04025 1.2867 2.5927C0.883771 3.31703 0.644531 4.05364 0.644531 4.87619C0.644531 6.01793 1.12301 7.04918 1.51335 8.0927C1.79036 8.84159 2.13034 9.56592 2.55845 10.2411C3.88057 12.3282 6.46184 14.8449 8.60241 16.134C9.29494 16.5514 10.0378 16.8829 10.8059 17.153C11.8762 17.5336 12.9339 18.0001 14.1049 18.0001C14.9486 18.0001 15.7041 17.7668 16.447 17.374C17.0136 17.067 17.7187 16.6742 17.9831 16.0726C18.172 15.6675 18.3735 14.8081 18.3735 14.3661Z" />
    </symbol>

    <!-- whatsapp -->
    <symbol viewBox="0 0 20 20" id="whatsapp">
        <path d="M17.0781 2.83594C15.3164 1.03125 12.9102 0 10.332 0C5.08984 0 0.792969 4.29688 0.792969 9.53906C0.792969 11.2578 1.26562 12.8906 2.08203 14.3086L0.75 19.25L5.77734 17.9609C7.19531 18.6914 8.74219 19.1211 10.332 19.1211C15.6172 19.1211 20 14.8242 20 9.58203C20 7.00391 18.8828 4.64062 17.0781 2.83594ZM10.332 17.4883C8.91406 17.4883 7.53906 17.1016 6.29297 16.3711L6.03516 16.1992L3.02734 17.0156L3.84375 14.0938L3.62891 13.793C2.85547 12.5039 2.42578 11.043 2.42578 9.53906C2.42578 5.19922 5.99219 1.63281 10.375 1.63281C12.4805 1.63281 14.457 2.44922 15.9609 3.95312C17.4648 5.45703 18.3672 7.43359 18.3672 9.58203C18.3672 13.9219 14.7148 17.4883 10.332 17.4883ZM14.7148 11.5586C14.457 11.4297 13.2969 10.8711 13.082 10.7852C12.8672 10.6992 12.6953 10.6562 12.5234 10.9141C12.3945 11.1289 11.9219 11.6875 11.793 11.8594C11.6211 11.9883 11.4922 12.0312 11.2773 11.9023C9.85938 11.2148 8.95703 10.6562 8.01172 9.06641C7.75391 8.63672 8.26953 8.67969 8.69922 7.77734C8.78516 7.60547 8.74219 7.47656 8.69922 7.34766C8.65625 7.21875 8.14062 6.05859 7.96875 5.58594C7.75391 5.11328 7.58203 5.15625 7.41016 5.15625C7.28125 5.15625 7.10938 5.15625 6.98047 5.15625C6.80859 5.15625 6.55078 5.19922 6.33594 5.45703C6.12109 5.71484 5.51953 6.27344 5.51953 7.43359C5.51953 8.63672 6.33594 9.75391 6.46484 9.92578C6.59375 10.0547 8.14062 12.4609 10.5469 13.4922C12.0508 14.1797 12.6523 14.2227 13.4258 14.0938C13.8555 14.0508 14.8008 13.5352 15.0156 12.9766C15.2305 12.418 15.2305 11.9453 15.1445 11.8594C15.1016 11.7305 14.9297 11.6875 14.7148 11.5586Z" />
    </symbol>

    <!-- mail -->
    <symbol viewBox="0 0 23 18" id="mail">
        <path d="M21.3602 15.607C21.3602 15.8157 21.1765 15.9999 20.9682 15.9999H2.93917C2.73096 15.9999 2.54724 15.8157 2.54724 15.607V6.17849C2.80445 6.47313 3.08615 6.74322 3.39235 6.98875C5.14382 8.3392 6.90753 9.71419 8.61 11.1383C9.5286 11.9117 10.6677 12.857 11.9415 12.857H11.9537H11.966C13.2397 12.857 14.3788 11.9117 15.2974 11.1383C16.9999 9.71419 18.7636 8.3392 20.5151 6.98875C20.8213 6.74322 21.103 6.47313 21.3602 6.17849V15.607ZM21.3602 2.70417C21.3602 3.74769 20.3558 5.11041 19.5597 5.73652C17.9185 7.02558 16.2773 8.32692 14.6483 9.62826C13.9991 10.1562 12.8233 11.2856 11.966 11.2856H11.9537H11.9415C11.0841 11.2856 9.90829 10.1562 9.25915 9.62826C7.63016 8.32692 5.98893 7.02558 4.34769 5.73652C3.24537 4.86487 2.54724 3.64948 2.54724 2.24993C2.54724 2.04122 2.73096 1.85707 2.93917 1.85707H20.9682C21.4337 1.85707 21.3602 2.39725 21.3602 2.70417ZM22.9279 2.24993C22.9279 1.16957 22.0461 0.285645 20.9682 0.285645H2.93917C1.86135 0.285645 0.979492 1.16957 0.979492 2.24993V15.607C0.979492 16.6874 1.86135 17.5713 2.93917 17.5713H20.9682C22.0461 17.5713 22.9279 16.6874 22.9279 15.607V2.24993Z" />
    </symbol>

    <!-- skype -->
    <symbol viewBox="0 0 15 16" id="skype">
        <path d="M11.1278 9.52818C11.1278 11.454 9.26842 12.3457 7.48493 12.3457C5.35045 12.3457 3.56696 11.397 3.56696 10.2302C3.56696 9.70843 3.86105 9.2341 4.52511 9.2341C5.54018 9.2341 5.63505 10.695 7.39007 10.695C8.22489 10.695 8.76562 10.3251 8.76562 9.84124C8.76562 9.2341 8.24386 9.13923 7.39955 8.93052L6.01451 8.58901C4.62946 8.25698 3.56696 7.68778 3.56696 6.09403C3.56696 4.16825 5.47377 3.45675 7.11496 3.45675C8.90792 3.45675 10.7199 4.16825 10.7199 5.25921C10.7199 5.80943 10.3499 6.29325 9.73326 6.29325C8.81306 6.29325 8.7846 5.20229 7.2952 5.20229C6.46038 5.20229 5.92913 5.42997 5.92913 5.93276C5.92913 6.48298 6.46987 6.60631 7.19085 6.77707L8.17746 7.00474C9.52455 7.30831 11.1278 7.87751 11.1278 9.52818ZM14.5714 11.5868C14.5714 10.752 14.2868 9.98354 13.8125 9.36691C13.9074 8.91155 13.9643 8.42774 13.9643 7.94392C13.9643 4.25363 10.976 1.26535 7.28572 1.26535C6.8019 1.26535 6.31808 1.32227 5.86272 1.41713C5.24609 0.942802 4.47768 0.658203 3.64286 0.658203C1.6317 0.658203 0 2.2899 0 4.30106C0 5.13588 0.284598 5.9043 0.758929 6.52093C0.664062 6.97628 0.607143 7.4601 0.607143 7.94392C0.607143 11.6342 3.59542 14.6225 7.28572 14.6225C7.76953 14.6225 8.25335 14.5656 8.70871 14.4707C9.32533 14.945 10.0938 15.2296 10.9286 15.2296C12.9397 15.2296 14.5714 13.5979 14.5714 11.5868Z" />
    </symbol>

    <!-- message -->
    <symbol viewBox="0 0 20 14" id="message">
        <path fill-rule="evenodd" clip-rule="evenodd" d="M17.0807 2.41133H3.2707L10.1707 8.16533L17.0807 2.41133ZM0.970703 2.41133C0.972812 1.80198 1.21581 1.21819 1.64669 0.787312C2.07756 0.356434 2.66135 0.113437 3.2707 0.111328L17.0807 0.111328C17.6901 0.113437 18.2738 0.356434 18.7047 0.787312C19.1356 1.21819 19.3786 1.80198 19.3807 2.41133V11.6173C19.3786 12.2267 19.1356 12.8105 18.7047 13.2413C18.2738 13.6722 17.6901 13.9152 17.0807 13.9173H3.2707C2.66135 13.9152 2.07756 13.6722 1.64669 13.2413C1.21581 12.8105 0.972812 12.2267 0.970703 11.6173V2.41133Z" />
    </symbol>

    <!-- search -->
    <symbol viewBox="0 0 19 19" id="search">
        <path d="M18.6937 17.4023L12.607 11.3156C13.5516 10.0945 14.0625 8.60156 14.0625 7.03125C14.0625 5.15156 13.3289 3.38906 12.0023 2.06016C10.6758 0.73125 8.90859 0 7.03125 0C5.15391 0 3.38672 0.733594 2.06016 2.06016C0.73125 3.38672 0 5.15156 0 7.03125C0 8.90859 0.733594 10.6758 2.06016 12.0023C3.38672 13.3312 5.15156 14.0625 7.03125 14.0625C8.60156 14.0625 10.0922 13.5516 11.3133 12.6094L17.4 18.6937C17.4178 18.7116 17.439 18.7258 17.4624 18.7354C17.4857 18.7451 17.5107 18.7501 17.5359 18.7501C17.5612 18.7501 17.5862 18.7451 17.6095 18.7354C17.6328 18.7258 17.654 18.7116 17.6719 18.6937L18.6937 17.6742C18.7116 17.6564 18.7258 17.6352 18.7354 17.6119C18.7451 17.5885 18.7501 17.5635 18.7501 17.5383C18.7501 17.513 18.7451 17.488 18.7354 17.4647C18.7258 17.4414 18.7116 17.4202 18.6937 17.4023ZM10.7438 10.7438C9.75 11.7352 8.43281 12.2812 7.03125 12.2812C5.62969 12.2812 4.3125 11.7352 3.31875 10.7438C2.32734 9.75 1.78125 8.43281 1.78125 7.03125C1.78125 5.62969 2.32734 4.31016 3.31875 3.31875C4.3125 2.32734 5.62969 1.78125 7.03125 1.78125C8.43281 1.78125 9.75234 2.325 10.7438 3.31875C11.7352 4.3125 12.2812 5.62969 12.2812 7.03125C12.2812 8.43281 11.7352 9.75234 10.7438 10.7438Z" />
    </symbol>

    <!-- search large -->
    <svg viewBox="0 0 20 20" fill="none" id="search_lg">
    <path d="M19 19L14.65 14.65M17 9C17 13.4183 13.4183 17 9 17C4.58172 17 1 13.4183 1 9C1 4.58172 4.58172 1 9 1C13.4183 1 17 4.58172 17 9Z" stroke-width="2" stroke-linecap="round" stroke-linejoin="round"/>
    </svg>

    <!-- chat -->
    <symbol viewBox="0 0 24 24" id="chat">
        <path d="M20 9.352c0-4.852-4.75-8.352-10-8.352-5.281 0-10 3.527-10 8.352 0 1.71.615 3.39 1.705 4.695.047 1.527-.85 3.719-1.66 5.312 2.168-.391 5.252-1.258 6.648-2.115 7.698 1.877 13.307-2.842 13.307-7.892zm-14.5 1.381c-.689 0-1.25-.56-1.25-1.25s.561-1.25 1.25-1.25 1.25.56 1.25 1.25-.561 1.25-1.25 1.25zm4.5 0c-.689 0-1.25-.56-1.25-1.25s.561-1.25 1.25-1.25 1.25.56 1.25 1.25-.561 1.25-1.25 1.25zm4.5 0c-.689 0-1.25-.56-1.25-1.25s.561-1.25 1.25-1.25 1.25.56 1.25 1.25-.561 1.25-1.25 1.25zm7.036 1.441c-.161.488-.361.961-.601 1.416 1.677 1.262 2.257 3.226.464 5.365-.021.745-.049 1.049.138 1.865-.892-.307-.979-.392-1.665-.813-2.127.519-4.265.696-6.089-.855-.562.159-1.145.278-1.74.364 1.513 1.877 4.298 2.897 7.577 2.1.914.561 2.933 1.127 4.352 1.385-.53-1.045-1.117-2.479-1.088-3.479 1.755-2.098 1.543-5.436-1.348-7.348z"/>
    </symbol>

    <!-- arrow (down) -->   
    <symbol viewBox="0 0 11 7" id="arrow">
        <path d="M1 1L5.5 5.5L10 1" stroke="#4F5355" stroke-width="1.3" stroke-linecap="round" stroke-linejoin="round"/>
    </symbol>
  
    <!-- close -->
    <symbol fill-rule="evenodd" clip-rule="evenodd" viewBox="0 0 24 24" id="icon-close">
        <path d="M12 11.293l10.293-10.293.707.707-10.293 10.293 10.293 10.293-.707.707-10.293-10.293-10.293 10.293-.707-.707 10.293-10.293-10.293-10.293.707-.707 10.293 10.293z"/>
    </symbol>

    <!-- hashtag -->
    <symbol viewBox="0 0 216 200" id="hashtag">
        <path d="M204 79.9998C207.183 79.9998 210.235 78.7355 212.485 76.485C214.736 74.2346 216 71.1824 216 67.9998C216 64.8172 214.736 61.7649 212.485 59.5145C210.235 57.264 207.183 55.9998 204 55.9998H160.197L167.807 14.1462C168.376 11.0149 167.678 7.78571 165.866 5.16899C164.055 2.55227 161.278 0.762385 158.146 0.193097C155.015 -0.37619 151.786 0.321751 149.169 2.13338C146.553 3.94501 144.763 6.72192 144.193 9.85324L135.803 55.9998H96.1968L103.807 14.1462C104.376 11.0149 103.678 7.78571 101.866 5.16899C100.055 2.55227 97.2778 0.762385 94.1465 0.193097C91.0152 -0.37619 87.786 0.321751 85.1693 2.13338C82.5525 3.94501 80.7626 6.72192 80.1934 9.85324L71.8032 55.9998H23.6367C20.4541 55.9998 17.4019 57.264 15.1514 59.5145C12.901 61.7649 11.6367 64.8172 11.6367 67.9998C11.6367 71.1824 12.901 74.2346 15.1514 76.485C17.4019 78.7355 20.4541 79.9998 23.6367 79.9998H67.4395L60.167 120H12C8.8174 120 5.76516 121.264 3.51472 123.514C1.26428 125.765 0 128.817 0 132C0 135.182 1.26428 138.235 3.51472 140.485C5.76516 142.735 8.8174 144 12 144H55.8032L48.1934 185.853C47.9115 187.404 47.9377 188.995 48.2707 190.535C48.6036 192.075 49.2366 193.535 50.1336 194.831C51.0307 196.126 52.1741 197.232 53.4987 198.086C54.8233 198.94 56.303 199.525 57.8535 199.806C59.404 200.088 60.9948 200.062 62.5351 199.729C64.0754 199.396 65.5351 198.763 66.8307 197.866C68.1264 196.969 69.2327 195.826 70.0865 194.501C70.9403 193.177 71.5248 191.697 71.8066 190.146L80.1968 144H119.803L112.193 185.853C111.911 187.404 111.938 188.995 112.271 190.535C112.604 192.075 113.237 193.535 114.134 194.831C115.031 196.126 116.174 197.232 117.499 198.086C118.823 198.94 120.303 199.525 121.854 199.806C123.404 200.088 124.995 200.062 126.535 199.729C128.075 199.396 129.535 198.763 130.831 197.866C132.126 196.969 133.233 195.826 134.086 194.501C134.94 193.177 135.525 191.697 135.807 190.146L144.197 144H192.363C195.546 144 198.598 142.735 200.849 140.485C203.099 138.235 204.363 135.182 204.363 132C204.363 128.817 203.099 125.765 200.849 123.514C198.598 121.264 195.546 120 192.363 120H148.561L155.833 79.9998H204ZM124.167 120H84.5605L91.833 79.9998H131.439L124.167 120Z" />
    </symbol>

    <!-- double arrow right -->
    <symbol viewBox="0 0 13 11" id="double_arrow_right">
        <path d="M7.30495 10.2786L11.7234 5.73209L7.30495 1.18555M1.11914 10.2786L5.53758 5.73209L1.11914 1.18555" stroke-width="1.37788" stroke-linecap="round" stroke-linejoin="round"/>
    </symbol>

    <!-- slider arrow prev -->
    <symbol viewBox="0 0 21 38" fill="none" id="slide_arrow_prev">
        <path opacity="0.7" d="M19.1165 37L1 19L19.1165 1" stroke-width="2" stroke-linecap="round" stroke-linejoin="round"/>
    </symbol>


    <!-- slider arrow next -->
    <symbol viewBox="0 0 21 38" fill="none" id="slide_arrow_next">
        <path opacity="0.7" d="M1 37L19.1165 19L1 1" stroke-width="2" stroke-linecap="round" stroke-linejoin="round"/>
    </symbol>

</svg>