<svg width="170" height="160" viewBox="0 0 170 160" fill="none" xmlns="http://www.w3.org/2000/svg">
<mask id="mask0_265_8" style="mask-type:alpha" maskUnits="userSpaceOnUse" x="0" y="0" width="170" height="160">
<rect width="170" height="160" fill="#D9D9D9"/>
</mask>
<g mask="url(#mask0_265_8)">
<path d="M28.0759 150.507C5.74392 148.783 -6.89145 124.082 4.77938 104.964L59.6812 15.0313C71.6711 -4.60884 100.397 -3.99519 111.537 16.1391L165.966 114.512C177.529 135.412 161.221 160.786 137.407 158.947L28.0759 150.507Z" fill="#FFE7ED"/>
<path d="M63.0857 104.47C61.4797 108.51 58.949 112.5 55.5667 116.345C54.496 117.562 54.35 119.314 55.226 120.676C55.9073 121.747 57.0267 122.331 58.2433 122.331C58.584 122.331 58.9247 122.307 59.2653 122.185C66.4193 120.092 83.1363 112.671 83.5987 88.8726C83.769 79.6989 77.053 71.8149 68.3173 70.9146C63.475 70.4279 58.657 72.0096 55.08 75.2216C53.3109 76.826 51.8969 78.7827 50.9288 80.966C49.9608 83.1493 49.4601 85.511 49.459 87.8993C49.459 95.9293 55.153 102.962 63.0857 104.47ZM107.153 70.9146C102.335 70.4279 97.5173 72.0096 93.9403 75.2216C92.1711 76.8259 90.757 78.7826 89.789 80.9659C88.8209 83.1493 88.3203 85.511 88.3193 87.8993C88.3193 95.9293 94.0133 102.962 101.946 104.47C100.34 108.51 97.8093 112.5 94.427 116.345C93.3563 117.562 93.2103 119.314 94.0863 120.676C94.7677 121.747 95.887 122.331 97.1037 122.331C97.4443 122.331 97.785 122.307 98.1257 122.185C105.28 120.092 121.997 112.671 122.459 88.8726V88.5319C122.459 79.5043 115.816 71.8149 107.153 70.9146Z" fill="white"/>
</g>
</svg>
