<svg width="1920" height="90" viewBox="0 0 1920 90" fill="none" xmlns="http://www.w3.org/2000/svg">
<path opacity="0.25" d="M1920 90V52.1226C1843.54 33.9572 1754.26 25.7992 1667.2 29.2113C1554.62 33.6054 1449.07 56.4676 1336.32 59.8961C1218.18 63.4638 1100.26 46.0839 987.2 31.0442C876.368 16.3155 765.92 10.6859 652.16 20.3413C594.32 25.2509 540.4 34.9391 485.04 44.3492C336.816 69.5434 139.2 101.693 -2.86102e-05 47.0658V90H1920Z" fill="#FF7497" fill-opacity="0.5"/>
<path opacity="0.5" d="M1920 90V77.0633C1899.2 59.7898 1875.78 43.4736 1843.7 31.0442C1760.94 -1.04802 1656 -0.827088 1560.67 15.0636C1510.83 23.3689 1464.53 36.3957 1417.2 47.6304C1351.73 63.1774 1281.63 85.2704 1207.87 88.2735C1149.86 90.6055 1094.43 80.5654 1050.11 62.4491C999.28 41.6734 950.4 11.7169 884.304 2.71599C819.6 -6.11306 754.144 8.19016 693.696 22.5834C633.248 36.9766 573.44 54.4956 506.624 57.8096C411.056 62.5964 325.376 39.0877 236.384 26.0283C188.064 18.9421 141.984 20.9796 97.04 32.1652C61.152 41.0761 20.24 54.201 -1.72853e-05 72.4565V90H1920Z" fill="#FF7497" fill-opacity="0.22"/>
<path d="M1920 90V85.3932C1680.11 41.7225 1417.46 31.6415 1158.67 55.1666C1089.87 61.4181 1023.9 71.63 954.496 76.8178C860.096 83.8794 774.528 66.8023 689.6 47.8513C595.312 26.8138 502.4 12.0687 398.08 16.3564C259.632 22.0842 122.144 53.7592 -2.86102e-05 85.7532V90H1920Z" fill="#FFF3F6"/>
</svg>
