<svg width="1920" height="90" viewBox="0 0 1920 90" fill="none" xmlns="http://www.w3.org/2000/svg">
<path opacity="0.25" d="M0 0V37.8774C76.464 56.0428 165.744 64.2008 252.8 60.7887C365.376 56.3946 470.928 33.5324 583.68 30.1039C701.824 26.5362 819.744 43.9161 932.8 58.9558C1043.63 73.6845 1154.08 79.3141 1267.84 69.6587C1325.68 64.7491 1379.6 55.0609 1434.96 45.6508C1583.18 20.4566 1780.8 -11.693 1920 42.9342V0H0Z" fill="#FF7497" fill-opacity="0.5"/>
<path opacity="0.5" d="M0 0V12.9367C20.8 30.2102 44.224 46.5264 76.304 58.9558C159.056 91.048 264 90.8271 359.328 74.9364C409.168 66.6311 455.472 53.6043 502.8 42.3696C568.272 26.8226 638.368 4.72955 712.128 1.72653C770.144 -0.605514 825.568 9.43456 869.888 27.5509C920.72 48.3266 969.6 78.2831 1035.7 87.284C1100.4 96.1131 1165.86 81.8098 1226.3 67.4166C1286.75 53.0234 1346.56 35.5044 1413.38 32.1904C1508.94 27.4036 1594.62 50.9123 1683.62 63.9717C1731.94 71.0579 1778.02 69.0204 1822.96 57.8348C1858.85 48.9239 1899.76 35.799 1920 17.5435V0H0Z" fill="#FF7497" fill-opacity="0.22"/>
<path d="M0 0V4.60682C239.888 48.2775 502.544 58.3585 761.328 34.8334C830.128 28.5819 896.096 18.37 965.504 13.1822C1059.9 6.1206 1145.47 23.1977 1230.4 42.1487C1324.69 63.1862 1417.6 77.9313 1521.92 73.6436C1660.37 67.9158 1797.86 36.2408 1920 4.24678V0H0Z" fill="#FFF3F6"/>
</svg>
