<svg width="1197" height="67" viewBox="0 0 1197 67" fill="none" xmlns="http://www.w3.org/2000/svg">
<path d="M1196.01 0.211428L1196.01 56.0613C1164.74 57.1022 1133.47 58.1431 1096.35 56.6888C1059.22 55.2345 1016.23 51.2849 982.558 53.9695C948.882 56.6541 924.515 65.9729 887.043 66.1017C849.572 66.2304 798.997 57.1692 759.136 55.4337C719.276 53.6982 690.13 59.2886 651.163 58.5713C612.195 57.8541 563.406 50.8293 529.9 51.8777C496.395 52.9261 478.173 62.0477 445.183 63.5915C412.192 65.1354 364.432 59.1016 319.767 60.0355C275.103 60.9695 233.535 68.8712 199.336 66.3108C165.136 63.7504 138.307 50.7278 106.312 47.2758C74.3179 43.8239 37.159 49.9425 -8.97326e-07 56.0612L4.34632e-06 0.211331L1196.01 0.211428Z" fill="#FFF3F6" fill-opacity="0.4"/>
<path d="M1196.01 8.18074e-05L1196.01 28.3347C1158.5 26.0723 1120.98 23.81 1083.89 26.4316C1046.79 29.0532 1010.12 36.5589 978.405 37.0042C946.687 37.4495 919.92 30.8346 887.043 25.1629C854.166 19.4911 815.179 14.7626 773.256 18.1849C731.332 21.6073 686.473 33.1806 643.688 33.4095C600.903 33.6384 560.192 22.5229 529.07 22.2025C497.948 21.8821 476.415 32.3569 441.03 35.9469C405.645 39.5369 356.409 36.2421 319.767 34.6782C283.126 33.1142 259.078 33.2812 220.93 29.8148C182.782 26.3484 130.534 19.2486 91.3621 18.3963C52.1903 17.5441 26.0951 22.9393 -2.96513e-05 28.3346L-2.6991e-05 -1.55511e-05L1196.01 8.18074e-05Z" fill="#FFF3F6"/>
</svg>
