<svg width="25" height="25" viewBox="0 0 25 25" fill="none" xmlns="http://www.w3.org/2000/svg">
<g clip-path="url(#clip0_392_53)">
<path d="M0.259624 24.7381C0.342542 24.8212 0.441009 24.887 0.549395 24.9319C0.657781 24.9769 0.77396 25 0.89129 25C1.00862 25 1.1248 24.9769 1.23318 24.9319C1.34157 24.887 1.44004 24.8212 1.52296 24.7381L12.4956 13.7655L23.4728 24.7381C23.6403 24.9057 23.8675 24.9998 24.1045 24.9998C24.3414 24.9998 24.5686 24.9057 24.7361 24.7381C24.9037 24.5706 24.9978 24.3434 24.9978 24.1065C24.9978 23.8696 24.9037 23.6423 24.7361 23.4748L13.759 12.5021L24.7317 1.52498C24.8992 1.35745 24.9933 1.13023 24.9933 0.893311C24.9933 0.65639 24.8992 0.429173 24.7317 0.261645C24.5641 0.0941163 24.3369 0 24.1 0C23.8631 0 23.6359 0.0941163 23.4683 0.261645L12.4956 11.2388L1.51849 0.266109C1.3477 0.119842 1.128 0.0434119 0.903295 0.0520911C0.678595 0.0607703 0.465445 0.15392 0.30644 0.312925C0.147435 0.47193 0.0542854 0.68508 0.0456062 0.90978C0.036927 1.13448 0.113357 1.35418 0.259624 1.52498L11.2323 12.5021L0.259624 23.4793C0.0933364 23.6466 0 23.8728 0 24.1087C0 24.3446 0.0933364 24.5709 0.259624 24.7381Z" fill="white"/>
</g>
<defs>
<clipPath id="clip0_392_53">
<rect width="25" height="25" fill="white"/>
</clipPath>
</defs>
</svg>
