<svg width="50" height="50" viewBox="0 0 50 50" fill="none" xmlns="http://www.w3.org/2000/svg">
<path d="M33.1284 39.8438C33.6678 39.8438 34.105 39.4065 34.105 38.8672C34.105 38.3278 33.6678 37.8906 33.1284 37.8906C32.5891 37.8906 32.1519 38.3278 32.1519 38.8672C32.1519 39.4065 32.5891 39.8438 33.1284 39.8438Z" fill="#F2184F"/>
<path d="M49.503 20.5762C48.5835 18.3478 46.2178 16.6681 43.6542 16.6992C43.2102 16.6992 42.7714 16.7453 42.3423 16.8357C42.3693 16.5984 42.3846 16.3577 42.3846 16.1133C42.3846 12.6132 39.5369 9.76563 36.0366 9.76563C34.6313 9.76563 33.3048 10.2225 32.2278 11.0314V0.976563C32.2278 0.437305 31.7906 1.37242e-10 31.2513 1.37242e-10H18.5555C18.3362 -3.67445e-06 18.1233 0.0737815 17.9511 0.209475C17.7789 0.345169 17.6573 0.534876 17.606 0.748051C17.5547 0.961227 17.5766 1.18547 17.6683 1.38466C17.7599 1.58386 17.9159 1.74643 18.1111 1.84619C19.59 2.60166 20.5087 4.10215 20.5087 5.76172C20.5087 8.18486 18.5372 10.1563 16.114 10.1563C13.6907 10.1563 11.7192 8.18486 11.7192 5.76172C11.7192 4.10215 12.6379 2.60176 14.1168 1.84619C14.3121 1.74643 14.4681 1.58386 14.5597 1.38466C14.6513 1.18547 14.6732 0.961227 14.6219 0.748051C14.5706 0.534876 14.4491 0.345169 14.2768 0.209475C14.1046 0.0737815 13.8917 -3.67445e-06 13.6725 1.37242e-10L0.976563 1.37242e-10C0.437207 1.37242e-10 0 0.437305 0 0.976563V13.6719C8.7328e-05 13.8911 0.0739215 14.1039 0.209622 14.2761C0.345322 14.4482 0.534997 14.5697 0.748126 14.621C0.961255 14.6723 1.18544 14.6504 1.38462 14.5589C1.58379 14.4673 1.74637 14.3114 1.84619 14.1162C2.60186 12.6374 4.10234 11.7188 5.76191 11.7188C8.18516 11.7188 10.1566 13.6901 10.1566 16.1133C10.1566 18.5364 8.18516 20.5078 5.76191 20.5078C4.10225 20.5078 2.60186 19.5892 1.84619 18.1104C1.7464 17.9151 1.58383 17.7591 1.38464 17.6675C1.18545 17.5759 0.961227 17.5539 0.748047 17.6052C0.534882 17.6565 0.34519 17.7781 0.209502 17.9503C0.0738134 18.1226 2.06414e-05 18.3354 0 18.5547L0 31.25C0 31.7893 0.437207 32.2266 0.976563 32.2266H7.61748V38.8672C7.61748 39.124 7.72197 39.376 7.90361 39.5575C8.08718 39.74 8.33528 39.8429 8.59414 39.8438H18.6541C18.252 40.3779 17.9372 40.9726 17.7215 41.6055C16.6516 44.5454 18.1908 48.2805 21.2606 49.501C22.043 49.8321 22.874 50 23.7314 50C24.5889 50 25.42 49.832 26.2022 49.501C29.1227 48.3231 30.8672 44.7318 29.7404 41.6035C29.5242 40.9704 29.2091 40.3755 28.8068 39.8408C29.3137 39.8037 29.7102 39.377 29.7102 38.8672C29.7102 38.3291 29.2717 37.8906 28.7336 37.8906H26.173C25.9161 37.8906 25.6642 37.995 25.4824 38.1768C25.3 38.3603 25.1972 38.6084 25.1963 38.8672V38.8691C25.1963 39.2383 25.4004 39.5713 25.7285 39.7393C27.2081 40.4971 28.1271 41.9971 28.1261 43.6523C27.7658 49.7432 19.4549 49.1923 19.3366 43.6523C19.3356 41.9971 20.2546 40.497 21.7342 39.7393C21.8947 39.6577 22.0295 39.5331 22.1234 39.3795C22.2174 39.2259 22.2669 39.0492 22.2664 38.8691V38.8672C22.2664 38.6104 22.1619 38.3584 21.9803 38.1768C21.7986 37.9951 21.5467 37.8906 21.2898 37.8906H9.5707V32.2266H31.2513C31.7906 32.2266 32.2278 31.7893 32.2278 31.25V21.1951C33.3049 22.0041 34.6313 22.4609 36.0367 22.4609C38.4343 22.4609 40.5252 21.1246 41.605 19.158C42.236 18.8252 42.9388 18.6516 43.6522 18.6523C49.7451 19.0091 49.1955 27.3254 43.6522 27.4414C41.9979 27.4414 40.4988 26.5225 39.7409 25.0439C39.6593 24.8834 39.5348 24.7487 39.3812 24.6547C39.2276 24.5607 39.0509 24.5112 38.8708 24.5117H38.8689C38.612 24.5117 38.3601 24.6161 38.1783 24.7979C37.9959 24.9814 37.8931 25.2295 37.8922 25.4883V37.8906H37.523C36.984 37.8906 36.5465 38.3291 36.5465 38.8672C36.5465 39.4053 36.984 39.8438 37.523 39.8438H38.8689C39.1257 39.8438 39.3776 39.7393 39.5593 39.5575C39.7418 39.374 39.8446 39.126 39.8454 38.8672V28.124C40.3796 28.5262 40.9743 28.8409 41.6072 29.0566C42.2664 29.2809 42.958 29.3951 43.6542 29.3945C48.3737 29.3942 51.2014 24.5202 49.503 20.5762ZM1.95322 21.1971C3.02998 22.0048 4.35645 22.4609 5.76191 22.4609C9.26221 22.4609 12.1099 19.6134 12.1099 16.1133C12.1099 12.6132 9.26221 9.76563 5.76191 9.76563C4.35635 9.76563 3.02998 10.2218 1.95313 11.0295V1.95313H11.0299C10.2221 3.02979 9.76592 4.35615 9.76592 5.76172C9.76592 9.26182 12.6136 12.1094 16.1139 12.1094C19.6142 12.1094 22.4618 9.26182 22.4618 5.76172C22.4618 4.35615 22.0057 3.02979 21.1979 1.95313H30.2746V13.6719C30.2746 14.2111 30.7143 14.6484 31.2536 14.6484C31.4335 14.6484 31.6099 14.5988 31.7633 14.5049C31.9167 14.4111 32.0413 14.2766 32.1231 14.1165C32.8795 12.6375 34.379 11.7188 36.0366 11.7188C38.4599 11.7188 40.4314 13.6901 40.4314 16.1133C40.4314 18.5364 38.4599 20.5078 36.0366 20.5078C34.379 20.5078 32.8795 19.5891 32.1231 18.1101C32.0407 17.9498 31.9158 17.8154 31.762 17.7216C31.6082 17.6277 31.4315 17.5781 31.2513 17.5781C30.7119 17.5781 30.2747 18.0154 30.2747 18.5547V30.2734H1.95322V21.1971Z" fill="#F2184F"/>
<path d="M25.3916 22.4609C25.931 22.4609 26.3682 22.0236 26.3682 21.4844C26.3682 20.9451 25.931 20.5078 25.3916 20.5078H24.9567L26.1781 18.0067C26.2509 17.8579 26.2845 17.6929 26.2759 17.5274C26.2673 17.362 26.2167 17.2014 26.129 17.0608C26.0412 16.9203 25.9191 16.8044 25.7742 16.7241C25.6293 16.6437 25.4663 16.6016 25.3006 16.6016H21.6053C21.0659 16.6016 20.6287 17.0389 20.6287 17.5781C20.6287 18.1174 21.0659 18.5547 21.6053 18.5547H23.7369L22.783 20.5078H21.4852C20.9458 20.5078 20.5086 20.9451 20.5086 21.4844C20.5086 22.0236 20.9458 22.4609 21.4852 22.4609H21.8291L20.6076 24.962C20.5349 25.1109 20.5013 25.2758 20.5099 25.4413C20.5185 25.6068 20.569 25.7674 20.6568 25.9079C20.7446 26.0485 20.8667 26.1644 21.0116 26.2447C21.1565 26.325 21.3195 26.3672 21.4852 26.3672H25.3916C25.931 26.3672 26.3682 25.9299 26.3682 25.3906C26.3682 24.8514 25.931 24.4141 25.3916 24.4141H23.0489L24.0028 22.4609H25.3916Z" fill="#F2184F"/>
</svg>
