<svg width="40" height="52" viewBox="0 0 40 52" fill="none" xmlns="http://www.w3.org/2000/svg">
<path d="M37.6346 22.8934C38.7973 22.0921 40 21.2644 40 20.004C40 18.7436 38.7973 17.9151 37.6346 17.1138C37.0064 16.6811 36.1466 16.0889 36.0433 15.7035C35.9311 15.2796 36.3726 14.3462 36.7276 13.5962C37.3197 12.3462 37.9319 11.0529 37.3221 9.9984C36.7035 8.92949 35.2644 8.8141 33.8734 8.70273C33.0561 8.63782 32.0385 8.55609 31.7412 8.25881C31.4439 7.96154 31.3622 6.94391 31.2973 6.1258C31.1851 4.73478 31.0705 3.29647 30.0016 2.67788C28.9471 2.06811 27.6546 2.68029 26.4046 3.27164C25.6546 3.6266 24.7212 4.06891 24.2973 3.95593C23.9111 3.85337 23.3197 2.99279 22.887 2.36538C22.0857 1.20272 21.2564 0 19.996 0C18.7356 0 17.9071 1.20192 17.1066 2.36538C16.6739 2.99359 16.0817 3.85337 15.6963 3.95593C15.2724 4.06971 14.3405 3.6274 13.5897 3.27244C12.3389 2.68109 11.0465 2.06891 9.99199 2.67949C8.92468 3.29808 8.8101 4.73718 8.69872 6.1274C8.63462 6.94471 8.55289 7.96234 8.25561 8.26042C7.95914 8.55689 6.94151 8.63942 6.1242 8.70433C4.73317 8.81651 3.29487 8.93189 2.67708 10C2.06731 11.0553 2.67949 12.3478 3.27164 13.5978C3.6266 14.347 4.06891 15.2804 3.95593 15.7035C3.85337 16.0897 2.99279 16.6811 2.36538 17.1138C1.20272 17.9151 0 18.7436 0 20.004C0 21.2636 1.20272 22.0921 2.36538 22.8934C2.99359 23.3261 3.85337 23.9183 3.95593 24.3037C4.06891 24.726 3.6274 25.6595 3.27164 26.4103C2.67869 27.6603 2.06731 28.9519 2.67628 30.0064C3.29407 31.0753 4.73317 31.1907 6.1242 31.3021C6.35096 31.3205 6.59215 31.3405 6.83013 31.3654L0.584936 46.2067C0.466079 46.4855 0.428513 46.7921 0.47658 47.0913C0.524647 47.3905 0.656385 47.67 0.856571 47.8974C1.05495 48.1268 1.31418 48.2952 1.60429 48.3834C1.8944 48.4716 2.20355 48.4759 2.49599 48.3958L5.93029 47.48L7.95994 50.5553C8.29808 51.0681 8.88301 51.3293 9.45593 51.2748C9.74718 51.2486 10.0258 51.1439 10.2622 50.9717C10.4986 50.7995 10.6838 50.5664 10.7981 50.2973L16.5216 36.8245C17.5176 38.1194 18.4183 40.008 19.9968 40.008C21.5777 40.008 22.4784 38.1138 23.4776 36.8189L29.2035 50.2973C29.3176 50.5666 29.5027 50.7999 29.739 50.9724C29.9753 51.1448 30.254 51.2498 30.5453 51.2763C30.8366 51.3028 31.1297 51.2497 31.3932 51.1227C31.6567 50.9958 31.8808 50.7996 32.0417 50.5553L34.0865 47.4736L37.5056 48.395C37.7979 48.4753 38.107 48.4713 38.3971 48.3834C38.6872 48.2955 38.9465 48.1273 39.145 47.8982C39.3454 47.6709 39.4772 47.3914 39.5254 47.0922C39.5737 46.7931 39.5362 46.4863 39.4175 46.2075L33.1715 31.3678C33.4079 31.3438 33.6482 31.3229 33.8742 31.3045C35.2652 31.1939 36.7043 31.0785 37.3221 30.0096C37.9319 28.9551 37.3205 27.6619 36.7284 26.4119C36.3734 25.6611 35.9311 24.7276 36.0441 24.3053C36.1474 23.9191 37.0064 23.3261 37.6346 22.8934ZM9.29648 49.6723L7.26763 46.597C7.08068 46.3129 6.80883 46.0952 6.49085 45.9748C6.17287 45.8543 5.82499 45.8374 5.4968 45.9263L2.0609 46.8285L8.35096 31.883C8.47596 32.1122 8.54808 32.5064 8.58494 32.7628C8.59696 32.8726 8.625 32.9631 8.69792 33.8822C8.80849 35.2716 8.92228 36.7091 9.99119 37.3317C11.0473 37.9383 12.3389 37.3285 13.5873 36.738C14.0697 36.5096 14.6282 36.2452 15.0785 36.1162L9.29648 49.6723ZM34.5032 45.9263C34.175 45.8376 33.8272 45.8547 33.5093 45.9751C33.1914 46.0955 32.9195 46.3131 32.7324 46.597L30.6779 49.6699L24.9207 36.1178C25.4383 36.2684 26.0769 36.5841 26.722 36.8846C28.1274 37.5417 29.6418 38.0833 30.5801 36.7965C30.5986 36.7716 30.6218 36.7508 30.6394 36.7244L30.6506 36.7035C31.1274 35.9728 31.2139 34.9151 31.2965 33.8814C31.3197 33.5938 31.3446 33.2829 31.3806 32.9864L31.3886 32.9151C31.3998 32.8301 31.4127 32.7468 31.4255 32.6659C31.4447 32.5457 31.4655 32.4295 31.4912 32.3237C31.5016 32.2772 31.5152 32.2364 31.5264 32.1947C31.5585 32.0833 31.5938 31.9808 31.6354 31.9006L31.6474 31.8814L37.9311 46.8494L34.5032 45.9263ZM35.2788 27.097C35.6154 27.8077 36.1234 28.8806 35.9343 29.2067C35.7372 29.5481 34.5385 29.6442 33.7452 29.7075C33.1026 29.7588 32.4511 29.8149 31.8726 29.9639C29.996 30.3534 29.8349 32.0192 29.6963 33.7556C29.6482 34.3502 29.5833 35.1723 29.4111 35.6298C29.1723 36.258 28.6146 35.9984 27.3838 35.4255C27.3807 35.424 27.3775 35.4226 27.3742 35.4215L27.0905 35.2877C26.4575 34.988 25.8117 34.6867 25.1875 34.5345C25.1418 34.524 25.0946 34.5088 25.0489 34.4992C25.0312 34.496 25.0144 34.4952 24.9968 34.4912C24.3886 34.3742 23.8237 34.4223 23.3045 34.7684C22.6338 35.1931 22.0921 35.9704 21.5665 36.7332C21.1074 37.3982 20.4143 38.4055 19.996 38.4055C19.5777 38.4055 18.8846 37.399 18.4263 36.7332C16.766 34.3213 15.9888 33.8606 13.3141 35.0962L12.9038 35.2861C12.1939 35.6226 11.121 36.129 10.7949 35.9407C10.4543 35.7436 10.3598 34.5449 10.2965 33.7524C10.0361 30.48 9.4383 29.9615 6.2524 29.7051C5.45914 29.641 4.26122 29.5449 4.0641 29.2043C3.875 28.8782 4.38301 27.8061 4.71955 27.097C5.23558 26.0072 5.76923 24.8814 5.50481 23.8894C5.2484 22.9335 4.24519 22.242 3.27484 21.5737C2.60897 21.1154 1.60256 20.4215 1.60256 20.0032C1.60256 19.5857 2.60897 18.8926 3.27404 18.4343C4.24519 17.7652 5.2484 17.0745 5.50481 16.117C5.76923 15.1266 5.23558 14.0008 4.71955 12.9119C4.38301 12.2019 3.875 11.129 4.0641 10.8029C4.26122 10.4623 5.45994 10.3654 6.2524 10.3021C7.44391 10.2059 8.67548 10.1074 9.38942 9.39343C10.1042 8.67789 10.2019 7.44631 10.2965 6.25481C10.3606 5.46154 10.4551 4.26362 10.7957 4.06731C11.121 3.87901 12.1939 4.38542 12.9046 4.72115C13.9936 5.23638 15.1194 5.76923 16.1098 5.50481C17.0665 5.2484 17.758 4.24519 18.4263 3.27484C18.8846 2.60897 19.5777 1.60256 19.996 1.60256C20.4143 1.60256 21.1082 2.60897 21.5665 3.27484C22.2356 4.24439 22.9263 5.2484 23.883 5.50401C24.8742 5.76843 26.0016 5.23558 27.0905 4.72035C27.7997 4.38381 28.8734 3.8766 29.1987 4.0649C29.5401 4.26202 29.6362 5.46074 29.6995 6.25481C29.7957 7.44551 29.8934 8.67708 30.6082 9.39183C31.3229 10.1066 32.5545 10.2051 33.7452 10.3005C34.5385 10.3646 35.7372 10.4607 35.9343 10.8005C36.1234 11.1274 35.6154 12.2003 35.2796 12.9103C34.7636 13.9992 34.23 15.125 34.4952 16.1162C34.7516 17.0737 35.7548 17.7644 36.7252 18.4335C37.391 18.8918 38.3974 19.5849 38.3974 20.004C38.3974 20.4223 37.391 21.1154 36.7252 21.5745C35.7548 22.2428 34.7508 22.9343 34.4952 23.891C34.2308 24.8822 34.7636 26.008 35.2788 27.097Z" fill="#F2184F"/>
<path d="M20 8.14343C13.4599 8.14343 8.1394 13.4639 8.1394 20.004C8.1394 26.5425 13.4599 31.8638 20 31.8638C26.54 31.8638 31.8606 26.5433 31.8606 20.004C31.8606 13.4639 26.54 8.14343 20 8.14343ZM20 30.2612C14.3429 30.2612 9.74197 25.6595 9.74197 20.004C9.74197 14.347 14.3437 9.746 20 9.746C25.6562 9.746 30.258 14.3478 30.258 20.004C30.258 25.6595 25.6562 30.2612 20 30.2612Z" fill="#F2184F"/>
<path d="M25.4511 17.3974H22.2925L21.3093 14.387C21.2192 14.1098 21.0435 13.8684 20.8075 13.6974C20.5716 13.5263 20.2875 13.4345 19.996 13.4351C19.3951 13.4351 18.8678 13.8197 18.6819 14.3894L17.706 17.3974H14.5489C14.2571 17.3968 13.9727 17.4888 13.7365 17.6601C13.5004 17.8315 13.3247 18.0734 13.2348 18.3509C13.1438 18.6285 13.1434 18.9277 13.2336 19.2056C13.3237 19.4834 13.4998 19.7254 13.7364 19.8966L16.2909 21.754L15.3157 24.7588C15.2252 25.0362 15.2251 25.3352 15.3154 25.6127C15.4057 25.8901 15.5817 26.1318 15.8181 26.3029C16.3037 26.6554 16.9568 26.6554 17.4423 26.3029L19.9952 24.4463L22.5601 26.3069C22.796 26.4787 23.0805 26.5713 23.3724 26.5711C23.6642 26.571 23.9486 26.4782 24.1843 26.3061C24.4206 26.1349 24.5965 25.8932 24.6866 25.6157C24.7767 25.3382 24.7765 25.0393 24.6859 24.762L23.7092 21.754L26.2636 19.8958C26.4998 19.7245 26.6755 19.4828 26.7655 19.2053C26.8555 18.9278 26.8551 18.629 26.7644 18.3517C26.6747 18.0741 26.4992 17.8322 26.2632 17.6607C26.0272 17.4892 25.7429 17.397 25.4511 17.3974ZM22.6362 20.5528C22.4003 20.7241 22.2247 20.9657 22.1347 21.243C22.0447 21.5203 22.045 21.819 22.1354 22.0961L22.9527 24.6113L20.8053 23.0545C20.5694 22.8829 20.2852 22.7905 19.9935 22.7907C19.7018 22.7908 19.4176 22.8834 19.1819 23.0553L17.0505 24.6057L17.8646 22.0961C17.9551 21.8188 17.9552 21.5199 17.8651 21.2424C17.775 20.965 17.5992 20.7233 17.363 20.552L15.2284 19H17.8662C18.4672 19 18.996 18.6154 19.1803 18.0448L19.9976 15.5288L20.8189 18.0472C20.909 18.3247 21.0847 18.5664 21.3209 18.7376C21.557 18.9088 21.8414 19.0006 22.133 19H24.7717L22.6362 20.5528Z" fill="#F2184F"/>
</svg>
