<svg width="1920" height="85" viewBox="0 0 1920 85" fill="none" xmlns="http://www.w3.org/2000/svg">
<path d="M0 83.8925L0 28.3585C50.1992 27.3234 100.398 26.2884 160 27.7345C219.602 29.1806 288.606 33.1078 342.667 30.4384C396.728 27.769 435.846 18.5029 496 18.3748C556.154 18.2468 637.344 27.2568 701.333 28.9825C765.323 30.7081 812.111 25.1494 874.667 25.8626C937.223 26.5757 1015.55 33.5608 1069.33 32.5183C1123.12 31.4759 1152.37 22.4059 1205.33 20.8708C1258.29 19.3356 1334.97 25.3353 1406.67 24.4066C1478.37 23.4779 1545.1 15.6209 1600 18.1668C1654.9 20.7128 1697.97 33.6617 1749.33 37.0942C1800.69 40.5266 1860.35 34.4425 1920 28.3585V83.8925L0 83.8925Z" fill="#FFF3F6" fill-opacity="0.4"/>
<path d="M0 84.1026L0 55.9283C60.2265 58.1778 120.453 60.4274 180 57.8206C239.547 55.2138 298.415 47.7506 349.333 47.3078C400.252 46.8649 443.222 53.4424 496 59.0821C548.778 64.7218 611.366 69.4236 678.667 66.0206C745.968 62.6176 817.982 51.1097 886.667 50.8821C955.351 50.6545 1020.71 61.7071 1070.67 62.0257C1120.63 62.3443 1155.2 51.9287 1212 48.359C1268.8 44.7893 1347.84 48.0655 1406.67 49.6206C1465.49 51.1757 1504.09 51.0097 1565.33 54.4565C1626.57 57.9033 1710.45 64.9629 1773.33 65.8103C1836.22 66.6577 1878.11 61.293 1920 55.9283V84.1026L0 84.1026Z" fill="#FFF3F6"/>
</svg>
