<svg width="1920" height="85" viewBox="0 0 1920 85" fill="none" xmlns="http://www.w3.org/2000/svg">
<path d="M0 1.10758L0 56.6416C50.1992 57.6766 100.398 58.7117 160 57.2656C219.602 55.8195 288.606 51.8922 342.667 54.5617C396.728 57.2311 435.846 66.4972 496 66.6252C556.154 66.7533 637.344 57.7433 701.333 56.0176C765.323 54.292 812.111 59.8507 874.667 59.1375C937.223 58.4243 1015.55 51.4393 1069.33 52.4817C1123.12 53.5242 1152.37 62.5942 1205.33 64.1293C1258.29 65.6645 1334.97 59.6648 1406.67 60.5934C1478.37 61.5221 1545.1 69.3792 1600 66.8332C1654.9 64.2873 1697.97 51.3383 1749.33 47.9059C1800.69 44.4735 1860.35 50.5575 1920 56.6416V1.10758L0 1.10758Z" fill="#FFF3F6" fill-opacity="0.4"/>
<path d="M0 0.897377L0 29.0717C60.2265 26.8222 120.453 24.5726 180 27.1794C239.547 29.7862 298.415 37.2494 349.333 37.6922C400.252 38.1351 443.222 31.5576 496 25.9179C548.778 20.2782 611.366 15.5764 678.667 18.9794C745.968 22.3824 817.982 33.8903 886.667 34.1179C955.351 34.3455 1020.71 23.2929 1070.67 22.9743C1120.63 22.6557 1155.2 33.0713 1212 36.641C1268.8 40.2107 1347.84 36.9345 1406.67 35.3794C1465.49 33.8243 1504.09 33.9903 1565.33 30.5435C1626.57 27.0967 1710.45 20.0371 1773.33 19.1897C1836.22 18.3423 1878.11 23.707 1920 29.0717V0.897377L0 0.897377Z" fill="#FFF3F6"/>
</svg>
